G04 #@! TF.GenerationSoftware,KiCad,Pcbnew,7.0.2*
G04 #@! TF.CreationDate,2023-06-04T18:47:50-07:00*
G04 #@! TF.ProjectId,pbx_ring_gen,7062785f-7269-46e6-975f-67656e2e6b69,1*
G04 #@! TF.SameCoordinates,Original*
G04 #@! TF.FileFunction,Legend,Top*
G04 #@! TF.FilePolarity,Positive*
%FSLAX46Y46*%
G04 Gerber Fmt 4.6, Leading zero omitted, Abs format (unit mm)*
G04 Created by KiCad (PCBNEW 7.0.2) date 2023-06-04 18:47:50*
%MOMM*%
%LPD*%
G01*
G04 APERTURE LIST*
%ADD10C,0.150000*%
%ADD11C,0.120000*%
%ADD12C,0.127000*%
%ADD13C,0.200000*%
G04 APERTURE END LIST*
D10*
X48498095Y-69662619D02*
X48498095Y-68662619D01*
X48498095Y-68662619D02*
X48879047Y-68662619D01*
X48879047Y-68662619D02*
X48974285Y-68710238D01*
X48974285Y-68710238D02*
X49021904Y-68757857D01*
X49021904Y-68757857D02*
X49069523Y-68853095D01*
X49069523Y-68853095D02*
X49069523Y-68995952D01*
X49069523Y-68995952D02*
X49021904Y-69091190D01*
X49021904Y-69091190D02*
X48974285Y-69138809D01*
X48974285Y-69138809D02*
X48879047Y-69186428D01*
X48879047Y-69186428D02*
X48498095Y-69186428D01*
X49831428Y-69138809D02*
X49974285Y-69186428D01*
X49974285Y-69186428D02*
X50021904Y-69234047D01*
X50021904Y-69234047D02*
X50069523Y-69329285D01*
X50069523Y-69329285D02*
X50069523Y-69472142D01*
X50069523Y-69472142D02*
X50021904Y-69567380D01*
X50021904Y-69567380D02*
X49974285Y-69615000D01*
X49974285Y-69615000D02*
X49879047Y-69662619D01*
X49879047Y-69662619D02*
X49498095Y-69662619D01*
X49498095Y-69662619D02*
X49498095Y-68662619D01*
X49498095Y-68662619D02*
X49831428Y-68662619D01*
X49831428Y-68662619D02*
X49926666Y-68710238D01*
X49926666Y-68710238D02*
X49974285Y-68757857D01*
X49974285Y-68757857D02*
X50021904Y-68853095D01*
X50021904Y-68853095D02*
X50021904Y-68948333D01*
X50021904Y-68948333D02*
X49974285Y-69043571D01*
X49974285Y-69043571D02*
X49926666Y-69091190D01*
X49926666Y-69091190D02*
X49831428Y-69138809D01*
X49831428Y-69138809D02*
X49498095Y-69138809D01*
X50402857Y-68662619D02*
X51069523Y-69662619D01*
X51069523Y-68662619D02*
X50402857Y-69662619D01*
X52783809Y-69662619D02*
X52450476Y-69186428D01*
X52212381Y-69662619D02*
X52212381Y-68662619D01*
X52212381Y-68662619D02*
X52593333Y-68662619D01*
X52593333Y-68662619D02*
X52688571Y-68710238D01*
X52688571Y-68710238D02*
X52736190Y-68757857D01*
X52736190Y-68757857D02*
X52783809Y-68853095D01*
X52783809Y-68853095D02*
X52783809Y-68995952D01*
X52783809Y-68995952D02*
X52736190Y-69091190D01*
X52736190Y-69091190D02*
X52688571Y-69138809D01*
X52688571Y-69138809D02*
X52593333Y-69186428D01*
X52593333Y-69186428D02*
X52212381Y-69186428D01*
X53212381Y-69662619D02*
X53212381Y-68995952D01*
X53212381Y-68662619D02*
X53164762Y-68710238D01*
X53164762Y-68710238D02*
X53212381Y-68757857D01*
X53212381Y-68757857D02*
X53260000Y-68710238D01*
X53260000Y-68710238D02*
X53212381Y-68662619D01*
X53212381Y-68662619D02*
X53212381Y-68757857D01*
X53688571Y-68995952D02*
X53688571Y-69662619D01*
X53688571Y-69091190D02*
X53736190Y-69043571D01*
X53736190Y-69043571D02*
X53831428Y-68995952D01*
X53831428Y-68995952D02*
X53974285Y-68995952D01*
X53974285Y-68995952D02*
X54069523Y-69043571D01*
X54069523Y-69043571D02*
X54117142Y-69138809D01*
X54117142Y-69138809D02*
X54117142Y-69662619D01*
X55021904Y-68995952D02*
X55021904Y-69805476D01*
X55021904Y-69805476D02*
X54974285Y-69900714D01*
X54974285Y-69900714D02*
X54926666Y-69948333D01*
X54926666Y-69948333D02*
X54831428Y-69995952D01*
X54831428Y-69995952D02*
X54688571Y-69995952D01*
X54688571Y-69995952D02*
X54593333Y-69948333D01*
X55021904Y-69615000D02*
X54926666Y-69662619D01*
X54926666Y-69662619D02*
X54736190Y-69662619D01*
X54736190Y-69662619D02*
X54640952Y-69615000D01*
X54640952Y-69615000D02*
X54593333Y-69567380D01*
X54593333Y-69567380D02*
X54545714Y-69472142D01*
X54545714Y-69472142D02*
X54545714Y-69186428D01*
X54545714Y-69186428D02*
X54593333Y-69091190D01*
X54593333Y-69091190D02*
X54640952Y-69043571D01*
X54640952Y-69043571D02*
X54736190Y-68995952D01*
X54736190Y-68995952D02*
X54926666Y-68995952D01*
X54926666Y-68995952D02*
X55021904Y-69043571D01*
X56783809Y-68710238D02*
X56688571Y-68662619D01*
X56688571Y-68662619D02*
X56545714Y-68662619D01*
X56545714Y-68662619D02*
X56402857Y-68710238D01*
X56402857Y-68710238D02*
X56307619Y-68805476D01*
X56307619Y-68805476D02*
X56260000Y-68900714D01*
X56260000Y-68900714D02*
X56212381Y-69091190D01*
X56212381Y-69091190D02*
X56212381Y-69234047D01*
X56212381Y-69234047D02*
X56260000Y-69424523D01*
X56260000Y-69424523D02*
X56307619Y-69519761D01*
X56307619Y-69519761D02*
X56402857Y-69615000D01*
X56402857Y-69615000D02*
X56545714Y-69662619D01*
X56545714Y-69662619D02*
X56640952Y-69662619D01*
X56640952Y-69662619D02*
X56783809Y-69615000D01*
X56783809Y-69615000D02*
X56831428Y-69567380D01*
X56831428Y-69567380D02*
X56831428Y-69234047D01*
X56831428Y-69234047D02*
X56640952Y-69234047D01*
X57640952Y-69615000D02*
X57545714Y-69662619D01*
X57545714Y-69662619D02*
X57355238Y-69662619D01*
X57355238Y-69662619D02*
X57260000Y-69615000D01*
X57260000Y-69615000D02*
X57212381Y-69519761D01*
X57212381Y-69519761D02*
X57212381Y-69138809D01*
X57212381Y-69138809D02*
X57260000Y-69043571D01*
X57260000Y-69043571D02*
X57355238Y-68995952D01*
X57355238Y-68995952D02*
X57545714Y-68995952D01*
X57545714Y-68995952D02*
X57640952Y-69043571D01*
X57640952Y-69043571D02*
X57688571Y-69138809D01*
X57688571Y-69138809D02*
X57688571Y-69234047D01*
X57688571Y-69234047D02*
X57212381Y-69329285D01*
X58117143Y-68995952D02*
X58117143Y-69662619D01*
X58117143Y-69091190D02*
X58164762Y-69043571D01*
X58164762Y-69043571D02*
X58260000Y-68995952D01*
X58260000Y-68995952D02*
X58402857Y-68995952D01*
X58402857Y-68995952D02*
X58498095Y-69043571D01*
X58498095Y-69043571D02*
X58545714Y-69138809D01*
X58545714Y-69138809D02*
X58545714Y-69662619D01*
X59402857Y-69615000D02*
X59307619Y-69662619D01*
X59307619Y-69662619D02*
X59117143Y-69662619D01*
X59117143Y-69662619D02*
X59021905Y-69615000D01*
X59021905Y-69615000D02*
X58974286Y-69519761D01*
X58974286Y-69519761D02*
X58974286Y-69138809D01*
X58974286Y-69138809D02*
X59021905Y-69043571D01*
X59021905Y-69043571D02*
X59117143Y-68995952D01*
X59117143Y-68995952D02*
X59307619Y-68995952D01*
X59307619Y-68995952D02*
X59402857Y-69043571D01*
X59402857Y-69043571D02*
X59450476Y-69138809D01*
X59450476Y-69138809D02*
X59450476Y-69234047D01*
X59450476Y-69234047D02*
X58974286Y-69329285D01*
X59879048Y-69662619D02*
X59879048Y-68995952D01*
X59879048Y-69186428D02*
X59926667Y-69091190D01*
X59926667Y-69091190D02*
X59974286Y-69043571D01*
X59974286Y-69043571D02*
X60069524Y-68995952D01*
X60069524Y-68995952D02*
X60164762Y-68995952D01*
X60926667Y-69662619D02*
X60926667Y-69138809D01*
X60926667Y-69138809D02*
X60879048Y-69043571D01*
X60879048Y-69043571D02*
X60783810Y-68995952D01*
X60783810Y-68995952D02*
X60593334Y-68995952D01*
X60593334Y-68995952D02*
X60498096Y-69043571D01*
X60926667Y-69615000D02*
X60831429Y-69662619D01*
X60831429Y-69662619D02*
X60593334Y-69662619D01*
X60593334Y-69662619D02*
X60498096Y-69615000D01*
X60498096Y-69615000D02*
X60450477Y-69519761D01*
X60450477Y-69519761D02*
X60450477Y-69424523D01*
X60450477Y-69424523D02*
X60498096Y-69329285D01*
X60498096Y-69329285D02*
X60593334Y-69281666D01*
X60593334Y-69281666D02*
X60831429Y-69281666D01*
X60831429Y-69281666D02*
X60926667Y-69234047D01*
X61260001Y-68995952D02*
X61640953Y-68995952D01*
X61402858Y-68662619D02*
X61402858Y-69519761D01*
X61402858Y-69519761D02*
X61450477Y-69615000D01*
X61450477Y-69615000D02*
X61545715Y-69662619D01*
X61545715Y-69662619D02*
X61640953Y-69662619D01*
X62117144Y-69662619D02*
X62021906Y-69615000D01*
X62021906Y-69615000D02*
X61974287Y-69567380D01*
X61974287Y-69567380D02*
X61926668Y-69472142D01*
X61926668Y-69472142D02*
X61926668Y-69186428D01*
X61926668Y-69186428D02*
X61974287Y-69091190D01*
X61974287Y-69091190D02*
X62021906Y-69043571D01*
X62021906Y-69043571D02*
X62117144Y-68995952D01*
X62117144Y-68995952D02*
X62260001Y-68995952D01*
X62260001Y-68995952D02*
X62355239Y-69043571D01*
X62355239Y-69043571D02*
X62402858Y-69091190D01*
X62402858Y-69091190D02*
X62450477Y-69186428D01*
X62450477Y-69186428D02*
X62450477Y-69472142D01*
X62450477Y-69472142D02*
X62402858Y-69567380D01*
X62402858Y-69567380D02*
X62355239Y-69615000D01*
X62355239Y-69615000D02*
X62260001Y-69662619D01*
X62260001Y-69662619D02*
X62117144Y-69662619D01*
X62879049Y-69662619D02*
X62879049Y-68995952D01*
X62879049Y-69186428D02*
X62926668Y-69091190D01*
X62926668Y-69091190D02*
X62974287Y-69043571D01*
X62974287Y-69043571D02*
X63069525Y-68995952D01*
X63069525Y-68995952D02*
X63164763Y-68995952D01*
X48926666Y-70615952D02*
X48926666Y-71425476D01*
X48926666Y-71425476D02*
X48879047Y-71520714D01*
X48879047Y-71520714D02*
X48831428Y-71568333D01*
X48831428Y-71568333D02*
X48736190Y-71615952D01*
X48736190Y-71615952D02*
X48593333Y-71615952D01*
X48593333Y-71615952D02*
X48498095Y-71568333D01*
X48926666Y-71235000D02*
X48831428Y-71282619D01*
X48831428Y-71282619D02*
X48640952Y-71282619D01*
X48640952Y-71282619D02*
X48545714Y-71235000D01*
X48545714Y-71235000D02*
X48498095Y-71187380D01*
X48498095Y-71187380D02*
X48450476Y-71092142D01*
X48450476Y-71092142D02*
X48450476Y-70806428D01*
X48450476Y-70806428D02*
X48498095Y-70711190D01*
X48498095Y-70711190D02*
X48545714Y-70663571D01*
X48545714Y-70663571D02*
X48640952Y-70615952D01*
X48640952Y-70615952D02*
X48831428Y-70615952D01*
X48831428Y-70615952D02*
X48926666Y-70663571D01*
X49402857Y-71282619D02*
X49402857Y-70615952D01*
X49402857Y-70282619D02*
X49355238Y-70330238D01*
X49355238Y-70330238D02*
X49402857Y-70377857D01*
X49402857Y-70377857D02*
X49450476Y-70330238D01*
X49450476Y-70330238D02*
X49402857Y-70282619D01*
X49402857Y-70282619D02*
X49402857Y-70377857D01*
X49736190Y-70615952D02*
X50117142Y-70615952D01*
X49879047Y-70282619D02*
X49879047Y-71139761D01*
X49879047Y-71139761D02*
X49926666Y-71235000D01*
X49926666Y-71235000D02*
X50021904Y-71282619D01*
X50021904Y-71282619D02*
X50117142Y-71282619D01*
X50450476Y-71282619D02*
X50450476Y-70282619D01*
X50879047Y-71282619D02*
X50879047Y-70758809D01*
X50879047Y-70758809D02*
X50831428Y-70663571D01*
X50831428Y-70663571D02*
X50736190Y-70615952D01*
X50736190Y-70615952D02*
X50593333Y-70615952D01*
X50593333Y-70615952D02*
X50498095Y-70663571D01*
X50498095Y-70663571D02*
X50450476Y-70711190D01*
X51783809Y-70615952D02*
X51783809Y-71282619D01*
X51355238Y-70615952D02*
X51355238Y-71139761D01*
X51355238Y-71139761D02*
X51402857Y-71235000D01*
X51402857Y-71235000D02*
X51498095Y-71282619D01*
X51498095Y-71282619D02*
X51640952Y-71282619D01*
X51640952Y-71282619D02*
X51736190Y-71235000D01*
X51736190Y-71235000D02*
X51783809Y-71187380D01*
X52260000Y-71282619D02*
X52260000Y-70282619D01*
X52260000Y-70663571D02*
X52355238Y-70615952D01*
X52355238Y-70615952D02*
X52545714Y-70615952D01*
X52545714Y-70615952D02*
X52640952Y-70663571D01*
X52640952Y-70663571D02*
X52688571Y-70711190D01*
X52688571Y-70711190D02*
X52736190Y-70806428D01*
X52736190Y-70806428D02*
X52736190Y-71092142D01*
X52736190Y-71092142D02*
X52688571Y-71187380D01*
X52688571Y-71187380D02*
X52640952Y-71235000D01*
X52640952Y-71235000D02*
X52545714Y-71282619D01*
X52545714Y-71282619D02*
X52355238Y-71282619D01*
X52355238Y-71282619D02*
X52260000Y-71235000D01*
X53164762Y-71187380D02*
X53212381Y-71235000D01*
X53212381Y-71235000D02*
X53164762Y-71282619D01*
X53164762Y-71282619D02*
X53117143Y-71235000D01*
X53117143Y-71235000D02*
X53164762Y-71187380D01*
X53164762Y-71187380D02*
X53164762Y-71282619D01*
X54069523Y-71235000D02*
X53974285Y-71282619D01*
X53974285Y-71282619D02*
X53783809Y-71282619D01*
X53783809Y-71282619D02*
X53688571Y-71235000D01*
X53688571Y-71235000D02*
X53640952Y-71187380D01*
X53640952Y-71187380D02*
X53593333Y-71092142D01*
X53593333Y-71092142D02*
X53593333Y-70806428D01*
X53593333Y-70806428D02*
X53640952Y-70711190D01*
X53640952Y-70711190D02*
X53688571Y-70663571D01*
X53688571Y-70663571D02*
X53783809Y-70615952D01*
X53783809Y-70615952D02*
X53974285Y-70615952D01*
X53974285Y-70615952D02*
X54069523Y-70663571D01*
X54640952Y-71282619D02*
X54545714Y-71235000D01*
X54545714Y-71235000D02*
X54498095Y-71187380D01*
X54498095Y-71187380D02*
X54450476Y-71092142D01*
X54450476Y-71092142D02*
X54450476Y-70806428D01*
X54450476Y-70806428D02*
X54498095Y-70711190D01*
X54498095Y-70711190D02*
X54545714Y-70663571D01*
X54545714Y-70663571D02*
X54640952Y-70615952D01*
X54640952Y-70615952D02*
X54783809Y-70615952D01*
X54783809Y-70615952D02*
X54879047Y-70663571D01*
X54879047Y-70663571D02*
X54926666Y-70711190D01*
X54926666Y-70711190D02*
X54974285Y-70806428D01*
X54974285Y-70806428D02*
X54974285Y-71092142D01*
X54974285Y-71092142D02*
X54926666Y-71187380D01*
X54926666Y-71187380D02*
X54879047Y-71235000D01*
X54879047Y-71235000D02*
X54783809Y-71282619D01*
X54783809Y-71282619D02*
X54640952Y-71282619D01*
X55402857Y-71282619D02*
X55402857Y-70615952D01*
X55402857Y-70711190D02*
X55450476Y-70663571D01*
X55450476Y-70663571D02*
X55545714Y-70615952D01*
X55545714Y-70615952D02*
X55688571Y-70615952D01*
X55688571Y-70615952D02*
X55783809Y-70663571D01*
X55783809Y-70663571D02*
X55831428Y-70758809D01*
X55831428Y-70758809D02*
X55831428Y-71282619D01*
X55831428Y-70758809D02*
X55879047Y-70663571D01*
X55879047Y-70663571D02*
X55974285Y-70615952D01*
X55974285Y-70615952D02*
X56117142Y-70615952D01*
X56117142Y-70615952D02*
X56212381Y-70663571D01*
X56212381Y-70663571D02*
X56260000Y-70758809D01*
X56260000Y-70758809D02*
X56260000Y-71282619D01*
X57450475Y-70235000D02*
X56593333Y-71520714D01*
X57783809Y-71282619D02*
X57783809Y-70282619D01*
X58212380Y-71282619D02*
X58212380Y-70758809D01*
X58212380Y-70758809D02*
X58164761Y-70663571D01*
X58164761Y-70663571D02*
X58069523Y-70615952D01*
X58069523Y-70615952D02*
X57926666Y-70615952D01*
X57926666Y-70615952D02*
X57831428Y-70663571D01*
X57831428Y-70663571D02*
X57783809Y-70711190D01*
X58688571Y-71282619D02*
X58688571Y-70282619D01*
X59117142Y-71282619D02*
X59117142Y-70758809D01*
X59117142Y-70758809D02*
X59069523Y-70663571D01*
X59069523Y-70663571D02*
X58974285Y-70615952D01*
X58974285Y-70615952D02*
X58831428Y-70615952D01*
X58831428Y-70615952D02*
X58736190Y-70663571D01*
X58736190Y-70663571D02*
X58688571Y-70711190D01*
X60021904Y-71282619D02*
X60021904Y-70758809D01*
X60021904Y-70758809D02*
X59974285Y-70663571D01*
X59974285Y-70663571D02*
X59879047Y-70615952D01*
X59879047Y-70615952D02*
X59688571Y-70615952D01*
X59688571Y-70615952D02*
X59593333Y-70663571D01*
X60021904Y-71235000D02*
X59926666Y-71282619D01*
X59926666Y-71282619D02*
X59688571Y-71282619D01*
X59688571Y-71282619D02*
X59593333Y-71235000D01*
X59593333Y-71235000D02*
X59545714Y-71139761D01*
X59545714Y-71139761D02*
X59545714Y-71044523D01*
X59545714Y-71044523D02*
X59593333Y-70949285D01*
X59593333Y-70949285D02*
X59688571Y-70901666D01*
X59688571Y-70901666D02*
X59926666Y-70901666D01*
X59926666Y-70901666D02*
X60021904Y-70854047D01*
X60498095Y-71282619D02*
X60498095Y-70615952D01*
X60498095Y-70806428D02*
X60545714Y-70711190D01*
X60545714Y-70711190D02*
X60593333Y-70663571D01*
X60593333Y-70663571D02*
X60688571Y-70615952D01*
X60688571Y-70615952D02*
X60783809Y-70615952D01*
X60974286Y-70615952D02*
X61355238Y-70615952D01*
X61117143Y-70282619D02*
X61117143Y-71139761D01*
X61117143Y-71139761D02*
X61164762Y-71235000D01*
X61164762Y-71235000D02*
X61260000Y-71282619D01*
X61260000Y-71282619D02*
X61355238Y-71282619D01*
X62069524Y-71235000D02*
X61974286Y-71282619D01*
X61974286Y-71282619D02*
X61783810Y-71282619D01*
X61783810Y-71282619D02*
X61688572Y-71235000D01*
X61688572Y-71235000D02*
X61640953Y-71139761D01*
X61640953Y-71139761D02*
X61640953Y-70758809D01*
X61640953Y-70758809D02*
X61688572Y-70663571D01*
X61688572Y-70663571D02*
X61783810Y-70615952D01*
X61783810Y-70615952D02*
X61974286Y-70615952D01*
X61974286Y-70615952D02*
X62069524Y-70663571D01*
X62069524Y-70663571D02*
X62117143Y-70758809D01*
X62117143Y-70758809D02*
X62117143Y-70854047D01*
X62117143Y-70854047D02*
X61640953Y-70949285D01*
X63260000Y-70235000D02*
X62402858Y-71520714D01*
X63593334Y-70615952D02*
X63593334Y-71615952D01*
X63593334Y-70663571D02*
X63688572Y-70615952D01*
X63688572Y-70615952D02*
X63879048Y-70615952D01*
X63879048Y-70615952D02*
X63974286Y-70663571D01*
X63974286Y-70663571D02*
X64021905Y-70711190D01*
X64021905Y-70711190D02*
X64069524Y-70806428D01*
X64069524Y-70806428D02*
X64069524Y-71092142D01*
X64069524Y-71092142D02*
X64021905Y-71187380D01*
X64021905Y-71187380D02*
X63974286Y-71235000D01*
X63974286Y-71235000D02*
X63879048Y-71282619D01*
X63879048Y-71282619D02*
X63688572Y-71282619D01*
X63688572Y-71282619D02*
X63593334Y-71235000D01*
X64498096Y-71282619D02*
X64498096Y-70282619D01*
X64498096Y-70663571D02*
X64593334Y-70615952D01*
X64593334Y-70615952D02*
X64783810Y-70615952D01*
X64783810Y-70615952D02*
X64879048Y-70663571D01*
X64879048Y-70663571D02*
X64926667Y-70711190D01*
X64926667Y-70711190D02*
X64974286Y-70806428D01*
X64974286Y-70806428D02*
X64974286Y-71092142D01*
X64974286Y-71092142D02*
X64926667Y-71187380D01*
X64926667Y-71187380D02*
X64879048Y-71235000D01*
X64879048Y-71235000D02*
X64783810Y-71282619D01*
X64783810Y-71282619D02*
X64593334Y-71282619D01*
X64593334Y-71282619D02*
X64498096Y-71235000D01*
X65307620Y-71282619D02*
X65831429Y-70615952D01*
X65307620Y-70615952D02*
X65831429Y-71282619D01*
X65974287Y-71377857D02*
X66736191Y-71377857D01*
X66974287Y-71282619D02*
X66974287Y-70615952D01*
X66974287Y-70806428D02*
X67021906Y-70711190D01*
X67021906Y-70711190D02*
X67069525Y-70663571D01*
X67069525Y-70663571D02*
X67164763Y-70615952D01*
X67164763Y-70615952D02*
X67260001Y-70615952D01*
X67593335Y-71282619D02*
X67593335Y-70615952D01*
X67593335Y-70282619D02*
X67545716Y-70330238D01*
X67545716Y-70330238D02*
X67593335Y-70377857D01*
X67593335Y-70377857D02*
X67640954Y-70330238D01*
X67640954Y-70330238D02*
X67593335Y-70282619D01*
X67593335Y-70282619D02*
X67593335Y-70377857D01*
X68069525Y-70615952D02*
X68069525Y-71282619D01*
X68069525Y-70711190D02*
X68117144Y-70663571D01*
X68117144Y-70663571D02*
X68212382Y-70615952D01*
X68212382Y-70615952D02*
X68355239Y-70615952D01*
X68355239Y-70615952D02*
X68450477Y-70663571D01*
X68450477Y-70663571D02*
X68498096Y-70758809D01*
X68498096Y-70758809D02*
X68498096Y-71282619D01*
X69402858Y-70615952D02*
X69402858Y-71425476D01*
X69402858Y-71425476D02*
X69355239Y-71520714D01*
X69355239Y-71520714D02*
X69307620Y-71568333D01*
X69307620Y-71568333D02*
X69212382Y-71615952D01*
X69212382Y-71615952D02*
X69069525Y-71615952D01*
X69069525Y-71615952D02*
X68974287Y-71568333D01*
X69402858Y-71235000D02*
X69307620Y-71282619D01*
X69307620Y-71282619D02*
X69117144Y-71282619D01*
X69117144Y-71282619D02*
X69021906Y-71235000D01*
X69021906Y-71235000D02*
X68974287Y-71187380D01*
X68974287Y-71187380D02*
X68926668Y-71092142D01*
X68926668Y-71092142D02*
X68926668Y-70806428D01*
X68926668Y-70806428D02*
X68974287Y-70711190D01*
X68974287Y-70711190D02*
X69021906Y-70663571D01*
X69021906Y-70663571D02*
X69117144Y-70615952D01*
X69117144Y-70615952D02*
X69307620Y-70615952D01*
X69307620Y-70615952D02*
X69402858Y-70663571D01*
X69640954Y-71377857D02*
X70402858Y-71377857D01*
X71069525Y-70615952D02*
X71069525Y-71425476D01*
X71069525Y-71425476D02*
X71021906Y-71520714D01*
X71021906Y-71520714D02*
X70974287Y-71568333D01*
X70974287Y-71568333D02*
X70879049Y-71615952D01*
X70879049Y-71615952D02*
X70736192Y-71615952D01*
X70736192Y-71615952D02*
X70640954Y-71568333D01*
X71069525Y-71235000D02*
X70974287Y-71282619D01*
X70974287Y-71282619D02*
X70783811Y-71282619D01*
X70783811Y-71282619D02*
X70688573Y-71235000D01*
X70688573Y-71235000D02*
X70640954Y-71187380D01*
X70640954Y-71187380D02*
X70593335Y-71092142D01*
X70593335Y-71092142D02*
X70593335Y-70806428D01*
X70593335Y-70806428D02*
X70640954Y-70711190D01*
X70640954Y-70711190D02*
X70688573Y-70663571D01*
X70688573Y-70663571D02*
X70783811Y-70615952D01*
X70783811Y-70615952D02*
X70974287Y-70615952D01*
X70974287Y-70615952D02*
X71069525Y-70663571D01*
X71926668Y-71235000D02*
X71831430Y-71282619D01*
X71831430Y-71282619D02*
X71640954Y-71282619D01*
X71640954Y-71282619D02*
X71545716Y-71235000D01*
X71545716Y-71235000D02*
X71498097Y-71139761D01*
X71498097Y-71139761D02*
X71498097Y-70758809D01*
X71498097Y-70758809D02*
X71545716Y-70663571D01*
X71545716Y-70663571D02*
X71640954Y-70615952D01*
X71640954Y-70615952D02*
X71831430Y-70615952D01*
X71831430Y-70615952D02*
X71926668Y-70663571D01*
X71926668Y-70663571D02*
X71974287Y-70758809D01*
X71974287Y-70758809D02*
X71974287Y-70854047D01*
X71974287Y-70854047D02*
X71498097Y-70949285D01*
X72402859Y-70615952D02*
X72402859Y-71282619D01*
X72402859Y-70711190D02*
X72450478Y-70663571D01*
X72450478Y-70663571D02*
X72545716Y-70615952D01*
X72545716Y-70615952D02*
X72688573Y-70615952D01*
X72688573Y-70615952D02*
X72783811Y-70663571D01*
X72783811Y-70663571D02*
X72831430Y-70758809D01*
X72831430Y-70758809D02*
X72831430Y-71282619D01*
X48498095Y-72902619D02*
X48498095Y-71902619D01*
X48926666Y-72855000D02*
X49021904Y-72902619D01*
X49021904Y-72902619D02*
X49212380Y-72902619D01*
X49212380Y-72902619D02*
X49307618Y-72855000D01*
X49307618Y-72855000D02*
X49355237Y-72759761D01*
X49355237Y-72759761D02*
X49355237Y-72712142D01*
X49355237Y-72712142D02*
X49307618Y-72616904D01*
X49307618Y-72616904D02*
X49212380Y-72569285D01*
X49212380Y-72569285D02*
X49069523Y-72569285D01*
X49069523Y-72569285D02*
X48974285Y-72521666D01*
X48974285Y-72521666D02*
X48926666Y-72426428D01*
X48926666Y-72426428D02*
X48926666Y-72378809D01*
X48926666Y-72378809D02*
X48974285Y-72283571D01*
X48974285Y-72283571D02*
X49069523Y-72235952D01*
X49069523Y-72235952D02*
X49212380Y-72235952D01*
X49212380Y-72235952D02*
X49307618Y-72283571D01*
X49736190Y-72855000D02*
X49831428Y-72902619D01*
X49831428Y-72902619D02*
X50021904Y-72902619D01*
X50021904Y-72902619D02*
X50117142Y-72855000D01*
X50117142Y-72855000D02*
X50164761Y-72759761D01*
X50164761Y-72759761D02*
X50164761Y-72712142D01*
X50164761Y-72712142D02*
X50117142Y-72616904D01*
X50117142Y-72616904D02*
X50021904Y-72569285D01*
X50021904Y-72569285D02*
X49879047Y-72569285D01*
X49879047Y-72569285D02*
X49783809Y-72521666D01*
X49783809Y-72521666D02*
X49736190Y-72426428D01*
X49736190Y-72426428D02*
X49736190Y-72378809D01*
X49736190Y-72378809D02*
X49783809Y-72283571D01*
X49783809Y-72283571D02*
X49879047Y-72235952D01*
X49879047Y-72235952D02*
X50021904Y-72235952D01*
X50021904Y-72235952D02*
X50117142Y-72283571D01*
X51021904Y-72235952D02*
X51021904Y-72902619D01*
X50593333Y-72235952D02*
X50593333Y-72759761D01*
X50593333Y-72759761D02*
X50640952Y-72855000D01*
X50640952Y-72855000D02*
X50736190Y-72902619D01*
X50736190Y-72902619D02*
X50879047Y-72902619D01*
X50879047Y-72902619D02*
X50974285Y-72855000D01*
X50974285Y-72855000D02*
X51021904Y-72807380D01*
X51879047Y-72855000D02*
X51783809Y-72902619D01*
X51783809Y-72902619D02*
X51593333Y-72902619D01*
X51593333Y-72902619D02*
X51498095Y-72855000D01*
X51498095Y-72855000D02*
X51450476Y-72759761D01*
X51450476Y-72759761D02*
X51450476Y-72378809D01*
X51450476Y-72378809D02*
X51498095Y-72283571D01*
X51498095Y-72283571D02*
X51593333Y-72235952D01*
X51593333Y-72235952D02*
X51783809Y-72235952D01*
X51783809Y-72235952D02*
X51879047Y-72283571D01*
X51879047Y-72283571D02*
X51926666Y-72378809D01*
X51926666Y-72378809D02*
X51926666Y-72474047D01*
X51926666Y-72474047D02*
X51450476Y-72569285D01*
X53640952Y-72902619D02*
X53069524Y-72902619D01*
X53355238Y-72902619D02*
X53355238Y-71902619D01*
X53355238Y-71902619D02*
X53260000Y-72045476D01*
X53260000Y-72045476D02*
X53164762Y-72140714D01*
X53164762Y-72140714D02*
X53069524Y-72188333D01*
X54831429Y-72521666D02*
X55593334Y-72521666D01*
X56783810Y-71997857D02*
X56831429Y-71950238D01*
X56831429Y-71950238D02*
X56926667Y-71902619D01*
X56926667Y-71902619D02*
X57164762Y-71902619D01*
X57164762Y-71902619D02*
X57260000Y-71950238D01*
X57260000Y-71950238D02*
X57307619Y-71997857D01*
X57307619Y-71997857D02*
X57355238Y-72093095D01*
X57355238Y-72093095D02*
X57355238Y-72188333D01*
X57355238Y-72188333D02*
X57307619Y-72331190D01*
X57307619Y-72331190D02*
X56736191Y-72902619D01*
X56736191Y-72902619D02*
X57355238Y-72902619D01*
X57974286Y-71902619D02*
X58069524Y-71902619D01*
X58069524Y-71902619D02*
X58164762Y-71950238D01*
X58164762Y-71950238D02*
X58212381Y-71997857D01*
X58212381Y-71997857D02*
X58260000Y-72093095D01*
X58260000Y-72093095D02*
X58307619Y-72283571D01*
X58307619Y-72283571D02*
X58307619Y-72521666D01*
X58307619Y-72521666D02*
X58260000Y-72712142D01*
X58260000Y-72712142D02*
X58212381Y-72807380D01*
X58212381Y-72807380D02*
X58164762Y-72855000D01*
X58164762Y-72855000D02*
X58069524Y-72902619D01*
X58069524Y-72902619D02*
X57974286Y-72902619D01*
X57974286Y-72902619D02*
X57879048Y-72855000D01*
X57879048Y-72855000D02*
X57831429Y-72807380D01*
X57831429Y-72807380D02*
X57783810Y-72712142D01*
X57783810Y-72712142D02*
X57736191Y-72521666D01*
X57736191Y-72521666D02*
X57736191Y-72283571D01*
X57736191Y-72283571D02*
X57783810Y-72093095D01*
X57783810Y-72093095D02*
X57831429Y-71997857D01*
X57831429Y-71997857D02*
X57879048Y-71950238D01*
X57879048Y-71950238D02*
X57974286Y-71902619D01*
X58688572Y-71997857D02*
X58736191Y-71950238D01*
X58736191Y-71950238D02*
X58831429Y-71902619D01*
X58831429Y-71902619D02*
X59069524Y-71902619D01*
X59069524Y-71902619D02*
X59164762Y-71950238D01*
X59164762Y-71950238D02*
X59212381Y-71997857D01*
X59212381Y-71997857D02*
X59260000Y-72093095D01*
X59260000Y-72093095D02*
X59260000Y-72188333D01*
X59260000Y-72188333D02*
X59212381Y-72331190D01*
X59212381Y-72331190D02*
X58640953Y-72902619D01*
X58640953Y-72902619D02*
X59260000Y-72902619D01*
X59593334Y-71902619D02*
X60212381Y-71902619D01*
X60212381Y-71902619D02*
X59879048Y-72283571D01*
X59879048Y-72283571D02*
X60021905Y-72283571D01*
X60021905Y-72283571D02*
X60117143Y-72331190D01*
X60117143Y-72331190D02*
X60164762Y-72378809D01*
X60164762Y-72378809D02*
X60212381Y-72474047D01*
X60212381Y-72474047D02*
X60212381Y-72712142D01*
X60212381Y-72712142D02*
X60164762Y-72807380D01*
X60164762Y-72807380D02*
X60117143Y-72855000D01*
X60117143Y-72855000D02*
X60021905Y-72902619D01*
X60021905Y-72902619D02*
X59736191Y-72902619D01*
X59736191Y-72902619D02*
X59640953Y-72855000D01*
X59640953Y-72855000D02*
X59593334Y-72807380D01*
X60640953Y-72521666D02*
X61402858Y-72521666D01*
X62069524Y-71902619D02*
X62164762Y-71902619D01*
X62164762Y-71902619D02*
X62260000Y-71950238D01*
X62260000Y-71950238D02*
X62307619Y-71997857D01*
X62307619Y-71997857D02*
X62355238Y-72093095D01*
X62355238Y-72093095D02*
X62402857Y-72283571D01*
X62402857Y-72283571D02*
X62402857Y-72521666D01*
X62402857Y-72521666D02*
X62355238Y-72712142D01*
X62355238Y-72712142D02*
X62307619Y-72807380D01*
X62307619Y-72807380D02*
X62260000Y-72855000D01*
X62260000Y-72855000D02*
X62164762Y-72902619D01*
X62164762Y-72902619D02*
X62069524Y-72902619D01*
X62069524Y-72902619D02*
X61974286Y-72855000D01*
X61974286Y-72855000D02*
X61926667Y-72807380D01*
X61926667Y-72807380D02*
X61879048Y-72712142D01*
X61879048Y-72712142D02*
X61831429Y-72521666D01*
X61831429Y-72521666D02*
X61831429Y-72283571D01*
X61831429Y-72283571D02*
X61879048Y-72093095D01*
X61879048Y-72093095D02*
X61926667Y-71997857D01*
X61926667Y-71997857D02*
X61974286Y-71950238D01*
X61974286Y-71950238D02*
X62069524Y-71902619D01*
X63260000Y-71902619D02*
X63069524Y-71902619D01*
X63069524Y-71902619D02*
X62974286Y-71950238D01*
X62974286Y-71950238D02*
X62926667Y-71997857D01*
X62926667Y-71997857D02*
X62831429Y-72140714D01*
X62831429Y-72140714D02*
X62783810Y-72331190D01*
X62783810Y-72331190D02*
X62783810Y-72712142D01*
X62783810Y-72712142D02*
X62831429Y-72807380D01*
X62831429Y-72807380D02*
X62879048Y-72855000D01*
X62879048Y-72855000D02*
X62974286Y-72902619D01*
X62974286Y-72902619D02*
X63164762Y-72902619D01*
X63164762Y-72902619D02*
X63260000Y-72855000D01*
X63260000Y-72855000D02*
X63307619Y-72807380D01*
X63307619Y-72807380D02*
X63355238Y-72712142D01*
X63355238Y-72712142D02*
X63355238Y-72474047D01*
X63355238Y-72474047D02*
X63307619Y-72378809D01*
X63307619Y-72378809D02*
X63260000Y-72331190D01*
X63260000Y-72331190D02*
X63164762Y-72283571D01*
X63164762Y-72283571D02*
X62974286Y-72283571D01*
X62974286Y-72283571D02*
X62879048Y-72331190D01*
X62879048Y-72331190D02*
X62831429Y-72378809D01*
X62831429Y-72378809D02*
X62783810Y-72474047D01*
X63783810Y-72521666D02*
X64545715Y-72521666D01*
X65212381Y-71902619D02*
X65307619Y-71902619D01*
X65307619Y-71902619D02*
X65402857Y-71950238D01*
X65402857Y-71950238D02*
X65450476Y-71997857D01*
X65450476Y-71997857D02*
X65498095Y-72093095D01*
X65498095Y-72093095D02*
X65545714Y-72283571D01*
X65545714Y-72283571D02*
X65545714Y-72521666D01*
X65545714Y-72521666D02*
X65498095Y-72712142D01*
X65498095Y-72712142D02*
X65450476Y-72807380D01*
X65450476Y-72807380D02*
X65402857Y-72855000D01*
X65402857Y-72855000D02*
X65307619Y-72902619D01*
X65307619Y-72902619D02*
X65212381Y-72902619D01*
X65212381Y-72902619D02*
X65117143Y-72855000D01*
X65117143Y-72855000D02*
X65069524Y-72807380D01*
X65069524Y-72807380D02*
X65021905Y-72712142D01*
X65021905Y-72712142D02*
X64974286Y-72521666D01*
X64974286Y-72521666D02*
X64974286Y-72283571D01*
X64974286Y-72283571D02*
X65021905Y-72093095D01*
X65021905Y-72093095D02*
X65069524Y-71997857D01*
X65069524Y-71997857D02*
X65117143Y-71950238D01*
X65117143Y-71950238D02*
X65212381Y-71902619D01*
X65879048Y-71902619D02*
X66498095Y-71902619D01*
X66498095Y-71902619D02*
X66164762Y-72283571D01*
X66164762Y-72283571D02*
X66307619Y-72283571D01*
X66307619Y-72283571D02*
X66402857Y-72331190D01*
X66402857Y-72331190D02*
X66450476Y-72378809D01*
X66450476Y-72378809D02*
X66498095Y-72474047D01*
X66498095Y-72474047D02*
X66498095Y-72712142D01*
X66498095Y-72712142D02*
X66450476Y-72807380D01*
X66450476Y-72807380D02*
X66402857Y-72855000D01*
X66402857Y-72855000D02*
X66307619Y-72902619D01*
X66307619Y-72902619D02*
X66021905Y-72902619D01*
X66021905Y-72902619D02*
X65926667Y-72855000D01*
X65926667Y-72855000D02*
X65879048Y-72807380D01*
X56689523Y-36992619D02*
X56356190Y-36516428D01*
X56118095Y-36992619D02*
X56118095Y-35992619D01*
X56118095Y-35992619D02*
X56499047Y-35992619D01*
X56499047Y-35992619D02*
X56594285Y-36040238D01*
X56594285Y-36040238D02*
X56641904Y-36087857D01*
X56641904Y-36087857D02*
X56689523Y-36183095D01*
X56689523Y-36183095D02*
X56689523Y-36325952D01*
X56689523Y-36325952D02*
X56641904Y-36421190D01*
X56641904Y-36421190D02*
X56594285Y-36468809D01*
X56594285Y-36468809D02*
X56499047Y-36516428D01*
X56499047Y-36516428D02*
X56118095Y-36516428D01*
X57118095Y-36992619D02*
X57118095Y-35992619D01*
X57594285Y-36992619D02*
X57594285Y-35992619D01*
X57594285Y-35992619D02*
X58165713Y-36992619D01*
X58165713Y-36992619D02*
X58165713Y-35992619D01*
X59165713Y-36040238D02*
X59070475Y-35992619D01*
X59070475Y-35992619D02*
X58927618Y-35992619D01*
X58927618Y-35992619D02*
X58784761Y-36040238D01*
X58784761Y-36040238D02*
X58689523Y-36135476D01*
X58689523Y-36135476D02*
X58641904Y-36230714D01*
X58641904Y-36230714D02*
X58594285Y-36421190D01*
X58594285Y-36421190D02*
X58594285Y-36564047D01*
X58594285Y-36564047D02*
X58641904Y-36754523D01*
X58641904Y-36754523D02*
X58689523Y-36849761D01*
X58689523Y-36849761D02*
X58784761Y-36945000D01*
X58784761Y-36945000D02*
X58927618Y-36992619D01*
X58927618Y-36992619D02*
X59022856Y-36992619D01*
X59022856Y-36992619D02*
X59165713Y-36945000D01*
X59165713Y-36945000D02*
X59213332Y-36897380D01*
X59213332Y-36897380D02*
X59213332Y-36564047D01*
X59213332Y-36564047D02*
X59022856Y-36564047D01*
X56308571Y-37612619D02*
X56499047Y-37612619D01*
X56499047Y-37612619D02*
X56594285Y-37660238D01*
X56594285Y-37660238D02*
X56689523Y-37755476D01*
X56689523Y-37755476D02*
X56737142Y-37945952D01*
X56737142Y-37945952D02*
X56737142Y-38279285D01*
X56737142Y-38279285D02*
X56689523Y-38469761D01*
X56689523Y-38469761D02*
X56594285Y-38565000D01*
X56594285Y-38565000D02*
X56499047Y-38612619D01*
X56499047Y-38612619D02*
X56308571Y-38612619D01*
X56308571Y-38612619D02*
X56213333Y-38565000D01*
X56213333Y-38565000D02*
X56118095Y-38469761D01*
X56118095Y-38469761D02*
X56070476Y-38279285D01*
X56070476Y-38279285D02*
X56070476Y-37945952D01*
X56070476Y-37945952D02*
X56118095Y-37755476D01*
X56118095Y-37755476D02*
X56213333Y-37660238D01*
X56213333Y-37660238D02*
X56308571Y-37612619D01*
X57165714Y-37612619D02*
X57165714Y-38422142D01*
X57165714Y-38422142D02*
X57213333Y-38517380D01*
X57213333Y-38517380D02*
X57260952Y-38565000D01*
X57260952Y-38565000D02*
X57356190Y-38612619D01*
X57356190Y-38612619D02*
X57546666Y-38612619D01*
X57546666Y-38612619D02*
X57641904Y-38565000D01*
X57641904Y-38565000D02*
X57689523Y-38517380D01*
X57689523Y-38517380D02*
X57737142Y-38422142D01*
X57737142Y-38422142D02*
X57737142Y-37612619D01*
X58070476Y-37612619D02*
X58641904Y-37612619D01*
X58356190Y-38612619D02*
X58356190Y-37612619D01*
X59499047Y-38612619D02*
X58927619Y-38612619D01*
X59213333Y-38612619D02*
X59213333Y-37612619D01*
X59213333Y-37612619D02*
X59118095Y-37755476D01*
X59118095Y-37755476D02*
X59022857Y-37850714D01*
X59022857Y-37850714D02*
X58927619Y-37898333D01*
X59245428Y-121273809D02*
X58912095Y-121273809D01*
X58912095Y-121797619D02*
X58912095Y-120797619D01*
X58912095Y-120797619D02*
X59388285Y-120797619D01*
X60293047Y-121797619D02*
X59721619Y-121797619D01*
X60007333Y-121797619D02*
X60007333Y-120797619D01*
X60007333Y-120797619D02*
X59912095Y-120940476D01*
X59912095Y-120940476D02*
X59816857Y-121035714D01*
X59816857Y-121035714D02*
X59721619Y-121083333D01*
X61816857Y-121273809D02*
X61483524Y-121273809D01*
X61483524Y-121797619D02*
X61483524Y-120797619D01*
X61483524Y-120797619D02*
X61959714Y-120797619D01*
X62531143Y-120797619D02*
X62626381Y-120797619D01*
X62626381Y-120797619D02*
X62721619Y-120845238D01*
X62721619Y-120845238D02*
X62769238Y-120892857D01*
X62769238Y-120892857D02*
X62816857Y-120988095D01*
X62816857Y-120988095D02*
X62864476Y-121178571D01*
X62864476Y-121178571D02*
X62864476Y-121416666D01*
X62864476Y-121416666D02*
X62816857Y-121607142D01*
X62816857Y-121607142D02*
X62769238Y-121702380D01*
X62769238Y-121702380D02*
X62721619Y-121750000D01*
X62721619Y-121750000D02*
X62626381Y-121797619D01*
X62626381Y-121797619D02*
X62531143Y-121797619D01*
X62531143Y-121797619D02*
X62435905Y-121750000D01*
X62435905Y-121750000D02*
X62388286Y-121702380D01*
X62388286Y-121702380D02*
X62340667Y-121607142D01*
X62340667Y-121607142D02*
X62293048Y-121416666D01*
X62293048Y-121416666D02*
X62293048Y-121178571D01*
X62293048Y-121178571D02*
X62340667Y-120988095D01*
X62340667Y-120988095D02*
X62388286Y-120892857D01*
X62388286Y-120892857D02*
X62435905Y-120845238D01*
X62435905Y-120845238D02*
X62531143Y-120797619D01*
X61769523Y-36992619D02*
X61436190Y-36516428D01*
X61198095Y-36992619D02*
X61198095Y-35992619D01*
X61198095Y-35992619D02*
X61579047Y-35992619D01*
X61579047Y-35992619D02*
X61674285Y-36040238D01*
X61674285Y-36040238D02*
X61721904Y-36087857D01*
X61721904Y-36087857D02*
X61769523Y-36183095D01*
X61769523Y-36183095D02*
X61769523Y-36325952D01*
X61769523Y-36325952D02*
X61721904Y-36421190D01*
X61721904Y-36421190D02*
X61674285Y-36468809D01*
X61674285Y-36468809D02*
X61579047Y-36516428D01*
X61579047Y-36516428D02*
X61198095Y-36516428D01*
X62198095Y-36992619D02*
X62198095Y-35992619D01*
X62674285Y-36992619D02*
X62674285Y-35992619D01*
X62674285Y-35992619D02*
X63245713Y-36992619D01*
X63245713Y-36992619D02*
X63245713Y-35992619D01*
X64245713Y-36040238D02*
X64150475Y-35992619D01*
X64150475Y-35992619D02*
X64007618Y-35992619D01*
X64007618Y-35992619D02*
X63864761Y-36040238D01*
X63864761Y-36040238D02*
X63769523Y-36135476D01*
X63769523Y-36135476D02*
X63721904Y-36230714D01*
X63721904Y-36230714D02*
X63674285Y-36421190D01*
X63674285Y-36421190D02*
X63674285Y-36564047D01*
X63674285Y-36564047D02*
X63721904Y-36754523D01*
X63721904Y-36754523D02*
X63769523Y-36849761D01*
X63769523Y-36849761D02*
X63864761Y-36945000D01*
X63864761Y-36945000D02*
X64007618Y-36992619D01*
X64007618Y-36992619D02*
X64102856Y-36992619D01*
X64102856Y-36992619D02*
X64245713Y-36945000D01*
X64245713Y-36945000D02*
X64293332Y-36897380D01*
X64293332Y-36897380D02*
X64293332Y-36564047D01*
X64293332Y-36564047D02*
X64102856Y-36564047D01*
X61388571Y-37612619D02*
X61579047Y-37612619D01*
X61579047Y-37612619D02*
X61674285Y-37660238D01*
X61674285Y-37660238D02*
X61769523Y-37755476D01*
X61769523Y-37755476D02*
X61817142Y-37945952D01*
X61817142Y-37945952D02*
X61817142Y-38279285D01*
X61817142Y-38279285D02*
X61769523Y-38469761D01*
X61769523Y-38469761D02*
X61674285Y-38565000D01*
X61674285Y-38565000D02*
X61579047Y-38612619D01*
X61579047Y-38612619D02*
X61388571Y-38612619D01*
X61388571Y-38612619D02*
X61293333Y-38565000D01*
X61293333Y-38565000D02*
X61198095Y-38469761D01*
X61198095Y-38469761D02*
X61150476Y-38279285D01*
X61150476Y-38279285D02*
X61150476Y-37945952D01*
X61150476Y-37945952D02*
X61198095Y-37755476D01*
X61198095Y-37755476D02*
X61293333Y-37660238D01*
X61293333Y-37660238D02*
X61388571Y-37612619D01*
X62245714Y-37612619D02*
X62245714Y-38422142D01*
X62245714Y-38422142D02*
X62293333Y-38517380D01*
X62293333Y-38517380D02*
X62340952Y-38565000D01*
X62340952Y-38565000D02*
X62436190Y-38612619D01*
X62436190Y-38612619D02*
X62626666Y-38612619D01*
X62626666Y-38612619D02*
X62721904Y-38565000D01*
X62721904Y-38565000D02*
X62769523Y-38517380D01*
X62769523Y-38517380D02*
X62817142Y-38422142D01*
X62817142Y-38422142D02*
X62817142Y-37612619D01*
X63150476Y-37612619D02*
X63721904Y-37612619D01*
X63436190Y-38612619D02*
X63436190Y-37612619D01*
X64007619Y-37707857D02*
X64055238Y-37660238D01*
X64055238Y-37660238D02*
X64150476Y-37612619D01*
X64150476Y-37612619D02*
X64388571Y-37612619D01*
X64388571Y-37612619D02*
X64483809Y-37660238D01*
X64483809Y-37660238D02*
X64531428Y-37707857D01*
X64531428Y-37707857D02*
X64579047Y-37803095D01*
X64579047Y-37803095D02*
X64579047Y-37898333D01*
X64579047Y-37898333D02*
X64531428Y-38041190D01*
X64531428Y-38041190D02*
X63960000Y-38612619D01*
X63960000Y-38612619D02*
X64579047Y-38612619D01*
X46481904Y-37025238D02*
X46386666Y-36977619D01*
X46386666Y-36977619D02*
X46243809Y-36977619D01*
X46243809Y-36977619D02*
X46100952Y-37025238D01*
X46100952Y-37025238D02*
X46005714Y-37120476D01*
X46005714Y-37120476D02*
X45958095Y-37215714D01*
X45958095Y-37215714D02*
X45910476Y-37406190D01*
X45910476Y-37406190D02*
X45910476Y-37549047D01*
X45910476Y-37549047D02*
X45958095Y-37739523D01*
X45958095Y-37739523D02*
X46005714Y-37834761D01*
X46005714Y-37834761D02*
X46100952Y-37930000D01*
X46100952Y-37930000D02*
X46243809Y-37977619D01*
X46243809Y-37977619D02*
X46339047Y-37977619D01*
X46339047Y-37977619D02*
X46481904Y-37930000D01*
X46481904Y-37930000D02*
X46529523Y-37882380D01*
X46529523Y-37882380D02*
X46529523Y-37549047D01*
X46529523Y-37549047D02*
X46339047Y-37549047D01*
X47529523Y-37977619D02*
X47196190Y-37501428D01*
X46958095Y-37977619D02*
X46958095Y-36977619D01*
X46958095Y-36977619D02*
X47339047Y-36977619D01*
X47339047Y-36977619D02*
X47434285Y-37025238D01*
X47434285Y-37025238D02*
X47481904Y-37072857D01*
X47481904Y-37072857D02*
X47529523Y-37168095D01*
X47529523Y-37168095D02*
X47529523Y-37310952D01*
X47529523Y-37310952D02*
X47481904Y-37406190D01*
X47481904Y-37406190D02*
X47434285Y-37453809D01*
X47434285Y-37453809D02*
X47339047Y-37501428D01*
X47339047Y-37501428D02*
X46958095Y-37501428D01*
X47958095Y-37977619D02*
X47958095Y-36977619D01*
X47958095Y-36977619D02*
X48196190Y-36977619D01*
X48196190Y-36977619D02*
X48339047Y-37025238D01*
X48339047Y-37025238D02*
X48434285Y-37120476D01*
X48434285Y-37120476D02*
X48481904Y-37215714D01*
X48481904Y-37215714D02*
X48529523Y-37406190D01*
X48529523Y-37406190D02*
X48529523Y-37549047D01*
X48529523Y-37549047D02*
X48481904Y-37739523D01*
X48481904Y-37739523D02*
X48434285Y-37834761D01*
X48434285Y-37834761D02*
X48339047Y-37930000D01*
X48339047Y-37930000D02*
X48196190Y-37977619D01*
X48196190Y-37977619D02*
X47958095Y-37977619D01*
X34755000Y-108394523D02*
X34802619Y-108251666D01*
X34802619Y-108251666D02*
X34802619Y-108013571D01*
X34802619Y-108013571D02*
X34755000Y-107918333D01*
X34755000Y-107918333D02*
X34707380Y-107870714D01*
X34707380Y-107870714D02*
X34612142Y-107823095D01*
X34612142Y-107823095D02*
X34516904Y-107823095D01*
X34516904Y-107823095D02*
X34421666Y-107870714D01*
X34421666Y-107870714D02*
X34374047Y-107918333D01*
X34374047Y-107918333D02*
X34326428Y-108013571D01*
X34326428Y-108013571D02*
X34278809Y-108204047D01*
X34278809Y-108204047D02*
X34231190Y-108299285D01*
X34231190Y-108299285D02*
X34183571Y-108346904D01*
X34183571Y-108346904D02*
X34088333Y-108394523D01*
X34088333Y-108394523D02*
X33993095Y-108394523D01*
X33993095Y-108394523D02*
X33897857Y-108346904D01*
X33897857Y-108346904D02*
X33850238Y-108299285D01*
X33850238Y-108299285D02*
X33802619Y-108204047D01*
X33802619Y-108204047D02*
X33802619Y-107965952D01*
X33802619Y-107965952D02*
X33850238Y-107823095D01*
X34802619Y-107394523D02*
X33802619Y-107394523D01*
X34802619Y-106918333D02*
X33802619Y-106918333D01*
X33802619Y-106918333D02*
X34802619Y-106346905D01*
X34802619Y-106346905D02*
X33802619Y-106346905D01*
X33802619Y-105680238D02*
X33802619Y-105585000D01*
X33802619Y-105585000D02*
X33850238Y-105489762D01*
X33850238Y-105489762D02*
X33897857Y-105442143D01*
X33897857Y-105442143D02*
X33993095Y-105394524D01*
X33993095Y-105394524D02*
X34183571Y-105346905D01*
X34183571Y-105346905D02*
X34421666Y-105346905D01*
X34421666Y-105346905D02*
X34612142Y-105394524D01*
X34612142Y-105394524D02*
X34707380Y-105442143D01*
X34707380Y-105442143D02*
X34755000Y-105489762D01*
X34755000Y-105489762D02*
X34802619Y-105585000D01*
X34802619Y-105585000D02*
X34802619Y-105680238D01*
X34802619Y-105680238D02*
X34755000Y-105775476D01*
X34755000Y-105775476D02*
X34707380Y-105823095D01*
X34707380Y-105823095D02*
X34612142Y-105870714D01*
X34612142Y-105870714D02*
X34421666Y-105918333D01*
X34421666Y-105918333D02*
X34183571Y-105918333D01*
X34183571Y-105918333D02*
X33993095Y-105870714D01*
X33993095Y-105870714D02*
X33897857Y-105823095D01*
X33897857Y-105823095D02*
X33850238Y-105775476D01*
X33850238Y-105775476D02*
X33802619Y-105680238D01*
X33802619Y-104489762D02*
X33802619Y-104680238D01*
X33802619Y-104680238D02*
X33850238Y-104775476D01*
X33850238Y-104775476D02*
X33897857Y-104823095D01*
X33897857Y-104823095D02*
X34040714Y-104918333D01*
X34040714Y-104918333D02*
X34231190Y-104965952D01*
X34231190Y-104965952D02*
X34612142Y-104965952D01*
X34612142Y-104965952D02*
X34707380Y-104918333D01*
X34707380Y-104918333D02*
X34755000Y-104870714D01*
X34755000Y-104870714D02*
X34802619Y-104775476D01*
X34802619Y-104775476D02*
X34802619Y-104585000D01*
X34802619Y-104585000D02*
X34755000Y-104489762D01*
X34755000Y-104489762D02*
X34707380Y-104442143D01*
X34707380Y-104442143D02*
X34612142Y-104394524D01*
X34612142Y-104394524D02*
X34374047Y-104394524D01*
X34374047Y-104394524D02*
X34278809Y-104442143D01*
X34278809Y-104442143D02*
X34231190Y-104489762D01*
X34231190Y-104489762D02*
X34183571Y-104585000D01*
X34183571Y-104585000D02*
X34183571Y-104775476D01*
X34183571Y-104775476D02*
X34231190Y-104870714D01*
X34231190Y-104870714D02*
X34278809Y-104918333D01*
X34278809Y-104918333D02*
X34374047Y-104965952D01*
X33802619Y-104108809D02*
X34802619Y-103775476D01*
X34802619Y-103775476D02*
X33802619Y-103442143D01*
X33897857Y-103156428D02*
X33850238Y-103108809D01*
X33850238Y-103108809D02*
X33802619Y-103013571D01*
X33802619Y-103013571D02*
X33802619Y-102775476D01*
X33802619Y-102775476D02*
X33850238Y-102680238D01*
X33850238Y-102680238D02*
X33897857Y-102632619D01*
X33897857Y-102632619D02*
X33993095Y-102585000D01*
X33993095Y-102585000D02*
X34088333Y-102585000D01*
X34088333Y-102585000D02*
X34231190Y-102632619D01*
X34231190Y-102632619D02*
X34802619Y-103204047D01*
X34802619Y-103204047D02*
X34802619Y-102585000D01*
X34135952Y-101727857D02*
X34802619Y-101727857D01*
X33755000Y-101965952D02*
X34469285Y-102204047D01*
X34469285Y-102204047D02*
X34469285Y-101585000D01*
X34278809Y-100870714D02*
X34278809Y-101204047D01*
X34802619Y-101204047D02*
X33802619Y-101204047D01*
X33802619Y-101204047D02*
X33802619Y-100727857D01*
X33802619Y-100156428D02*
X33802619Y-100061190D01*
X33802619Y-100061190D02*
X33850238Y-99965952D01*
X33850238Y-99965952D02*
X33897857Y-99918333D01*
X33897857Y-99918333D02*
X33993095Y-99870714D01*
X33993095Y-99870714D02*
X34183571Y-99823095D01*
X34183571Y-99823095D02*
X34421666Y-99823095D01*
X34421666Y-99823095D02*
X34612142Y-99870714D01*
X34612142Y-99870714D02*
X34707380Y-99918333D01*
X34707380Y-99918333D02*
X34755000Y-99965952D01*
X34755000Y-99965952D02*
X34802619Y-100061190D01*
X34802619Y-100061190D02*
X34802619Y-100156428D01*
X34802619Y-100156428D02*
X34755000Y-100251666D01*
X34755000Y-100251666D02*
X34707380Y-100299285D01*
X34707380Y-100299285D02*
X34612142Y-100346904D01*
X34612142Y-100346904D02*
X34421666Y-100394523D01*
X34421666Y-100394523D02*
X34183571Y-100394523D01*
X34183571Y-100394523D02*
X33993095Y-100346904D01*
X33993095Y-100346904D02*
X33897857Y-100299285D01*
X33897857Y-100299285D02*
X33850238Y-100251666D01*
X33850238Y-100251666D02*
X33802619Y-100156428D01*
X33802619Y-99204047D02*
X33802619Y-99108809D01*
X33802619Y-99108809D02*
X33850238Y-99013571D01*
X33850238Y-99013571D02*
X33897857Y-98965952D01*
X33897857Y-98965952D02*
X33993095Y-98918333D01*
X33993095Y-98918333D02*
X34183571Y-98870714D01*
X34183571Y-98870714D02*
X34421666Y-98870714D01*
X34421666Y-98870714D02*
X34612142Y-98918333D01*
X34612142Y-98918333D02*
X34707380Y-98965952D01*
X34707380Y-98965952D02*
X34755000Y-99013571D01*
X34755000Y-99013571D02*
X34802619Y-99108809D01*
X34802619Y-99108809D02*
X34802619Y-99204047D01*
X34802619Y-99204047D02*
X34755000Y-99299285D01*
X34755000Y-99299285D02*
X34707380Y-99346904D01*
X34707380Y-99346904D02*
X34612142Y-99394523D01*
X34612142Y-99394523D02*
X34421666Y-99442142D01*
X34421666Y-99442142D02*
X34183571Y-99442142D01*
X34183571Y-99442142D02*
X33993095Y-99394523D01*
X33993095Y-99394523D02*
X33897857Y-99346904D01*
X33897857Y-99346904D02*
X33850238Y-99299285D01*
X33850238Y-99299285D02*
X33802619Y-99204047D01*
X50403095Y-37596666D02*
X51165000Y-37596666D01*
X51974523Y-37453809D02*
X52117380Y-37501428D01*
X52117380Y-37501428D02*
X52164999Y-37549047D01*
X52164999Y-37549047D02*
X52212618Y-37644285D01*
X52212618Y-37644285D02*
X52212618Y-37787142D01*
X52212618Y-37787142D02*
X52164999Y-37882380D01*
X52164999Y-37882380D02*
X52117380Y-37930000D01*
X52117380Y-37930000D02*
X52022142Y-37977619D01*
X52022142Y-37977619D02*
X51641190Y-37977619D01*
X51641190Y-37977619D02*
X51641190Y-36977619D01*
X51641190Y-36977619D02*
X51974523Y-36977619D01*
X51974523Y-36977619D02*
X52069761Y-37025238D01*
X52069761Y-37025238D02*
X52117380Y-37072857D01*
X52117380Y-37072857D02*
X52164999Y-37168095D01*
X52164999Y-37168095D02*
X52164999Y-37263333D01*
X52164999Y-37263333D02*
X52117380Y-37358571D01*
X52117380Y-37358571D02*
X52069761Y-37406190D01*
X52069761Y-37406190D02*
X51974523Y-37453809D01*
X51974523Y-37453809D02*
X51641190Y-37453809D01*
X52593571Y-37691904D02*
X53069761Y-37691904D01*
X52498333Y-37977619D02*
X52831666Y-36977619D01*
X52831666Y-36977619D02*
X53164999Y-37977619D01*
X53355476Y-36977619D02*
X53926904Y-36977619D01*
X53641190Y-37977619D02*
X53641190Y-36977619D01*
X68500666Y-121128619D02*
X68500666Y-121842904D01*
X68500666Y-121842904D02*
X68453047Y-121985761D01*
X68453047Y-121985761D02*
X68357809Y-122081000D01*
X68357809Y-122081000D02*
X68214952Y-122128619D01*
X68214952Y-122128619D02*
X68119714Y-122128619D01*
X69500666Y-122128619D02*
X68929238Y-122128619D01*
X69214952Y-122128619D02*
X69214952Y-121128619D01*
X69214952Y-121128619D02*
X69119714Y-121271476D01*
X69119714Y-121271476D02*
X69024476Y-121366714D01*
X69024476Y-121366714D02*
X68929238Y-121414333D01*
X44537333Y-119334619D02*
X44204000Y-118858428D01*
X43965905Y-119334619D02*
X43965905Y-118334619D01*
X43965905Y-118334619D02*
X44346857Y-118334619D01*
X44346857Y-118334619D02*
X44442095Y-118382238D01*
X44442095Y-118382238D02*
X44489714Y-118429857D01*
X44489714Y-118429857D02*
X44537333Y-118525095D01*
X44537333Y-118525095D02*
X44537333Y-118667952D01*
X44537333Y-118667952D02*
X44489714Y-118763190D01*
X44489714Y-118763190D02*
X44442095Y-118810809D01*
X44442095Y-118810809D02*
X44346857Y-118858428D01*
X44346857Y-118858428D02*
X43965905Y-118858428D01*
X45489714Y-119334619D02*
X44918286Y-119334619D01*
X45204000Y-119334619D02*
X45204000Y-118334619D01*
X45204000Y-118334619D02*
X45108762Y-118477476D01*
X45108762Y-118477476D02*
X45013524Y-118572714D01*
X45013524Y-118572714D02*
X44918286Y-118620333D01*
X34758333Y-61327380D02*
X34710714Y-61375000D01*
X34710714Y-61375000D02*
X34567857Y-61422619D01*
X34567857Y-61422619D02*
X34472619Y-61422619D01*
X34472619Y-61422619D02*
X34329762Y-61375000D01*
X34329762Y-61375000D02*
X34234524Y-61279761D01*
X34234524Y-61279761D02*
X34186905Y-61184523D01*
X34186905Y-61184523D02*
X34139286Y-60994047D01*
X34139286Y-60994047D02*
X34139286Y-60851190D01*
X34139286Y-60851190D02*
X34186905Y-60660714D01*
X34186905Y-60660714D02*
X34234524Y-60565476D01*
X34234524Y-60565476D02*
X34329762Y-60470238D01*
X34329762Y-60470238D02*
X34472619Y-60422619D01*
X34472619Y-60422619D02*
X34567857Y-60422619D01*
X34567857Y-60422619D02*
X34710714Y-60470238D01*
X34710714Y-60470238D02*
X34758333Y-60517857D01*
X35710714Y-61422619D02*
X35139286Y-61422619D01*
X35425000Y-61422619D02*
X35425000Y-60422619D01*
X35425000Y-60422619D02*
X35329762Y-60565476D01*
X35329762Y-60565476D02*
X35234524Y-60660714D01*
X35234524Y-60660714D02*
X35139286Y-60708333D01*
X51268333Y-44912619D02*
X50935000Y-44436428D01*
X50696905Y-44912619D02*
X50696905Y-43912619D01*
X50696905Y-43912619D02*
X51077857Y-43912619D01*
X51077857Y-43912619D02*
X51173095Y-43960238D01*
X51173095Y-43960238D02*
X51220714Y-44007857D01*
X51220714Y-44007857D02*
X51268333Y-44103095D01*
X51268333Y-44103095D02*
X51268333Y-44245952D01*
X51268333Y-44245952D02*
X51220714Y-44341190D01*
X51220714Y-44341190D02*
X51173095Y-44388809D01*
X51173095Y-44388809D02*
X51077857Y-44436428D01*
X51077857Y-44436428D02*
X50696905Y-44436428D01*
X51649286Y-44007857D02*
X51696905Y-43960238D01*
X51696905Y-43960238D02*
X51792143Y-43912619D01*
X51792143Y-43912619D02*
X52030238Y-43912619D01*
X52030238Y-43912619D02*
X52125476Y-43960238D01*
X52125476Y-43960238D02*
X52173095Y-44007857D01*
X52173095Y-44007857D02*
X52220714Y-44103095D01*
X52220714Y-44103095D02*
X52220714Y-44198333D01*
X52220714Y-44198333D02*
X52173095Y-44341190D01*
X52173095Y-44341190D02*
X51601667Y-44912619D01*
X51601667Y-44912619D02*
X52220714Y-44912619D01*
X48093333Y-121271380D02*
X48045714Y-121319000D01*
X48045714Y-121319000D02*
X47902857Y-121366619D01*
X47902857Y-121366619D02*
X47807619Y-121366619D01*
X47807619Y-121366619D02*
X47664762Y-121319000D01*
X47664762Y-121319000D02*
X47569524Y-121223761D01*
X47569524Y-121223761D02*
X47521905Y-121128523D01*
X47521905Y-121128523D02*
X47474286Y-120938047D01*
X47474286Y-120938047D02*
X47474286Y-120795190D01*
X47474286Y-120795190D02*
X47521905Y-120604714D01*
X47521905Y-120604714D02*
X47569524Y-120509476D01*
X47569524Y-120509476D02*
X47664762Y-120414238D01*
X47664762Y-120414238D02*
X47807619Y-120366619D01*
X47807619Y-120366619D02*
X47902857Y-120366619D01*
X47902857Y-120366619D02*
X48045714Y-120414238D01*
X48045714Y-120414238D02*
X48093333Y-120461857D01*
X48426667Y-120366619D02*
X49045714Y-120366619D01*
X49045714Y-120366619D02*
X48712381Y-120747571D01*
X48712381Y-120747571D02*
X48855238Y-120747571D01*
X48855238Y-120747571D02*
X48950476Y-120795190D01*
X48950476Y-120795190D02*
X48998095Y-120842809D01*
X48998095Y-120842809D02*
X49045714Y-120938047D01*
X49045714Y-120938047D02*
X49045714Y-121176142D01*
X49045714Y-121176142D02*
X48998095Y-121271380D01*
X48998095Y-121271380D02*
X48950476Y-121319000D01*
X48950476Y-121319000D02*
X48855238Y-121366619D01*
X48855238Y-121366619D02*
X48569524Y-121366619D01*
X48569524Y-121366619D02*
X48474286Y-121319000D01*
X48474286Y-121319000D02*
X48426667Y-121271380D01*
X33752619Y-112521904D02*
X34562142Y-112521904D01*
X34562142Y-112521904D02*
X34657380Y-112474285D01*
X34657380Y-112474285D02*
X34705000Y-112426666D01*
X34705000Y-112426666D02*
X34752619Y-112331428D01*
X34752619Y-112331428D02*
X34752619Y-112140952D01*
X34752619Y-112140952D02*
X34705000Y-112045714D01*
X34705000Y-112045714D02*
X34657380Y-111998095D01*
X34657380Y-111998095D02*
X34562142Y-111950476D01*
X34562142Y-111950476D02*
X33752619Y-111950476D01*
X34752619Y-110950476D02*
X34752619Y-111521904D01*
X34752619Y-111236190D02*
X33752619Y-111236190D01*
X33752619Y-111236190D02*
X33895476Y-111331428D01*
X33895476Y-111331428D02*
X33990714Y-111426666D01*
X33990714Y-111426666D02*
X34038333Y-111521904D01*
X41443333Y-24012666D02*
X41443333Y-25012666D01*
X41443333Y-25012666D02*
X41376666Y-25212666D01*
X41376666Y-25212666D02*
X41243333Y-25346000D01*
X41243333Y-25346000D02*
X41043333Y-25412666D01*
X41043333Y-25412666D02*
X40910000Y-25412666D01*
X42043333Y-24146000D02*
X42110000Y-24079333D01*
X42110000Y-24079333D02*
X42243333Y-24012666D01*
X42243333Y-24012666D02*
X42576667Y-24012666D01*
X42576667Y-24012666D02*
X42710000Y-24079333D01*
X42710000Y-24079333D02*
X42776667Y-24146000D01*
X42776667Y-24146000D02*
X42843333Y-24279333D01*
X42843333Y-24279333D02*
X42843333Y-24412666D01*
X42843333Y-24412666D02*
X42776667Y-24612666D01*
X42776667Y-24612666D02*
X41976667Y-25412666D01*
X41976667Y-25412666D02*
X42843333Y-25412666D01*
X37131666Y-44388809D02*
X36798333Y-44388809D01*
X36798333Y-44912619D02*
X36798333Y-43912619D01*
X36798333Y-43912619D02*
X37274523Y-43912619D01*
X38179285Y-44912619D02*
X37607857Y-44912619D01*
X37893571Y-44912619D02*
X37893571Y-43912619D01*
X37893571Y-43912619D02*
X37798333Y-44055476D01*
X37798333Y-44055476D02*
X37703095Y-44150714D01*
X37703095Y-44150714D02*
X37607857Y-44198333D01*
X42211666Y-44388809D02*
X41878333Y-44388809D01*
X41878333Y-44912619D02*
X41878333Y-43912619D01*
X41878333Y-43912619D02*
X42354523Y-43912619D01*
X42687857Y-44007857D02*
X42735476Y-43960238D01*
X42735476Y-43960238D02*
X42830714Y-43912619D01*
X42830714Y-43912619D02*
X43068809Y-43912619D01*
X43068809Y-43912619D02*
X43164047Y-43960238D01*
X43164047Y-43960238D02*
X43211666Y-44007857D01*
X43211666Y-44007857D02*
X43259285Y-44103095D01*
X43259285Y-44103095D02*
X43259285Y-44198333D01*
X43259285Y-44198333D02*
X43211666Y-44341190D01*
X43211666Y-44341190D02*
X42640238Y-44912619D01*
X42640238Y-44912619D02*
X43259285Y-44912619D01*
X34123333Y-48627380D02*
X34075714Y-48675000D01*
X34075714Y-48675000D02*
X33932857Y-48722619D01*
X33932857Y-48722619D02*
X33837619Y-48722619D01*
X33837619Y-48722619D02*
X33694762Y-48675000D01*
X33694762Y-48675000D02*
X33599524Y-48579761D01*
X33599524Y-48579761D02*
X33551905Y-48484523D01*
X33551905Y-48484523D02*
X33504286Y-48294047D01*
X33504286Y-48294047D02*
X33504286Y-48151190D01*
X33504286Y-48151190D02*
X33551905Y-47960714D01*
X33551905Y-47960714D02*
X33599524Y-47865476D01*
X33599524Y-47865476D02*
X33694762Y-47770238D01*
X33694762Y-47770238D02*
X33837619Y-47722619D01*
X33837619Y-47722619D02*
X33932857Y-47722619D01*
X33932857Y-47722619D02*
X34075714Y-47770238D01*
X34075714Y-47770238D02*
X34123333Y-47817857D01*
X34504286Y-47817857D02*
X34551905Y-47770238D01*
X34551905Y-47770238D02*
X34647143Y-47722619D01*
X34647143Y-47722619D02*
X34885238Y-47722619D01*
X34885238Y-47722619D02*
X34980476Y-47770238D01*
X34980476Y-47770238D02*
X35028095Y-47817857D01*
X35028095Y-47817857D02*
X35075714Y-47913095D01*
X35075714Y-47913095D02*
X35075714Y-48008333D01*
X35075714Y-48008333D02*
X35028095Y-48151190D01*
X35028095Y-48151190D02*
X34456667Y-48722619D01*
X34456667Y-48722619D02*
X35075714Y-48722619D01*
X48093333Y-119493380D02*
X48045714Y-119541000D01*
X48045714Y-119541000D02*
X47902857Y-119588619D01*
X47902857Y-119588619D02*
X47807619Y-119588619D01*
X47807619Y-119588619D02*
X47664762Y-119541000D01*
X47664762Y-119541000D02*
X47569524Y-119445761D01*
X47569524Y-119445761D02*
X47521905Y-119350523D01*
X47521905Y-119350523D02*
X47474286Y-119160047D01*
X47474286Y-119160047D02*
X47474286Y-119017190D01*
X47474286Y-119017190D02*
X47521905Y-118826714D01*
X47521905Y-118826714D02*
X47569524Y-118731476D01*
X47569524Y-118731476D02*
X47664762Y-118636238D01*
X47664762Y-118636238D02*
X47807619Y-118588619D01*
X47807619Y-118588619D02*
X47902857Y-118588619D01*
X47902857Y-118588619D02*
X48045714Y-118636238D01*
X48045714Y-118636238D02*
X48093333Y-118683857D01*
X48950476Y-118921952D02*
X48950476Y-119588619D01*
X48712381Y-118541000D02*
X48474286Y-119255285D01*
X48474286Y-119255285D02*
X49093333Y-119255285D01*
X62698333Y-44912619D02*
X62365000Y-44436428D01*
X62126905Y-44912619D02*
X62126905Y-43912619D01*
X62126905Y-43912619D02*
X62507857Y-43912619D01*
X62507857Y-43912619D02*
X62603095Y-43960238D01*
X62603095Y-43960238D02*
X62650714Y-44007857D01*
X62650714Y-44007857D02*
X62698333Y-44103095D01*
X62698333Y-44103095D02*
X62698333Y-44245952D01*
X62698333Y-44245952D02*
X62650714Y-44341190D01*
X62650714Y-44341190D02*
X62603095Y-44388809D01*
X62603095Y-44388809D02*
X62507857Y-44436428D01*
X62507857Y-44436428D02*
X62126905Y-44436428D01*
X63031667Y-43912619D02*
X63650714Y-43912619D01*
X63650714Y-43912619D02*
X63317381Y-44293571D01*
X63317381Y-44293571D02*
X63460238Y-44293571D01*
X63460238Y-44293571D02*
X63555476Y-44341190D01*
X63555476Y-44341190D02*
X63603095Y-44388809D01*
X63603095Y-44388809D02*
X63650714Y-44484047D01*
X63650714Y-44484047D02*
X63650714Y-44722142D01*
X63650714Y-44722142D02*
X63603095Y-44817380D01*
X63603095Y-44817380D02*
X63555476Y-44865000D01*
X63555476Y-44865000D02*
X63460238Y-44912619D01*
X63460238Y-44912619D02*
X63174524Y-44912619D01*
X63174524Y-44912619D02*
X63079286Y-44865000D01*
X63079286Y-44865000D02*
X63031667Y-44817380D01*
D11*
X58360000Y-120202000D02*
X58360000Y-118872000D01*
X59690000Y-120202000D02*
X58360000Y-120202000D01*
X60960000Y-120202000D02*
X68640000Y-120202000D01*
X60960000Y-120202000D02*
X60960000Y-117602000D01*
X68640000Y-120202000D02*
X68640000Y-115002000D01*
X58360000Y-117602000D02*
X58360000Y-115002000D01*
X60960000Y-117602000D02*
X58360000Y-117602000D01*
X58360000Y-115002000D02*
X68640000Y-115002000D01*
G36*
X54110487Y-92212448D02*
G01*
X54141322Y-92215859D01*
X54162989Y-92224969D01*
X54181551Y-92245630D01*
X54203068Y-92283691D01*
X54220628Y-92318746D01*
X54286875Y-92427138D01*
X54371897Y-92527096D01*
X54468359Y-92610932D01*
X54545943Y-92659729D01*
X54603049Y-92686557D01*
X54677675Y-92717475D01*
X54758804Y-92748072D01*
X54814555Y-92767262D01*
X54919965Y-92805636D01*
X54998396Y-92843291D01*
X55052559Y-92881782D01*
X55085089Y-92922525D01*
X55087745Y-92946612D01*
X55081296Y-92993508D01*
X55065413Y-93064958D01*
X55040267Y-93160899D01*
X54999469Y-93316174D01*
X54963860Y-93464977D01*
X54934516Y-93602197D01*
X54912513Y-93722722D01*
X54898927Y-93821441D01*
X54897049Y-93841197D01*
X54891471Y-93893926D01*
X54885238Y-93932639D01*
X54879564Y-93950071D01*
X54878788Y-93950400D01*
X54869115Y-93937874D01*
X54847105Y-93903153D01*
X54815016Y-93849996D01*
X54775105Y-93782163D01*
X54729627Y-93703416D01*
X54711257Y-93671238D01*
X54583862Y-93447337D01*
X54470463Y-93247916D01*
X54370288Y-93071599D01*
X54282566Y-92917007D01*
X54206525Y-92782765D01*
X54141393Y-92667494D01*
X54086398Y-92569817D01*
X54040770Y-92488359D01*
X54003736Y-92421740D01*
X53974524Y-92368585D01*
X53952364Y-92327516D01*
X53936483Y-92297156D01*
X53926109Y-92276128D01*
X53920472Y-92263054D01*
X53918815Y-92257033D01*
X53931092Y-92239286D01*
X53966342Y-92224710D01*
X54017807Y-92214876D01*
X54078724Y-92211356D01*
X54110487Y-92212448D01*
G37*
G36*
X56577377Y-95712577D02*
G01*
X56741693Y-95738384D01*
X56892235Y-95778879D01*
X57026720Y-95833051D01*
X57142867Y-95899889D01*
X57238394Y-95978381D01*
X57311020Y-96067517D01*
X57358461Y-96166284D01*
X57372458Y-96221319D01*
X57383189Y-96280709D01*
X57280367Y-96175203D01*
X57194758Y-96099193D01*
X57097934Y-96032829D01*
X56998872Y-95981546D01*
X56911801Y-95951966D01*
X56894951Y-95949786D01*
X56891689Y-95956043D01*
X56904093Y-95973883D01*
X56934240Y-96006447D01*
X56975078Y-96047767D01*
X57019664Y-96093659D01*
X57054954Y-96132470D01*
X57076403Y-96159053D01*
X57080768Y-96167367D01*
X57067989Y-96169726D01*
X57034284Y-96163046D01*
X56986602Y-96148762D01*
X56980270Y-96146605D01*
X56856675Y-96113873D01*
X56712039Y-96092074D01*
X56552952Y-96081049D01*
X56386007Y-96080638D01*
X56217795Y-96090681D01*
X56054908Y-96111018D01*
X55903939Y-96141490D01*
X55789179Y-96175496D01*
X55751682Y-96186216D01*
X55728992Y-96187854D01*
X55725903Y-96184989D01*
X55735233Y-96169495D01*
X55760675Y-96136617D01*
X55798405Y-96091093D01*
X55844600Y-96037659D01*
X55847325Y-96034569D01*
X55897149Y-95977564D01*
X55928853Y-95939345D01*
X55929366Y-95938599D01*
X56842550Y-95938599D01*
X56849994Y-95946043D01*
X56857438Y-95938599D01*
X56849994Y-95931155D01*
X56842550Y-95938599D01*
X55929366Y-95938599D01*
X55944400Y-95916716D01*
X55945755Y-95906478D01*
X55934881Y-95905436D01*
X55925490Y-95907360D01*
X55894549Y-95918023D01*
X55844525Y-95938791D01*
X55782956Y-95966425D01*
X55731849Y-95990620D01*
X55616394Y-96055185D01*
X55515229Y-96128845D01*
X55434121Y-96207017D01*
X55394477Y-96258704D01*
X55370137Y-96295926D01*
X55369357Y-96229906D01*
X55382750Y-96144084D01*
X55425204Y-96059572D01*
X55497048Y-95975747D01*
X55511777Y-95961914D01*
X55626230Y-95875755D01*
X55762218Y-95807153D01*
X55920678Y-95755771D01*
X56102550Y-95721271D01*
X56216549Y-95709072D01*
X56401568Y-95702470D01*
X56577377Y-95712577D01*
G37*
G36*
X60100175Y-84239322D02*
G01*
X60178631Y-84293245D01*
X60191104Y-84305083D01*
X60252234Y-84374189D01*
X60307836Y-84455987D01*
X60358343Y-84552181D01*
X60404184Y-84664478D01*
X60445790Y-84794583D01*
X60483594Y-84944203D01*
X60518025Y-85115044D01*
X60549514Y-85308811D01*
X60578493Y-85527210D01*
X60605392Y-85771948D01*
X60630643Y-86044730D01*
X60630675Y-86045105D01*
X60645387Y-86240570D01*
X60657679Y-86451869D01*
X60667536Y-86675003D01*
X60674946Y-86905969D01*
X60679896Y-87140766D01*
X60682371Y-87375394D01*
X60682360Y-87605851D01*
X60679848Y-87828135D01*
X60674822Y-88038246D01*
X60667269Y-88232183D01*
X60657176Y-88405943D01*
X60644529Y-88555526D01*
X60639174Y-88604166D01*
X60606697Y-88877822D01*
X60651827Y-88992028D01*
X60700134Y-89124200D01*
X60733897Y-89242347D01*
X60755522Y-89356928D01*
X60767409Y-89478403D01*
X60768635Y-89500504D01*
X60768853Y-89684394D01*
X60749466Y-89850980D01*
X60709723Y-90006009D01*
X60698364Y-90038611D01*
X60667427Y-90111430D01*
X60626934Y-90189987D01*
X60581733Y-90266194D01*
X60536669Y-90331963D01*
X60496589Y-90379208D01*
X60491244Y-90384253D01*
X60468283Y-90413181D01*
X60460487Y-90436309D01*
X60468377Y-90459888D01*
X60490304Y-90503784D01*
X60523652Y-90563627D01*
X60565803Y-90635049D01*
X60614143Y-90713682D01*
X60666054Y-90795155D01*
X60718920Y-90875101D01*
X60753224Y-90925136D01*
X60920126Y-91146232D01*
X61093945Y-91340081D01*
X61276787Y-91508822D01*
X61470759Y-91654594D01*
X61472913Y-91656045D01*
X61526274Y-91692984D01*
X61569439Y-91724842D01*
X61596921Y-91747456D01*
X61603868Y-91755474D01*
X61593623Y-91767519D01*
X61558762Y-91778787D01*
X61504442Y-91788883D01*
X61435820Y-91797411D01*
X61358055Y-91803977D01*
X61276304Y-91808186D01*
X61195725Y-91809642D01*
X61121476Y-91807950D01*
X61058715Y-91802716D01*
X61035256Y-91799035D01*
X60977259Y-91787990D01*
X61156838Y-92002707D01*
X61266188Y-92135496D01*
X61366633Y-92261515D01*
X61455965Y-92377820D01*
X61531979Y-92481468D01*
X61592468Y-92569514D01*
X61635225Y-92639015D01*
X61639263Y-92646343D01*
X61670806Y-92707477D01*
X61701217Y-92771441D01*
X61727479Y-92831295D01*
X61746579Y-92880103D01*
X61755499Y-92910927D01*
X61755797Y-92914455D01*
X61746232Y-92913010D01*
X61721127Y-92894391D01*
X61685872Y-92862607D01*
X61685076Y-92861841D01*
X61631983Y-92814018D01*
X61570664Y-92763507D01*
X61532468Y-92734493D01*
X61493821Y-92708038D01*
X61438139Y-92671873D01*
X61370328Y-92628989D01*
X61295294Y-92582377D01*
X61217943Y-92535028D01*
X61143182Y-92489931D01*
X61075916Y-92450077D01*
X61021053Y-92418458D01*
X60983498Y-92398064D01*
X60971412Y-92392496D01*
X60970772Y-92396902D01*
X60989965Y-92416477D01*
X61025479Y-92447902D01*
X61063564Y-92479573D01*
X61140183Y-92544558D01*
X61209110Y-92609584D01*
X61275297Y-92680136D01*
X61343696Y-92761699D01*
X61419257Y-92859759D01*
X61474332Y-92934629D01*
X61553753Y-93042792D01*
X61621285Y-93131623D01*
X61681461Y-93206628D01*
X61738816Y-93273313D01*
X61797883Y-93337185D01*
X61848338Y-93388873D01*
X61895952Y-93438384D01*
X61921047Y-93470521D01*
X61922383Y-93487056D01*
X61898721Y-93489764D01*
X61848822Y-93480420D01*
X61793974Y-93466710D01*
X61689770Y-93430263D01*
X61572860Y-93371617D01*
X61441867Y-93289989D01*
X61295410Y-93184599D01*
X61294250Y-93183717D01*
X61182670Y-93099712D01*
X61075929Y-93020983D01*
X60977882Y-92950281D01*
X60892385Y-92890357D01*
X60823293Y-92843963D01*
X60782398Y-92818425D01*
X60747419Y-92798362D01*
X60733128Y-92793205D01*
X60734629Y-92802624D01*
X60741360Y-92815676D01*
X60765921Y-92848623D01*
X60792781Y-92874202D01*
X60831228Y-92911305D01*
X60882299Y-92971026D01*
X60943844Y-93050126D01*
X61013715Y-93145367D01*
X61089765Y-93253513D01*
X61169845Y-93371324D01*
X61251806Y-93495563D01*
X61333501Y-93622992D01*
X61412782Y-93750372D01*
X61487499Y-93874467D01*
X61555506Y-93992038D01*
X61614653Y-94099846D01*
X61645452Y-94159408D01*
X61705863Y-94283383D01*
X61752621Y-94388783D01*
X61788157Y-94482094D01*
X61814899Y-94569803D01*
X61835277Y-94658396D01*
X61838385Y-94674558D01*
X61851209Y-94750632D01*
X61856563Y-94801001D01*
X61854626Y-94824938D01*
X61845577Y-94821719D01*
X61829595Y-94790616D01*
X61817337Y-94759825D01*
X61763184Y-94643895D01*
X61685041Y-94517848D01*
X61585585Y-94384818D01*
X61467490Y-94247942D01*
X61333433Y-94110356D01*
X61186088Y-93975196D01*
X61055787Y-93867236D01*
X60997311Y-93822598D01*
X60944072Y-93784753D01*
X60898824Y-93755126D01*
X60864316Y-93735142D01*
X60843299Y-93726228D01*
X60838524Y-93729809D01*
X60852742Y-93747311D01*
X60888704Y-93780159D01*
X60890121Y-93781374D01*
X60927283Y-93817476D01*
X60967449Y-93865600D01*
X61012788Y-93928895D01*
X61065469Y-94010511D01*
X61127661Y-94113598D01*
X61175605Y-94196029D01*
X61311697Y-94451756D01*
X61425296Y-94706006D01*
X61515070Y-94955366D01*
X61579687Y-95196425D01*
X61594341Y-95268611D01*
X61612501Y-95394313D01*
X61624170Y-95537122D01*
X61629448Y-95689749D01*
X61628433Y-95844902D01*
X61621226Y-95995292D01*
X61607924Y-96133629D01*
X61588629Y-96252622D01*
X61580445Y-96288482D01*
X61574518Y-96298700D01*
X61567595Y-96283509D01*
X61559145Y-96241249D01*
X61553371Y-96203934D01*
X61539613Y-96132883D01*
X61520139Y-96060682D01*
X61499006Y-96002236D01*
X61497629Y-95999176D01*
X61440767Y-95905271D01*
X61357692Y-95811360D01*
X61251861Y-95719970D01*
X61126732Y-95633629D01*
X60985761Y-95554865D01*
X60832405Y-95486204D01*
X60758259Y-95458572D01*
X60685163Y-95432868D01*
X60631361Y-95415070D01*
X60596603Y-95407337D01*
X60580641Y-95411824D01*
X60583226Y-95430691D01*
X60604110Y-95466094D01*
X60643042Y-95520192D01*
X60699776Y-95595141D01*
X60736883Y-95643931D01*
X60804118Y-95731863D01*
X60875344Y-95823866D01*
X60945013Y-95912856D01*
X61007581Y-95991745D01*
X61054886Y-96050264D01*
X61133633Y-96146645D01*
X61194214Y-96221765D01*
X61237747Y-96277055D01*
X61265350Y-96313945D01*
X61278138Y-96333864D01*
X61279361Y-96337555D01*
X61266655Y-96337901D01*
X61234164Y-96330493D01*
X61208640Y-96323035D01*
X61177590Y-96315559D01*
X61137716Y-96310429D01*
X61085913Y-96307666D01*
X61019078Y-96307291D01*
X60934107Y-96309324D01*
X60827896Y-96313786D01*
X60697340Y-96320697D01*
X60587040Y-96327171D01*
X60441837Y-96326816D01*
X60310065Y-96305718D01*
X60184402Y-96261795D01*
X60057522Y-96192965D01*
X60013828Y-96164219D01*
X59976555Y-96139235D01*
X59960202Y-96130606D01*
X59961335Y-96137555D01*
X59973430Y-96155056D01*
X60079739Y-96307772D01*
X60170215Y-96450774D01*
X60243404Y-96581451D01*
X60297852Y-96697193D01*
X60332105Y-96795392D01*
X60333709Y-96801545D01*
X60352277Y-96911296D01*
X60357906Y-97035703D01*
X60351412Y-97166196D01*
X60333612Y-97294207D01*
X60305322Y-97411165D01*
X60267358Y-97508500D01*
X60266138Y-97510909D01*
X60233731Y-97574434D01*
X60215542Y-97521528D01*
X60187700Y-97459644D01*
X60143476Y-97383587D01*
X60087641Y-97300141D01*
X60024966Y-97216093D01*
X59960220Y-97138226D01*
X59905079Y-97079970D01*
X59838768Y-97015362D01*
X59831977Y-97206523D01*
X59828274Y-97290513D01*
X59823272Y-97352267D01*
X59815726Y-97399327D01*
X59804393Y-97439233D01*
X59788029Y-97479527D01*
X59786329Y-97483294D01*
X59765476Y-97527556D01*
X59749448Y-97558484D01*
X59742210Y-97568904D01*
X59739692Y-97555172D01*
X59737572Y-97518602D01*
X59736204Y-97466135D01*
X59735974Y-97446072D01*
X59723743Y-97298584D01*
X59688141Y-97154793D01*
X59633479Y-97019590D01*
X59607142Y-96967620D01*
X59574798Y-96909352D01*
X59539776Y-96850091D01*
X59505405Y-96795141D01*
X59475014Y-96749807D01*
X59451931Y-96719395D01*
X59439486Y-96709209D01*
X59438917Y-96709543D01*
X59439582Y-96725658D01*
X59446585Y-96763082D01*
X59458490Y-96814379D01*
X59461354Y-96825733D01*
X59502267Y-97039669D01*
X59520253Y-97268510D01*
X59515573Y-97508481D01*
X59488490Y-97755806D01*
X59439265Y-98006709D01*
X59368159Y-98257414D01*
X59360603Y-98280113D01*
X59334915Y-98352819D01*
X59306159Y-98428529D01*
X59276426Y-98502394D01*
X59247807Y-98569563D01*
X59222394Y-98625185D01*
X59202277Y-98664411D01*
X59189547Y-98682390D01*
X59187075Y-98682635D01*
X59186981Y-98666429D01*
X59191619Y-98628061D01*
X59200068Y-98574606D01*
X59204237Y-98550971D01*
X59221123Y-98382510D01*
X59213955Y-98203896D01*
X59183896Y-98020817D01*
X59132107Y-97838960D01*
X59059749Y-97664011D01*
X59000560Y-97553862D01*
X58956280Y-97480151D01*
X58924692Y-97431329D01*
X58903652Y-97406467D01*
X58891020Y-97404634D01*
X58884653Y-97424901D01*
X58882409Y-97466335D01*
X58882149Y-97502437D01*
X58874968Y-97682256D01*
X58854825Y-97871572D01*
X58823191Y-98063292D01*
X58781536Y-98250326D01*
X58731333Y-98425581D01*
X58674051Y-98581965D01*
X58644433Y-98648329D01*
X58601665Y-98737661D01*
X58610006Y-98566442D01*
X58612341Y-98491689D01*
X58612786Y-98408412D01*
X58611571Y-98321469D01*
X58608925Y-98235716D01*
X58605078Y-98156011D01*
X58600259Y-98087212D01*
X58594696Y-98034177D01*
X58588620Y-98001761D01*
X58582997Y-97994170D01*
X58574220Y-98013154D01*
X58569744Y-98049339D01*
X58569599Y-98057385D01*
X58566017Y-98112673D01*
X58556127Y-98190735D01*
X58541139Y-98285533D01*
X58522265Y-98391027D01*
X58500714Y-98501178D01*
X58477696Y-98609949D01*
X58454423Y-98711301D01*
X58432105Y-98799194D01*
X58411951Y-98867591D01*
X58401296Y-98897017D01*
X58391823Y-98918542D01*
X58385378Y-98925120D01*
X58380756Y-98913188D01*
X58376750Y-98879185D01*
X58372154Y-98819547D01*
X58371371Y-98808623D01*
X58355007Y-98656618D01*
X58329231Y-98519666D01*
X58295224Y-98403331D01*
X58274651Y-98352769D01*
X58234637Y-98265649D01*
X58234144Y-98471878D01*
X58221623Y-98692392D01*
X58184433Y-98909813D01*
X58121541Y-99128568D01*
X58031910Y-99353088D01*
X58024014Y-99370428D01*
X57997410Y-99424477D01*
X57964158Y-99486353D01*
X57927493Y-99550709D01*
X57890653Y-99612193D01*
X57856873Y-99665458D01*
X57829392Y-99705154D01*
X57811444Y-99725932D01*
X57807816Y-99727755D01*
X57795653Y-99715496D01*
X57787629Y-99696879D01*
X57776616Y-99675333D01*
X57751674Y-99633412D01*
X57715507Y-99575440D01*
X57670819Y-99505741D01*
X57620313Y-99428638D01*
X57613077Y-99417717D01*
X57530060Y-99290019D01*
X57463930Y-99182116D01*
X57412905Y-99090606D01*
X57375201Y-99012089D01*
X57349034Y-98943163D01*
X57333430Y-98884407D01*
X57322106Y-98842198D01*
X57310200Y-98816713D01*
X57302787Y-98812914D01*
X57284096Y-98835017D01*
X57260581Y-98877270D01*
X57236150Y-98931353D01*
X57214712Y-98988948D01*
X57205227Y-99020545D01*
X57188455Y-99133793D01*
X57193522Y-99259414D01*
X57219538Y-99390539D01*
X57265613Y-99520302D01*
X57271705Y-99533843D01*
X57288222Y-99573402D01*
X57296378Y-99600395D01*
X57296135Y-99606682D01*
X57281851Y-99601170D01*
X57250549Y-99578121D01*
X57206250Y-99541071D01*
X57152979Y-99493552D01*
X57094757Y-99439098D01*
X57035608Y-99381244D01*
X57010245Y-99355539D01*
X56951673Y-99291833D01*
X56887113Y-99215921D01*
X56827098Y-99140372D01*
X56804405Y-99109877D01*
X56759356Y-99043184D01*
X56711060Y-98964170D01*
X56662506Y-98878573D01*
X56616683Y-98792132D01*
X56576581Y-98710586D01*
X56545189Y-98639674D01*
X56525497Y-98585134D01*
X56520962Y-98565735D01*
X56512930Y-98514332D01*
X56683732Y-98466885D01*
X56939477Y-98384479D01*
X57179914Y-98283052D01*
X57406364Y-98161424D01*
X57620146Y-98018416D01*
X57822583Y-97852847D01*
X58014994Y-97663537D01*
X58198701Y-97449304D01*
X58375024Y-97208970D01*
X58545284Y-96941353D01*
X58700733Y-96664329D01*
X58745077Y-96581986D01*
X58789443Y-96501851D01*
X58830024Y-96430648D01*
X58863010Y-96375102D01*
X58877635Y-96351992D01*
X58954594Y-96250259D01*
X59057136Y-96139241D01*
X59185911Y-96018289D01*
X59341568Y-95886754D01*
X59350229Y-95879758D01*
X59426143Y-95817386D01*
X59501500Y-95753386D01*
X59570053Y-95693209D01*
X59625553Y-95642308D01*
X59652137Y-95616300D01*
X59763119Y-95482040D01*
X59857625Y-95323625D01*
X59935232Y-95141983D01*
X59995514Y-94938040D01*
X60022884Y-94807063D01*
X60032524Y-94734740D01*
X60040308Y-94639192D01*
X60046130Y-94526918D01*
X60049879Y-94404419D01*
X60051449Y-94278195D01*
X60050730Y-94154746D01*
X60047616Y-94040573D01*
X60041998Y-93942176D01*
X60037991Y-93898857D01*
X60030644Y-93842024D01*
X60023393Y-93811983D01*
X60015388Y-93809328D01*
X60005780Y-93834651D01*
X59993719Y-93888547D01*
X59984727Y-93936078D01*
X59933042Y-94156826D01*
X59861692Y-94364046D01*
X59772140Y-94555652D01*
X59665848Y-94729559D01*
X59544279Y-94883684D01*
X59408895Y-95015942D01*
X59261158Y-95124248D01*
X59102532Y-95206516D01*
X59089815Y-95211749D01*
X59042375Y-95229308D01*
X59006587Y-95239568D01*
X58990535Y-95240374D01*
X58989833Y-95222813D01*
X58996316Y-95185531D01*
X59006038Y-95146185D01*
X59027529Y-95049788D01*
X59039559Y-94955264D01*
X59041288Y-94871883D01*
X59035335Y-94822299D01*
X59022545Y-94763092D01*
X58964615Y-94859521D01*
X58931116Y-94914575D01*
X58888288Y-94983964D01*
X58842804Y-95056910D01*
X58817341Y-95097384D01*
X58764713Y-95182927D01*
X58718759Y-95263465D01*
X58678115Y-95342803D01*
X58641416Y-95424747D01*
X58607297Y-95513102D01*
X58574394Y-95611674D01*
X58541343Y-95724268D01*
X58506779Y-95854690D01*
X58469338Y-96006745D01*
X58427655Y-96184239D01*
X58427650Y-96184261D01*
X58365430Y-96437798D01*
X58302061Y-96663351D01*
X58236559Y-96862712D01*
X58167939Y-97037674D01*
X58095217Y-97190029D01*
X58017408Y-97321569D01*
X57933528Y-97434089D01*
X57842592Y-97529379D01*
X57743616Y-97609232D01*
X57635616Y-97675442D01*
X57598298Y-97694375D01*
X57500134Y-97736585D01*
X57391091Y-97774581D01*
X57278067Y-97806704D01*
X57167961Y-97831293D01*
X57067669Y-97846689D01*
X56984089Y-97851232D01*
X56954181Y-97849342D01*
X56935757Y-97845580D01*
X56935814Y-97838990D01*
X56957342Y-97827364D01*
X57003329Y-97808494D01*
X57016385Y-97803400D01*
X57182055Y-97729373D01*
X57334729Y-97641955D01*
X57469550Y-97544437D01*
X57581659Y-97440109D01*
X57622482Y-97392967D01*
X57675620Y-97324781D01*
X57709997Y-97276415D01*
X57725591Y-97248440D01*
X57722381Y-97241426D01*
X57700346Y-97255946D01*
X57659465Y-97292570D01*
X57624956Y-97326317D01*
X57539100Y-97406177D01*
X57464247Y-97462550D01*
X57414051Y-97490641D01*
X57375964Y-97507599D01*
X57342531Y-97519030D01*
X57306550Y-97525938D01*
X57260821Y-97529325D01*
X57198140Y-97530192D01*
X57132878Y-97529765D01*
X57038618Y-97527011D01*
X56955945Y-97521092D01*
X56891934Y-97512613D01*
X56866703Y-97506923D01*
X56794080Y-97485999D01*
X56903925Y-97397596D01*
X57064396Y-97255712D01*
X57197249Y-97109997D01*
X57304615Y-96957859D01*
X57377157Y-96822142D01*
X57418513Y-96724719D01*
X57449652Y-96630272D01*
X57472771Y-96529881D01*
X57490066Y-96414624D01*
X57499389Y-96325745D01*
X57510026Y-96168752D01*
X57510448Y-96038342D01*
X57500564Y-95933095D01*
X57480287Y-95851594D01*
X57467892Y-95822575D01*
X57411970Y-95738879D01*
X57332159Y-95658894D01*
X57234329Y-95587381D01*
X57124349Y-95529099D01*
X57087282Y-95513919D01*
X57058166Y-95505908D01*
X57054307Y-95513601D01*
X57075684Y-95536972D01*
X57122274Y-95575989D01*
X57152899Y-95599742D01*
X57264677Y-95693555D01*
X57352921Y-95786049D01*
X57415355Y-95874725D01*
X57430809Y-95904659D01*
X57449412Y-95947146D01*
X57460512Y-95977143D01*
X57462005Y-95986651D01*
X57449554Y-95980088D01*
X57422494Y-95958264D01*
X57399341Y-95937535D01*
X57262707Y-95830479D01*
X57104828Y-95741701D01*
X56928955Y-95672544D01*
X56738334Y-95624351D01*
X56590190Y-95603024D01*
X56450543Y-95595557D01*
X56297940Y-95598637D01*
X56140094Y-95611322D01*
X55984719Y-95632669D01*
X55839526Y-95661734D01*
X55712229Y-95697574D01*
X55660059Y-95716780D01*
X55613589Y-95735221D01*
X55579297Y-95748119D01*
X55565406Y-95752491D01*
X55573064Y-95742921D01*
X55598607Y-95716739D01*
X55638232Y-95677736D01*
X55688137Y-95629703D01*
X55698249Y-95620076D01*
X55749606Y-95570002D01*
X55791049Y-95527165D01*
X55818808Y-95495646D01*
X55829115Y-95479528D01*
X55828844Y-95478595D01*
X55811026Y-95478612D01*
X55772078Y-95488014D01*
X55718420Y-95504892D01*
X55656475Y-95527337D01*
X55630551Y-95537552D01*
X55620379Y-95536532D01*
X55628352Y-95517006D01*
X55655241Y-95477275D01*
X55662226Y-95467743D01*
X55743052Y-95339113D01*
X55809410Y-95194935D01*
X55856179Y-95047100D01*
X55868332Y-94989169D01*
X55870767Y-94971588D01*
X55869081Y-94961838D01*
X55860789Y-94961865D01*
X55843409Y-94973613D01*
X55814458Y-94999026D01*
X55771454Y-95040051D01*
X55711914Y-95098631D01*
X55649756Y-95160388D01*
X55570329Y-95238641D01*
X55509462Y-95296689D01*
X55465367Y-95336067D01*
X55436255Y-95358309D01*
X55420337Y-95364950D01*
X55416019Y-95360824D01*
X55420310Y-95326011D01*
X55441160Y-95271782D01*
X55476480Y-95201936D01*
X55524184Y-95120274D01*
X55582185Y-95030595D01*
X55648395Y-94936700D01*
X55650664Y-94933616D01*
X55694129Y-94871750D01*
X55740323Y-94801106D01*
X55786723Y-94726144D01*
X55830806Y-94651323D01*
X55870048Y-94581100D01*
X55901926Y-94519935D01*
X55923918Y-94472285D01*
X55933499Y-94442609D01*
X55932544Y-94435542D01*
X55921223Y-94444153D01*
X55893195Y-94471505D01*
X55851715Y-94514245D01*
X55800041Y-94569022D01*
X55744483Y-94629146D01*
X55683816Y-94694372D01*
X55627861Y-94752619D01*
X55580526Y-94799963D01*
X55545721Y-94832483D01*
X55528598Y-94845707D01*
X55508717Y-94855069D01*
X55507449Y-94850759D01*
X55525492Y-94829144D01*
X55533506Y-94820159D01*
X55619361Y-94709845D01*
X55700441Y-94578291D01*
X55772084Y-94434036D01*
X55829634Y-94285616D01*
X55836089Y-94265665D01*
X55866761Y-94147817D01*
X55893241Y-94004624D01*
X55915448Y-93840230D01*
X55933301Y-93658783D01*
X55946721Y-93464429D01*
X55955626Y-93261313D01*
X55959936Y-93053582D01*
X55959572Y-92845382D01*
X55954452Y-92640860D01*
X55944496Y-92444160D01*
X55929624Y-92259430D01*
X55909756Y-92090816D01*
X55884810Y-91942463D01*
X55881449Y-91926113D01*
X55864114Y-91850809D01*
X55858381Y-91829337D01*
X57170097Y-91829337D01*
X57176113Y-92000557D01*
X57183378Y-92109241D01*
X57198433Y-92208179D01*
X57223336Y-92302982D01*
X57260143Y-92399263D01*
X57310912Y-92502632D01*
X57377700Y-92618702D01*
X57438095Y-92715211D01*
X57541254Y-92886460D01*
X57620591Y-93041605D01*
X57676593Y-93181742D01*
X57709743Y-93307969D01*
X57715179Y-93342337D01*
X57724383Y-93388140D01*
X57735150Y-93411307D01*
X57744703Y-93410021D01*
X57750265Y-93382465D01*
X57750756Y-93365601D01*
X57757020Y-93279679D01*
X57774159Y-93185046D01*
X57799696Y-93090134D01*
X57831155Y-93003375D01*
X57866058Y-92933200D01*
X57886336Y-92904106D01*
X57919227Y-92868971D01*
X57957381Y-92839531D01*
X58006234Y-92813015D01*
X58071221Y-92786648D01*
X58157779Y-92757656D01*
X58197415Y-92745387D01*
X58355320Y-92690829D01*
X58487198Y-92630423D01*
X58596612Y-92561650D01*
X58687124Y-92481988D01*
X58762299Y-92388918D01*
X58808370Y-92313218D01*
X58826276Y-92278954D01*
X58840485Y-92253568D01*
X58855458Y-92235995D01*
X58875653Y-92225173D01*
X58905533Y-92220036D01*
X58949557Y-92219521D01*
X59012186Y-92222563D01*
X59097880Y-92228099D01*
X59150983Y-92231482D01*
X59230568Y-92235025D01*
X59306806Y-92235970D01*
X59370735Y-92234350D01*
X59411534Y-92230529D01*
X59445734Y-92224477D01*
X59460672Y-92220282D01*
X59453829Y-92216964D01*
X59422685Y-92213542D01*
X59364720Y-92209037D01*
X59354284Y-92208262D01*
X59288678Y-92202022D01*
X59236435Y-92192451D01*
X59186596Y-92176344D01*
X59128205Y-92150494D01*
X59086288Y-92129867D01*
X59013685Y-92091238D01*
X58961024Y-92056873D01*
X58920262Y-92020864D01*
X58889736Y-91985538D01*
X58833706Y-91915231D01*
X58790241Y-91863701D01*
X58754104Y-91825856D01*
X58720055Y-91796606D01*
X58682856Y-91770861D01*
X58645792Y-91748480D01*
X58532421Y-91694465D01*
X58421895Y-91667949D01*
X58308468Y-91667918D01*
X58246188Y-91678086D01*
X58157655Y-91700223D01*
X58088051Y-91727089D01*
X58026543Y-91764365D01*
X57962296Y-91817734D01*
X57939720Y-91838824D01*
X57848715Y-91925421D01*
X57816402Y-91895065D01*
X57794526Y-91866988D01*
X57766520Y-91820806D01*
X57737944Y-91765800D01*
X57734105Y-91757691D01*
X57708640Y-91706877D01*
X57690975Y-91681055D01*
X57680863Y-91680994D01*
X57678056Y-91707467D01*
X57682307Y-91761243D01*
X57693366Y-91843094D01*
X57697637Y-91871071D01*
X57718304Y-92032501D01*
X57726480Y-92169586D01*
X57722332Y-92281901D01*
X57706024Y-92369019D01*
X57677723Y-92430517D01*
X57637594Y-92465969D01*
X57585801Y-92474950D01*
X57522512Y-92457034D01*
X57478844Y-92433043D01*
X57404596Y-92373055D01*
X57340054Y-92292404D01*
X57283813Y-92188672D01*
X57234468Y-92059445D01*
X57206595Y-91964994D01*
X57170097Y-91829337D01*
X55858381Y-91829337D01*
X55844786Y-91778416D01*
X55825264Y-91714533D01*
X55807343Y-91664755D01*
X55792822Y-91634681D01*
X55785847Y-91628341D01*
X55776841Y-91641704D01*
X55764091Y-91677023D01*
X55750115Y-91727141D01*
X55747878Y-91736283D01*
X55700511Y-91918139D01*
X55651636Y-92075687D01*
X55601724Y-92207779D01*
X55551248Y-92313267D01*
X55500678Y-92391005D01*
X55462573Y-92430737D01*
X55402945Y-92468435D01*
X55350670Y-92477385D01*
X55305955Y-92457747D01*
X55269006Y-92409681D01*
X55240029Y-92333347D01*
X55221497Y-92244272D01*
X55213193Y-92130756D01*
X55222984Y-92008478D01*
X55251506Y-91872283D01*
X55278953Y-91778347D01*
X55297302Y-91718424D01*
X55310731Y-91669976D01*
X55317559Y-91639355D01*
X55317679Y-91632036D01*
X55307133Y-91640399D01*
X55284818Y-91668002D01*
X55255269Y-91709167D01*
X55250836Y-91715656D01*
X55216099Y-91763532D01*
X55183133Y-91803481D01*
X55158981Y-91826979D01*
X55158677Y-91827194D01*
X55138179Y-91838358D01*
X55117472Y-91837714D01*
X55087472Y-91823275D01*
X55058144Y-91805208D01*
X54957210Y-91754539D01*
X54846351Y-91725986D01*
X54728029Y-91717673D01*
X54622524Y-91723691D01*
X54532671Y-91744053D01*
X54446408Y-91782218D01*
X54393861Y-91813492D01*
X54326710Y-91859958D01*
X54279325Y-91902498D01*
X54243970Y-91948606D01*
X54230136Y-91972131D01*
X54204735Y-91998963D01*
X54159916Y-92028498D01*
X54102152Y-92058216D01*
X54037917Y-92085599D01*
X53973683Y-92108129D01*
X53915923Y-92123285D01*
X53871112Y-92128549D01*
X53845947Y-92121633D01*
X53840409Y-92096657D01*
X53849878Y-92051796D01*
X53850353Y-92050315D01*
X53861773Y-92020008D01*
X53884549Y-91964185D01*
X53917952Y-91884544D01*
X53961253Y-91782784D01*
X54013722Y-91660603D01*
X54074631Y-91519698D01*
X54143249Y-91361769D01*
X54218849Y-91188514D01*
X54296827Y-91010463D01*
X54394700Y-90787278D01*
X54481193Y-90589875D01*
X54556938Y-90416790D01*
X54622565Y-90266558D01*
X54678708Y-90137716D01*
X54725998Y-90028798D01*
X54765067Y-89938340D01*
X54796546Y-89864878D01*
X54821069Y-89806947D01*
X54839266Y-89763083D01*
X54851770Y-89731822D01*
X54859213Y-89711698D01*
X54862226Y-89701248D01*
X54862362Y-89699888D01*
X54851008Y-89703939D01*
X54820642Y-89721531D01*
X54776807Y-89749362D01*
X54754420Y-89764176D01*
X54702816Y-89798538D01*
X54658931Y-89827425D01*
X54629971Y-89846106D01*
X54624623Y-89849400D01*
X54625028Y-89844392D01*
X54642409Y-89821114D01*
X54673744Y-89783358D01*
X54714473Y-89736646D01*
X54773462Y-89667143D01*
X54838405Y-89585702D01*
X54899041Y-89505364D01*
X54924750Y-89469380D01*
X54964291Y-89410976D01*
X55007031Y-89345160D01*
X55050118Y-89276661D01*
X55090706Y-89210205D01*
X55125943Y-89150519D01*
X55152982Y-89102332D01*
X55168972Y-89070370D01*
X55171780Y-89059518D01*
X55159956Y-89067623D01*
X55130064Y-89092587D01*
X55085931Y-89131091D01*
X55031387Y-89179816D01*
X54996360Y-89211571D01*
X54877145Y-89318788D01*
X54739060Y-89440542D01*
X54586641Y-89572965D01*
X54424428Y-89712189D01*
X54256957Y-89854348D01*
X54088766Y-89995572D01*
X53924394Y-90131996D01*
X53768378Y-90259750D01*
X53730827Y-90290193D01*
X53608090Y-90389051D01*
X53492820Y-90481082D01*
X53387050Y-90564715D01*
X53292817Y-90638377D01*
X53212156Y-90700497D01*
X53147102Y-90749501D01*
X53099691Y-90783818D01*
X53071958Y-90801877D01*
X53065439Y-90804141D01*
X53070560Y-90789937D01*
X53091357Y-90759550D01*
X53123636Y-90718977D01*
X53131459Y-90709748D01*
X53208555Y-90616241D01*
X53299781Y-90499381D01*
X53403675Y-90361181D01*
X53518770Y-90203657D01*
X53643604Y-90028821D01*
X53776712Y-89838688D01*
X53916629Y-89635272D01*
X53973673Y-89551377D01*
X54065117Y-89417086D01*
X54142215Y-89305468D01*
X54206800Y-89214199D01*
X54260705Y-89140954D01*
X54305765Y-89083410D01*
X54343812Y-89039241D01*
X54376681Y-89006124D01*
X54406206Y-88981734D01*
X54434218Y-88963747D01*
X54439479Y-88960884D01*
X54494716Y-88921393D01*
X54525469Y-88874063D01*
X54555487Y-88778042D01*
X54575045Y-88665186D01*
X54584799Y-88530903D01*
X54586219Y-88449619D01*
X54585463Y-88360733D01*
X54582131Y-88292889D01*
X54575246Y-88237394D01*
X54563828Y-88185556D01*
X54551874Y-88144402D01*
X54489117Y-87991971D01*
X54399094Y-87850954D01*
X54327107Y-87766506D01*
X54289507Y-87724913D01*
X54271094Y-87699153D01*
X54273157Y-87689061D01*
X54296983Y-87694473D01*
X54343859Y-87715225D01*
X54415074Y-87751153D01*
X54421478Y-87754479D01*
X54517975Y-87814071D01*
X54599651Y-87886652D01*
X54671487Y-87977627D01*
X54738464Y-88092403D01*
X54745382Y-88105986D01*
X54777228Y-88166067D01*
X54798586Y-88200178D01*
X54809511Y-88210197D01*
X54810057Y-88198002D01*
X54800278Y-88165472D01*
X54780231Y-88114485D01*
X54749969Y-88046919D01*
X54743248Y-88032737D01*
X54672956Y-87911435D01*
X54579668Y-87789295D01*
X54468715Y-87670988D01*
X54345428Y-87561184D01*
X54215138Y-87464554D01*
X54083177Y-87385768D01*
X53954875Y-87329496D01*
X53931823Y-87321882D01*
X53799603Y-87294219D01*
X53705516Y-87288851D01*
X53651065Y-87287519D01*
X53611791Y-87284441D01*
X53593883Y-87280191D01*
X53593851Y-87278491D01*
X53622580Y-87263385D01*
X53673675Y-87247585D01*
X53739814Y-87232692D01*
X53813676Y-87220306D01*
X53887937Y-87212030D01*
X53902569Y-87210984D01*
X54065793Y-87214732D01*
X54236696Y-87245648D01*
X54412579Y-87302990D01*
X54590746Y-87386016D01*
X54641780Y-87414402D01*
X54691149Y-87441693D01*
X54729921Y-87460929D01*
X54751643Y-87468984D01*
X54753930Y-87468700D01*
X54748395Y-87454812D01*
X54721759Y-87427769D01*
X54677990Y-87390483D01*
X54621057Y-87345866D01*
X54554928Y-87296830D01*
X54483571Y-87246290D01*
X54410955Y-87197157D01*
X54341048Y-87152344D01*
X54277820Y-87114763D01*
X54253749Y-87101592D01*
X54210146Y-87076742D01*
X54181959Y-87057119D01*
X54174398Y-87046435D01*
X54175454Y-87045802D01*
X54206142Y-87046962D01*
X54256001Y-87061391D01*
X54319060Y-87086403D01*
X54389349Y-87119312D01*
X54460899Y-87157431D01*
X54527737Y-87198073D01*
X54554637Y-87216434D01*
X54592525Y-87241745D01*
X54610226Y-87249190D01*
X54607427Y-87238330D01*
X54583812Y-87208727D01*
X54539068Y-87159945D01*
X54472882Y-87091544D01*
X54444242Y-87062535D01*
X54321838Y-86943440D01*
X54213666Y-86847700D01*
X54117774Y-86773676D01*
X54043488Y-86726049D01*
X53975593Y-86692713D01*
X53897797Y-86662955D01*
X53820394Y-86640060D01*
X53753676Y-86627313D01*
X53729246Y-86625762D01*
X53687998Y-86621890D01*
X53666202Y-86612390D01*
X53667378Y-86600432D01*
X53690050Y-86590436D01*
X53737211Y-86583512D01*
X53804427Y-86580739D01*
X53882318Y-86581773D01*
X53961503Y-86586268D01*
X54032601Y-86593880D01*
X54086233Y-86604265D01*
X54089149Y-86605104D01*
X54171143Y-86635318D01*
X54274859Y-86683491D01*
X54398860Y-86748865D01*
X54541709Y-86830680D01*
X54701969Y-86928179D01*
X54706032Y-86930715D01*
X54721010Y-86937335D01*
X54716044Y-86926528D01*
X54693547Y-86900530D01*
X54655932Y-86861583D01*
X54605613Y-86811926D01*
X54545002Y-86753798D01*
X54476513Y-86689438D01*
X54402558Y-86621087D01*
X54325552Y-86550983D01*
X54247907Y-86481366D01*
X54172036Y-86414476D01*
X54100352Y-86352551D01*
X54035269Y-86297833D01*
X53979200Y-86252559D01*
X53956162Y-86234813D01*
X53842243Y-86156444D01*
X53723083Y-86087928D01*
X53607558Y-86034022D01*
X53529830Y-86006393D01*
X53485317Y-85991568D01*
X53466429Y-85980834D01*
X53473985Y-85973968D01*
X53508806Y-85970750D01*
X53571712Y-85970959D01*
X53650731Y-85973791D01*
X53724958Y-85978153D01*
X53780085Y-85985082D01*
X53826790Y-85996996D01*
X53875750Y-86016311D01*
X53911376Y-86032805D01*
X54006917Y-86085172D01*
X54113421Y-86156789D01*
X54232670Y-86249004D01*
X54366447Y-86363165D01*
X54458809Y-86446796D01*
X54562330Y-86542116D01*
X54644969Y-86617629D01*
X54707545Y-86673917D01*
X54750877Y-86711564D01*
X54775783Y-86731153D01*
X54783081Y-86733268D01*
X54773590Y-86718493D01*
X54748127Y-86687411D01*
X54707511Y-86640606D01*
X54667997Y-86595985D01*
X54466424Y-86370097D01*
X54283845Y-86166788D01*
X54120074Y-85985858D01*
X53974927Y-85827106D01*
X53848218Y-85690335D01*
X53739761Y-85575344D01*
X53649371Y-85481935D01*
X53576862Y-85409907D01*
X53522049Y-85359061D01*
X53500053Y-85340588D01*
X53425610Y-85281440D01*
X53485164Y-85292288D01*
X53535311Y-85303738D01*
X53594998Y-85320486D01*
X53622884Y-85329371D01*
X53665450Y-85342371D01*
X53693840Y-85348574D01*
X53701049Y-85347678D01*
X53691948Y-85331041D01*
X53667135Y-85296558D01*
X53630351Y-85248933D01*
X53585334Y-85192867D01*
X53535823Y-85133062D01*
X53485557Y-85074221D01*
X53464917Y-85050698D01*
X53392460Y-84974353D01*
X53315784Y-84903004D01*
X53240801Y-84841565D01*
X53173422Y-84794953D01*
X53129697Y-84771945D01*
X53055718Y-84751186D01*
X52990199Y-84755102D01*
X52932229Y-84784570D01*
X52880898Y-84840467D01*
X52835294Y-84923669D01*
X52794506Y-85035053D01*
X52771842Y-85116261D01*
X52729704Y-85306659D01*
X52693391Y-85521834D01*
X52663355Y-85757273D01*
X52640049Y-86008462D01*
X52623925Y-86270891D01*
X52615434Y-86540046D01*
X52614182Y-86689462D01*
X52619181Y-86965670D01*
X52635072Y-87219571D01*
X52663196Y-87457064D01*
X52704890Y-87684043D01*
X52761493Y-87906407D01*
X52834343Y-88130051D01*
X52924779Y-88360871D01*
X53034138Y-88604766D01*
X53062278Y-88663683D01*
X53099835Y-88742106D01*
X53132435Y-88811313D01*
X53158021Y-88866843D01*
X53174534Y-88904236D01*
X53179947Y-88918838D01*
X53166530Y-88924805D01*
X53132064Y-88928008D01*
X53101782Y-88928103D01*
X53023617Y-88926055D01*
X53026968Y-88978165D01*
X53029387Y-89015756D01*
X53033107Y-89073493D01*
X53037509Y-89141808D01*
X53039928Y-89179329D01*
X53042476Y-89266556D01*
X53039228Y-89347982D01*
X53030927Y-89418181D01*
X53018317Y-89471728D01*
X53002141Y-89503198D01*
X52994851Y-89508383D01*
X52972410Y-89506989D01*
X52931049Y-89496529D01*
X52879403Y-89479221D01*
X52875432Y-89477737D01*
X52823804Y-89458992D01*
X52794747Y-89450927D01*
X52783296Y-89452888D01*
X52784485Y-89464222D01*
X52785108Y-89465847D01*
X52823039Y-89593260D01*
X52845582Y-89743885D01*
X52852397Y-89901260D01*
X52850847Y-89994318D01*
X52845208Y-90077501D01*
X52833996Y-90155031D01*
X52815729Y-90231130D01*
X52788924Y-90310020D01*
X52752097Y-90395921D01*
X52703765Y-90493056D01*
X52642447Y-90605647D01*
X52566657Y-90737914D01*
X52546121Y-90773104D01*
X52458990Y-90919595D01*
X52380522Y-91045738D01*
X52306365Y-91157967D01*
X52232168Y-91262716D01*
X52153577Y-91366421D01*
X52094614Y-91440605D01*
X52027694Y-91523521D01*
X51977493Y-91586004D01*
X51942004Y-91630773D01*
X51919218Y-91660545D01*
X51907129Y-91678041D01*
X51903730Y-91685978D01*
X51907012Y-91687074D01*
X51914802Y-91684122D01*
X51937282Y-91674621D01*
X51980280Y-91656644D01*
X52036804Y-91633108D01*
X52078189Y-91615920D01*
X52152285Y-91584669D01*
X52229485Y-91551280D01*
X52297088Y-91521274D01*
X52319394Y-91511086D01*
X52370945Y-91489619D01*
X52413891Y-91476025D01*
X52439701Y-91472950D01*
X52441074Y-91473347D01*
X52465961Y-91491074D01*
X52466633Y-91517442D01*
X52442457Y-91554573D01*
X52405556Y-91592741D01*
X52360443Y-91640164D01*
X52309731Y-91700593D01*
X52263627Y-91761796D01*
X52259239Y-91768104D01*
X52225128Y-91819943D01*
X52184650Y-91885184D01*
X52139842Y-91960139D01*
X52092740Y-92041120D01*
X52045381Y-92124440D01*
X51999803Y-92206411D01*
X51958041Y-92283346D01*
X51922134Y-92351557D01*
X51894117Y-92407356D01*
X51876028Y-92447056D01*
X51869904Y-92466969D01*
X51872642Y-92467997D01*
X51893549Y-92454641D01*
X51932006Y-92429509D01*
X51980781Y-92397334D01*
X51996301Y-92387045D01*
X52063658Y-92343261D01*
X52140183Y-92294889D01*
X52209343Y-92252380D01*
X52209530Y-92252267D01*
X52265289Y-92218597D01*
X52315964Y-92187798D01*
X52352482Y-92165391D01*
X52358416Y-92161698D01*
X52405775Y-92139742D01*
X52441391Y-92138743D01*
X52459748Y-92156468D01*
X52452764Y-92177703D01*
X52422808Y-92215911D01*
X52370678Y-92270134D01*
X52340515Y-92299206D01*
X52255274Y-92385488D01*
X52171244Y-92482510D01*
X52086031Y-92593584D01*
X51997246Y-92722022D01*
X51902495Y-92871134D01*
X51799388Y-93044232D01*
X51787309Y-93065094D01*
X51744318Y-93139537D01*
X51810755Y-93085787D01*
X51888348Y-93027770D01*
X51983351Y-92964078D01*
X52085913Y-92901020D01*
X52186185Y-92844905D01*
X52189853Y-92842976D01*
X52245405Y-92813341D01*
X52295389Y-92785818D01*
X52329964Y-92765836D01*
X52332683Y-92764158D01*
X52367939Y-92749715D01*
X52395959Y-92749476D01*
X52415923Y-92769508D01*
X52419186Y-92798347D01*
X52405081Y-92821451D01*
X52399388Y-92824396D01*
X52378739Y-92841885D01*
X52346673Y-92880482D01*
X52306394Y-92935354D01*
X52261103Y-93001665D01*
X52214002Y-93074582D01*
X52168293Y-93149271D01*
X52127179Y-93220897D01*
X52093861Y-93284627D01*
X52092021Y-93288423D01*
X52064033Y-93348503D01*
X52031354Y-93421877D01*
X51995777Y-93504155D01*
X51959096Y-93590950D01*
X51923105Y-93677872D01*
X51889597Y-93760534D01*
X51860365Y-93834547D01*
X51837205Y-93895522D01*
X51821909Y-93939071D01*
X51816271Y-93960806D01*
X51816578Y-93962315D01*
X51830864Y-93957466D01*
X51862894Y-93938781D01*
X51906375Y-93910003D01*
X51917127Y-93902496D01*
X51980983Y-93859366D01*
X52052755Y-93813670D01*
X52107966Y-93780539D01*
X52160501Y-93748798D01*
X52206646Y-93718243D01*
X52236731Y-93695289D01*
X52237484Y-93694601D01*
X52271350Y-93674757D01*
X52299988Y-93676852D01*
X52315494Y-93699407D01*
X52316407Y-93709361D01*
X52306230Y-93735189D01*
X52280374Y-93769941D01*
X52263173Y-93787994D01*
X52188770Y-93872406D01*
X52119920Y-93977592D01*
X52055683Y-94105544D01*
X51995118Y-94258254D01*
X51937286Y-94437714D01*
X51908840Y-94539068D01*
X51856380Y-94743887D01*
X51815439Y-94926607D01*
X51785209Y-95092233D01*
X51764880Y-95245773D01*
X51753645Y-95392231D01*
X51750639Y-95518839D01*
X51750639Y-95680972D01*
X51799027Y-95649326D01*
X51902862Y-95585126D01*
X51985868Y-95541962D01*
X52047983Y-95519864D01*
X52079734Y-95517012D01*
X52100533Y-95519963D01*
X52107600Y-95525585D01*
X52098127Y-95537010D01*
X52069305Y-95557371D01*
X52018326Y-95589802D01*
X52009547Y-95595305D01*
X51874860Y-95683952D01*
X51765864Y-95766073D01*
X51680073Y-95844772D01*
X51615000Y-95923151D01*
X51568159Y-96004311D01*
X51537063Y-96091354D01*
X51519224Y-96187383D01*
X51516840Y-96209933D01*
X51510701Y-96256415D01*
X51503205Y-96286240D01*
X51496144Y-96292958D01*
X51485089Y-96267472D01*
X51474785Y-96217146D01*
X51465517Y-96146914D01*
X51457571Y-96061709D01*
X51451234Y-95966464D01*
X51446793Y-95866114D01*
X51444532Y-95765592D01*
X51444739Y-95669832D01*
X51447699Y-95583767D01*
X51451837Y-95529162D01*
X51477613Y-95327722D01*
X51514053Y-95140966D01*
X51563452Y-94961330D01*
X51628108Y-94781250D01*
X51710314Y-94593163D01*
X51777233Y-94457180D01*
X51824976Y-94363586D01*
X51873057Y-94269030D01*
X51917998Y-94180373D01*
X51956324Y-94104472D01*
X51984556Y-94048187D01*
X51984637Y-94048024D01*
X52016871Y-93985269D01*
X52048103Y-93927750D01*
X52073621Y-93884008D01*
X52083198Y-93869361D01*
X52089628Y-93854976D01*
X52076072Y-93858958D01*
X52044608Y-93879680D01*
X51997319Y-93915515D01*
X51936284Y-93964838D01*
X51863586Y-94026022D01*
X51781303Y-94097441D01*
X51708352Y-94162311D01*
X51581588Y-94281621D01*
X51477611Y-94392133D01*
X51392633Y-94498479D01*
X51322865Y-94605292D01*
X51278508Y-94687954D01*
X51212538Y-94821952D01*
X51221514Y-94733393D01*
X51239981Y-94628797D01*
X51275989Y-94508966D01*
X51330051Y-94372802D01*
X51402677Y-94219205D01*
X51494380Y-94047076D01*
X51605671Y-93855316D01*
X51707268Y-93690034D01*
X51766100Y-93596198D01*
X51823853Y-93503866D01*
X51877278Y-93418248D01*
X51923127Y-93344551D01*
X51958151Y-93287988D01*
X51971611Y-93266090D01*
X52012789Y-93200739D01*
X52062489Y-93124725D01*
X52111839Y-93051555D01*
X52126050Y-93031028D01*
X52162179Y-92978598D01*
X52190850Y-92935708D01*
X52208427Y-92907875D01*
X52212186Y-92900371D01*
X52200865Y-92899613D01*
X52169516Y-92914000D01*
X52122064Y-92940981D01*
X52062433Y-92978008D01*
X51994549Y-93022533D01*
X51922334Y-93072007D01*
X51849715Y-93123882D01*
X51780614Y-93175609D01*
X51743195Y-93204939D01*
X51623721Y-93296136D01*
X51518147Y-93366561D01*
X51421721Y-93418651D01*
X51329690Y-93454845D01*
X51237302Y-93477582D01*
X51200953Y-93483222D01*
X51121821Y-93493719D01*
X51253845Y-93360732D01*
X51308612Y-93301759D01*
X51374794Y-93224433D01*
X51447204Y-93135118D01*
X51520650Y-93040178D01*
X51574276Y-92967756D01*
X51637514Y-92882509D01*
X51702662Y-92798233D01*
X51765122Y-92720625D01*
X51820295Y-92655384D01*
X51863584Y-92608209D01*
X51867666Y-92604127D01*
X51911393Y-92559913D01*
X51945014Y-92523901D01*
X51964263Y-92500781D01*
X51967029Y-92494868D01*
X51948081Y-92495555D01*
X51909312Y-92511052D01*
X51855004Y-92538690D01*
X51789442Y-92575796D01*
X51716909Y-92619701D01*
X51641689Y-92667733D01*
X51568065Y-92717221D01*
X51500322Y-92765494D01*
X51442742Y-92809881D01*
X51399610Y-92847711D01*
X51396953Y-92850333D01*
X51362373Y-92882463D01*
X51336320Y-92902276D01*
X51325713Y-92905682D01*
X51327049Y-92888031D01*
X51340670Y-92850157D01*
X51363909Y-92797585D01*
X51394096Y-92735842D01*
X51428563Y-92670454D01*
X51464641Y-92606946D01*
X51489583Y-92566325D01*
X51541305Y-92488997D01*
X51607291Y-92395785D01*
X51682457Y-92293437D01*
X51761716Y-92188701D01*
X51839982Y-92088326D01*
X51912169Y-91999059D01*
X51957373Y-91945627D01*
X52000464Y-91894980D01*
X52035119Y-91852255D01*
X52057294Y-91822569D01*
X52063328Y-91811630D01*
X52049411Y-91807375D01*
X52011427Y-91804553D01*
X51955064Y-91803394D01*
X51886007Y-91804128D01*
X51880943Y-91804254D01*
X51796800Y-91804566D01*
X51710648Y-91801683D01*
X51628043Y-91796151D01*
X51554538Y-91788515D01*
X51495691Y-91779321D01*
X51457054Y-91769114D01*
X51444857Y-91761424D01*
X51451003Y-91746817D01*
X51476519Y-91728329D01*
X51479600Y-91726691D01*
X51535657Y-91692831D01*
X51607017Y-91642369D01*
X51687996Y-91579822D01*
X51772910Y-91509712D01*
X51856074Y-91436559D01*
X51919728Y-91376739D01*
X52088408Y-91198608D01*
X52230094Y-91019370D01*
X52344040Y-90840135D01*
X52429504Y-90662013D01*
X52464447Y-90563804D01*
X52488947Y-90472032D01*
X52497706Y-90396528D01*
X52489696Y-90327671D01*
X52463887Y-90255840D01*
X52423193Y-90178256D01*
X52369036Y-90075562D01*
X52329647Y-89979059D01*
X52303144Y-89880848D01*
X52287644Y-89773027D01*
X52281263Y-89647695D01*
X52280875Y-89581155D01*
X52283043Y-89472557D01*
X52289498Y-89379774D01*
X52301874Y-89294833D01*
X52321808Y-89209765D01*
X52350937Y-89116596D01*
X52390896Y-89007356D01*
X52407389Y-88964756D01*
X52434553Y-88892759D01*
X52450710Y-88842533D01*
X52457146Y-88808727D01*
X52455152Y-88785993D01*
X52452205Y-88778648D01*
X52440598Y-88740565D01*
X52429670Y-88675687D01*
X52419517Y-88586991D01*
X52410234Y-88477453D01*
X52401916Y-88350050D01*
X52394657Y-88207759D01*
X52388553Y-88053555D01*
X52383698Y-87890416D01*
X52380188Y-87721317D01*
X52378118Y-87549237D01*
X52377582Y-87377151D01*
X52378676Y-87208035D01*
X52381494Y-87044867D01*
X52386132Y-86890623D01*
X52389442Y-86811734D01*
X52404561Y-86526044D01*
X52422686Y-86249336D01*
X52443477Y-85985385D01*
X52466598Y-85737969D01*
X52491709Y-85510867D01*
X52518472Y-85307853D01*
X52532366Y-85216568D01*
X52569314Y-85019635D01*
X52613953Y-84839756D01*
X52665432Y-84678883D01*
X52722899Y-84538964D01*
X52785501Y-84421951D01*
X52852387Y-84329794D01*
X52922704Y-84264444D01*
X52957624Y-84243068D01*
X53040179Y-84216944D01*
X53133219Y-84215122D01*
X53230403Y-84237336D01*
X53276723Y-84256487D01*
X53356938Y-84304035D01*
X53450304Y-84375547D01*
X53555283Y-84469084D01*
X53670334Y-84582710D01*
X53793919Y-84714487D01*
X53924499Y-84862476D01*
X54060534Y-85024741D01*
X54200485Y-85199344D01*
X54342812Y-85384347D01*
X54485977Y-85577813D01*
X54628439Y-85777805D01*
X54768661Y-85982384D01*
X54905101Y-86189613D01*
X55036222Y-86397554D01*
X55160484Y-86604271D01*
X55210353Y-86690428D01*
X55266512Y-86791426D01*
X55328849Y-86908308D01*
X55394320Y-87034959D01*
X55459884Y-87165263D01*
X55522496Y-87293106D01*
X55579115Y-87412373D01*
X55626697Y-87516947D01*
X55657411Y-87588853D01*
X55722395Y-87760284D01*
X55773545Y-87921262D01*
X55809082Y-88066012D01*
X55816575Y-88106235D01*
X55828209Y-88221571D01*
X55826624Y-88343786D01*
X55812957Y-88465514D01*
X55788342Y-88579390D01*
X55753914Y-88678049D01*
X55718314Y-88743669D01*
X55695955Y-88780556D01*
X55693107Y-88796352D01*
X55708635Y-88791419D01*
X55741400Y-88766123D01*
X55790267Y-88720825D01*
X55790529Y-88720570D01*
X55881046Y-88612341D01*
X55946948Y-88488219D01*
X55988399Y-88347727D01*
X56005567Y-88190384D01*
X56004864Y-88099736D01*
X56001470Y-88032582D01*
X55997765Y-87975238D01*
X55994272Y-87935076D01*
X55992217Y-87921072D01*
X55993687Y-87915232D01*
X56003181Y-87910425D01*
X56023370Y-87906524D01*
X56056926Y-87903402D01*
X56106522Y-87900930D01*
X56174827Y-87898982D01*
X56264515Y-87897428D01*
X56378256Y-87896142D01*
X56518723Y-87894995D01*
X56541055Y-87894836D01*
X56689722Y-87893984D01*
X56810982Y-87893767D01*
X56907201Y-87894248D01*
X56980744Y-87895492D01*
X57033976Y-87897561D01*
X57069262Y-87900519D01*
X57088968Y-87904429D01*
X57095459Y-87909356D01*
X57095480Y-87909725D01*
X57091635Y-87933702D01*
X57081914Y-87975641D01*
X57072784Y-88010404D01*
X57052573Y-88113886D01*
X57041766Y-88237118D01*
X57040208Y-88371650D01*
X57047740Y-88509031D01*
X57064206Y-88640813D01*
X57086498Y-88747506D01*
X57093951Y-88774877D01*
X57099405Y-88788816D01*
X57103400Y-88786399D01*
X57106475Y-88764705D01*
X57109170Y-88720809D01*
X57112024Y-88651788D01*
X57113986Y-88598505D01*
X57118073Y-88504768D01*
X57123496Y-88431475D01*
X57131666Y-88369295D01*
X57143994Y-88308894D01*
X57161889Y-88240941D01*
X57163725Y-88234600D01*
X58246145Y-88234600D01*
X58247266Y-88250500D01*
X58256617Y-88242216D01*
X58273460Y-88207837D01*
X58286183Y-88175688D01*
X58351616Y-88035893D01*
X58435263Y-87919099D01*
X58538454Y-87823776D01*
X58654869Y-87752179D01*
X58724678Y-87718021D01*
X58769670Y-87698646D01*
X58791128Y-87694499D01*
X58790332Y-87706026D01*
X58768565Y-87733672D01*
X58727549Y-87777426D01*
X58635369Y-87887902D01*
X58565736Y-88007066D01*
X58516272Y-88140218D01*
X58484603Y-88292660D01*
X58479645Y-88330510D01*
X58473680Y-88436163D01*
X58477473Y-88556285D01*
X58489957Y-88678753D01*
X58510063Y-88791445D01*
X58525369Y-88849416D01*
X58542917Y-88901475D01*
X58559429Y-88932922D01*
X58581054Y-88952043D01*
X58612238Y-88966456D01*
X58643433Y-88983102D01*
X58678566Y-89011025D01*
X58719317Y-89052302D01*
X58767368Y-89109010D01*
X58824400Y-89183227D01*
X58892094Y-89277030D01*
X58972130Y-89392496D01*
X59049432Y-89506711D01*
X59150106Y-89656172D01*
X59236696Y-89783507D01*
X59311333Y-89891567D01*
X59376146Y-89983204D01*
X59433263Y-90061269D01*
X59484814Y-90128613D01*
X59532929Y-90188088D01*
X59579737Y-90242544D01*
X59627367Y-90294832D01*
X59676318Y-90346128D01*
X59721738Y-90390721D01*
X59774880Y-90439576D01*
X59830740Y-90488495D01*
X59884312Y-90533280D01*
X59930590Y-90569736D01*
X59964569Y-90593664D01*
X59980289Y-90601026D01*
X59977270Y-90590180D01*
X59961564Y-90563121D01*
X59954739Y-90552638D01*
X59878015Y-90415636D01*
X59828860Y-90277232D01*
X59807992Y-90139825D01*
X59808844Y-90065372D01*
X59827025Y-89960947D01*
X59867227Y-89861779D01*
X59931190Y-89765341D01*
X60020650Y-89669108D01*
X60137347Y-89570553D01*
X60162269Y-89551708D01*
X60215866Y-89511190D01*
X60259317Y-89477175D01*
X60287817Y-89453506D01*
X60296712Y-89444263D01*
X60283498Y-89441755D01*
X60249845Y-89443574D01*
X60225991Y-89446309D01*
X60146678Y-89443351D01*
X60077738Y-89412676D01*
X60020780Y-89355024D01*
X60017550Y-89350388D01*
X59992048Y-89288626D01*
X59983752Y-89204512D01*
X59992768Y-89100072D01*
X60001833Y-89050195D01*
X60009552Y-89002193D01*
X60011294Y-88966232D01*
X60008036Y-88952522D01*
X59987440Y-88945767D01*
X59948060Y-88941595D01*
X59923255Y-88940943D01*
X59881181Y-88940208D01*
X59854713Y-88938332D01*
X59850053Y-88936924D01*
X59856279Y-88922787D01*
X59873036Y-88887993D01*
X59897443Y-88838470D01*
X59915175Y-88802926D01*
X60060067Y-88493802D01*
X60179952Y-88193617D01*
X60276324Y-87897729D01*
X60350676Y-87601494D01*
X60404499Y-87300269D01*
X60409320Y-87265973D01*
X60419028Y-87175979D01*
X60427241Y-87062196D01*
X60433845Y-86930583D01*
X60438725Y-86787096D01*
X60441768Y-86637692D01*
X60442857Y-86488328D01*
X60441880Y-86344963D01*
X60438722Y-86213552D01*
X60433267Y-86100053D01*
X60432057Y-86082327D01*
X60411813Y-85832946D01*
X60388926Y-85612202D01*
X60363182Y-85419053D01*
X60334365Y-85252458D01*
X60302262Y-85111375D01*
X60266657Y-84994764D01*
X60227336Y-84901582D01*
X60184085Y-84830789D01*
X60170762Y-84814280D01*
X60137694Y-84779618D01*
X60108551Y-84762881D01*
X60069883Y-84757811D01*
X60049030Y-84757646D01*
X59997021Y-84761782D01*
X59947913Y-84775375D01*
X59897358Y-84801131D01*
X59841008Y-84841754D01*
X59774514Y-84899951D01*
X59693529Y-84978427D01*
X59692449Y-84979505D01*
X59633515Y-85040118D01*
X59573844Y-85104553D01*
X59516685Y-85168938D01*
X59465284Y-85229403D01*
X59422890Y-85282074D01*
X59392751Y-85323080D01*
X59378113Y-85348550D01*
X59377865Y-85354551D01*
X59393073Y-85352429D01*
X59429642Y-85342868D01*
X59480648Y-85327730D01*
X59499269Y-85321892D01*
X59555141Y-85305267D01*
X59600551Y-85293818D01*
X59627769Y-85289428D01*
X59631205Y-85289761D01*
X59628334Y-85300250D01*
X59605983Y-85322651D01*
X59573190Y-85348903D01*
X59523233Y-85390087D01*
X59456216Y-85451748D01*
X59374283Y-85531608D01*
X59279580Y-85627387D01*
X59174250Y-85736808D01*
X59060439Y-85857590D01*
X58940291Y-85987455D01*
X58815951Y-86124124D01*
X58689565Y-86265318D01*
X58563276Y-86408758D01*
X58439229Y-86552165D01*
X58423783Y-86570214D01*
X58362857Y-86642096D01*
X58319582Y-86694719D01*
X58294398Y-86727867D01*
X58287747Y-86741324D01*
X58300069Y-86734875D01*
X58331804Y-86708304D01*
X58383395Y-86661394D01*
X58455281Y-86593931D01*
X58539853Y-86513400D01*
X58673937Y-86387056D01*
X58791211Y-86281285D01*
X58894617Y-86194379D01*
X58987099Y-86124628D01*
X59071600Y-86070322D01*
X59151063Y-86029754D01*
X59228430Y-86001213D01*
X59306645Y-85982990D01*
X59388651Y-85973377D01*
X59474400Y-85970662D01*
X59537382Y-85972669D01*
X59575857Y-85978122D01*
X59588512Y-85986175D01*
X59574033Y-85995978D01*
X59531107Y-86006683D01*
X59530377Y-86006821D01*
X59477860Y-86022810D01*
X59408353Y-86052645D01*
X59328894Y-86092583D01*
X59246521Y-86138880D01*
X59168271Y-86187794D01*
X59103188Y-86234028D01*
X59055621Y-86272312D01*
X58990583Y-86326891D01*
X58912489Y-86393867D01*
X58825755Y-86469343D01*
X58734794Y-86549421D01*
X58644023Y-86630205D01*
X58557855Y-86707797D01*
X58480707Y-86778300D01*
X58416992Y-86837816D01*
X58391802Y-86861993D01*
X58342833Y-86911344D01*
X58312805Y-86945421D01*
X58302539Y-86962959D01*
X58312851Y-86962690D01*
X58335135Y-86949681D01*
X58510741Y-86838191D01*
X58666493Y-86746754D01*
X58801973Y-86675600D01*
X58916761Y-86624958D01*
X58956735Y-86610513D01*
X59006785Y-86595564D01*
X59054031Y-86586518D01*
X59107767Y-86582420D01*
X59177283Y-86582318D01*
X59220349Y-86583451D01*
X59300151Y-86587616D01*
X59359237Y-86593976D01*
X59395969Y-86601801D01*
X59408706Y-86610360D01*
X59395810Y-86618924D01*
X59355640Y-86626764D01*
X59325250Y-86630143D01*
X59207752Y-86650598D01*
X59092420Y-86690777D01*
X58976280Y-86752404D01*
X58856356Y-86837201D01*
X58729671Y-86946893D01*
X58658093Y-87016391D01*
X58574882Y-87101110D01*
X58512115Y-87167646D01*
X58470031Y-87215668D01*
X58448865Y-87244845D01*
X58448854Y-87254846D01*
X58470235Y-87245340D01*
X58513244Y-87215997D01*
X58517521Y-87212861D01*
X58565246Y-87182267D01*
X58627570Y-87148614D01*
X58697385Y-87115032D01*
X58767583Y-87084650D01*
X58831056Y-87060596D01*
X58880696Y-87045999D01*
X58903234Y-87043078D01*
X58898371Y-87049541D01*
X58871864Y-87066528D01*
X58828601Y-87091043D01*
X58799997Y-87106355D01*
X58602235Y-87226547D01*
X58421397Y-87369530D01*
X58398411Y-87390530D01*
X58309080Y-87473585D01*
X58465410Y-87393126D01*
X58615424Y-87321982D01*
X58753468Y-87270064D01*
X58887645Y-87234603D01*
X58973775Y-87219476D01*
X59041155Y-87211140D01*
X59097615Y-87208483D01*
X59155201Y-87211774D01*
X59225957Y-87221276D01*
X59253171Y-87225643D01*
X59321470Y-87238255D01*
X59382614Y-87252060D01*
X59428024Y-87264997D01*
X59444196Y-87271512D01*
X59461568Y-87281678D01*
X59463589Y-87287888D01*
X59446418Y-87291059D01*
X59406213Y-87292112D01*
X59358334Y-87292064D01*
X59263123Y-87296413D01*
X59175831Y-87309186D01*
X59142825Y-87317285D01*
X59015273Y-87366218D01*
X58884219Y-87438361D01*
X58754189Y-87529450D01*
X58629710Y-87635222D01*
X58515310Y-87751413D01*
X58415515Y-87873760D01*
X58334852Y-87997999D01*
X58277848Y-88119867D01*
X58271550Y-88137885D01*
X58253993Y-88196425D01*
X58246145Y-88234600D01*
X57163725Y-88234600D01*
X57174750Y-88196512D01*
X57262501Y-87921999D01*
X57363515Y-87650442D01*
X57479390Y-87378613D01*
X57611719Y-87103286D01*
X57762099Y-86821232D01*
X57932125Y-86529225D01*
X58123394Y-86224038D01*
X58231156Y-86059994D01*
X58351437Y-85883937D01*
X58480159Y-85703593D01*
X58614854Y-85521970D01*
X58753055Y-85342077D01*
X58892292Y-85166921D01*
X59030099Y-84999509D01*
X59164007Y-84842851D01*
X59291549Y-84699953D01*
X59410256Y-84573823D01*
X59517661Y-84467471D01*
X59595420Y-84397254D01*
X59712035Y-84308558D01*
X59820618Y-84248448D01*
X59921368Y-84216892D01*
X60014487Y-84213861D01*
X60100175Y-84239322D01*
G37*
X41434000Y-114962000D02*
X47974000Y-114962000D01*
X41434000Y-115292000D02*
X41434000Y-114962000D01*
X41434000Y-117372000D02*
X41434000Y-117702000D01*
X41434000Y-117702000D02*
X47974000Y-117702000D01*
X47974000Y-114962000D02*
X47974000Y-115292000D01*
X47974000Y-117702000D02*
X47974000Y-117372000D01*
X33998959Y-63100000D02*
X35248959Y-63100000D01*
X34623959Y-62475000D02*
X34623959Y-63725000D01*
X40816041Y-60345000D02*
X40816041Y-73005000D01*
X40856041Y-60345000D02*
X40856041Y-73005000D01*
X40896041Y-60345000D02*
X40896041Y-73005000D01*
X40936041Y-60346000D02*
X40936041Y-73004000D01*
X40976041Y-60347000D02*
X40976041Y-73003000D01*
X41016041Y-60348000D02*
X41016041Y-73002000D01*
X41056041Y-60349000D02*
X41056041Y-73001000D01*
X41096041Y-60351000D02*
X41096041Y-72999000D01*
X41136041Y-60353000D02*
X41136041Y-72997000D01*
X41176041Y-60355000D02*
X41176041Y-72995000D01*
X41216041Y-60357000D02*
X41216041Y-72993000D01*
X41256041Y-60360000D02*
X41256041Y-72990000D01*
X41296041Y-60363000D02*
X41296041Y-72987000D01*
X41336041Y-60366000D02*
X41336041Y-72984000D01*
X41376041Y-60369000D02*
X41376041Y-72981000D01*
X41416041Y-60373000D02*
X41416041Y-72977000D01*
X41456041Y-60377000D02*
X41456041Y-72973000D01*
X41496041Y-60381000D02*
X41496041Y-72969000D01*
X41537041Y-60385000D02*
X41537041Y-72965000D01*
X41577041Y-60390000D02*
X41577041Y-72960000D01*
X41617041Y-60395000D02*
X41617041Y-72955000D01*
X41657041Y-60400000D02*
X41657041Y-72950000D01*
X41697041Y-60406000D02*
X41697041Y-72944000D01*
X41737041Y-60411000D02*
X41737041Y-72939000D01*
X41777041Y-60417000D02*
X41777041Y-72933000D01*
X41817041Y-60423000D02*
X41817041Y-72927000D01*
X41857041Y-60430000D02*
X41857041Y-72920000D01*
X41897041Y-60437000D02*
X41897041Y-65235000D01*
X41897041Y-68115000D02*
X41897041Y-72913000D01*
X41937041Y-60444000D02*
X41937041Y-65235000D01*
X41937041Y-68115000D02*
X41937041Y-72906000D01*
X41977041Y-60451000D02*
X41977041Y-65235000D01*
X41977041Y-68115000D02*
X41977041Y-72899000D01*
X42017041Y-60459000D02*
X42017041Y-65235000D01*
X42017041Y-68115000D02*
X42017041Y-72891000D01*
X42057041Y-60466000D02*
X42057041Y-65235000D01*
X42057041Y-68115000D02*
X42057041Y-72884000D01*
X42097041Y-60474000D02*
X42097041Y-65235000D01*
X42097041Y-68115000D02*
X42097041Y-72876000D01*
X42137041Y-60483000D02*
X42137041Y-65235000D01*
X42137041Y-68115000D02*
X42137041Y-72867000D01*
X42177041Y-60491000D02*
X42177041Y-65235000D01*
X42177041Y-68115000D02*
X42177041Y-72859000D01*
X42217041Y-60500000D02*
X42217041Y-65235000D01*
X42217041Y-68115000D02*
X42217041Y-72850000D01*
X42257041Y-60509000D02*
X42257041Y-65235000D01*
X42257041Y-68115000D02*
X42257041Y-72841000D01*
X42297041Y-60519000D02*
X42297041Y-65235000D01*
X42297041Y-68115000D02*
X42297041Y-72831000D01*
X42337041Y-60529000D02*
X42337041Y-65235000D01*
X42337041Y-68115000D02*
X42337041Y-72821000D01*
X42377041Y-60538000D02*
X42377041Y-65235000D01*
X42377041Y-68115000D02*
X42377041Y-72812000D01*
X42417041Y-60549000D02*
X42417041Y-65235000D01*
X42417041Y-68115000D02*
X42417041Y-72801000D01*
X42457041Y-60559000D02*
X42457041Y-65235000D01*
X42457041Y-68115000D02*
X42457041Y-72791000D01*
X42497041Y-60570000D02*
X42497041Y-65235000D01*
X42497041Y-68115000D02*
X42497041Y-72780000D01*
X42537041Y-60581000D02*
X42537041Y-65235000D01*
X42537041Y-68115000D02*
X42537041Y-72769000D01*
X42577041Y-60592000D02*
X42577041Y-65235000D01*
X42577041Y-68115000D02*
X42577041Y-72758000D01*
X42617041Y-60604000D02*
X42617041Y-65235000D01*
X42617041Y-68115000D02*
X42617041Y-72746000D01*
X42657041Y-60616000D02*
X42657041Y-65235000D01*
X42657041Y-68115000D02*
X42657041Y-72734000D01*
X42697041Y-60628000D02*
X42697041Y-65235000D01*
X42697041Y-68115000D02*
X42697041Y-72722000D01*
X42737041Y-60641000D02*
X42737041Y-65235000D01*
X42737041Y-68115000D02*
X42737041Y-72709000D01*
X42777041Y-60654000D02*
X42777041Y-65235000D01*
X42777041Y-68115000D02*
X42777041Y-72696000D01*
X42817041Y-60667000D02*
X42817041Y-65235000D01*
X42817041Y-68115000D02*
X42817041Y-72683000D01*
X42857041Y-60680000D02*
X42857041Y-65235000D01*
X42857041Y-68115000D02*
X42857041Y-72670000D01*
X42897041Y-60694000D02*
X42897041Y-65235000D01*
X42897041Y-68115000D02*
X42897041Y-72656000D01*
X42937041Y-60708000D02*
X42937041Y-65235000D01*
X42937041Y-68115000D02*
X42937041Y-72642000D01*
X42977041Y-60722000D02*
X42977041Y-65235000D01*
X42977041Y-68115000D02*
X42977041Y-72628000D01*
X43017041Y-60736000D02*
X43017041Y-65235000D01*
X43017041Y-68115000D02*
X43017041Y-72614000D01*
X43057041Y-60751000D02*
X43057041Y-65235000D01*
X43057041Y-68115000D02*
X43057041Y-72599000D01*
X43097041Y-60767000D02*
X43097041Y-65235000D01*
X43097041Y-68115000D02*
X43097041Y-72583000D01*
X43137041Y-60782000D02*
X43137041Y-65235000D01*
X43137041Y-68115000D02*
X43137041Y-72568000D01*
X43177041Y-60798000D02*
X43177041Y-65235000D01*
X43177041Y-68115000D02*
X43177041Y-72552000D01*
X43217041Y-60814000D02*
X43217041Y-65235000D01*
X43217041Y-68115000D02*
X43217041Y-72536000D01*
X43257041Y-60830000D02*
X43257041Y-65235000D01*
X43257041Y-68115000D02*
X43257041Y-72520000D01*
X43297041Y-60847000D02*
X43297041Y-65235000D01*
X43297041Y-68115000D02*
X43297041Y-72503000D01*
X43337041Y-60864000D02*
X43337041Y-65235000D01*
X43337041Y-68115000D02*
X43337041Y-72486000D01*
X43377041Y-60882000D02*
X43377041Y-65235000D01*
X43377041Y-68115000D02*
X43377041Y-72468000D01*
X43417041Y-60899000D02*
X43417041Y-65235000D01*
X43417041Y-68115000D02*
X43417041Y-72451000D01*
X43457041Y-60917000D02*
X43457041Y-65235000D01*
X43457041Y-68115000D02*
X43457041Y-72433000D01*
X43497041Y-60936000D02*
X43497041Y-65235000D01*
X43497041Y-68115000D02*
X43497041Y-72414000D01*
X43537041Y-60954000D02*
X43537041Y-65235000D01*
X43537041Y-68115000D02*
X43537041Y-72396000D01*
X43577041Y-60973000D02*
X43577041Y-65235000D01*
X43577041Y-68115000D02*
X43577041Y-72377000D01*
X43617041Y-60993000D02*
X43617041Y-65235000D01*
X43617041Y-68115000D02*
X43617041Y-72357000D01*
X43657041Y-61013000D02*
X43657041Y-65235000D01*
X43657041Y-68115000D02*
X43657041Y-72337000D01*
X43697041Y-61033000D02*
X43697041Y-65235000D01*
X43697041Y-68115000D02*
X43697041Y-72317000D01*
X43737041Y-61053000D02*
X43737041Y-65235000D01*
X43737041Y-68115000D02*
X43737041Y-72297000D01*
X43777041Y-61074000D02*
X43777041Y-65235000D01*
X43777041Y-68115000D02*
X43777041Y-72276000D01*
X43817041Y-61095000D02*
X43817041Y-65235000D01*
X43817041Y-68115000D02*
X43817041Y-72255000D01*
X43857041Y-61117000D02*
X43857041Y-65235000D01*
X43857041Y-68115000D02*
X43857041Y-72233000D01*
X43897041Y-61139000D02*
X43897041Y-65235000D01*
X43897041Y-68115000D02*
X43897041Y-72211000D01*
X43937041Y-61161000D02*
X43937041Y-65235000D01*
X43937041Y-68115000D02*
X43937041Y-72189000D01*
X43977041Y-61184000D02*
X43977041Y-65235000D01*
X43977041Y-68115000D02*
X43977041Y-72166000D01*
X44017041Y-61207000D02*
X44017041Y-65235000D01*
X44017041Y-68115000D02*
X44017041Y-72143000D01*
X44057041Y-61230000D02*
X44057041Y-65235000D01*
X44057041Y-68115000D02*
X44057041Y-72120000D01*
X44097041Y-61254000D02*
X44097041Y-65235000D01*
X44097041Y-68115000D02*
X44097041Y-72096000D01*
X44137041Y-61278000D02*
X44137041Y-65235000D01*
X44137041Y-68115000D02*
X44137041Y-72072000D01*
X44177041Y-61303000D02*
X44177041Y-65235000D01*
X44177041Y-68115000D02*
X44177041Y-72047000D01*
X44217041Y-61328000D02*
X44217041Y-65235000D01*
X44217041Y-68115000D02*
X44217041Y-72022000D01*
X44257041Y-61353000D02*
X44257041Y-65235000D01*
X44257041Y-68115000D02*
X44257041Y-71997000D01*
X44297041Y-61379000D02*
X44297041Y-65235000D01*
X44297041Y-68115000D02*
X44297041Y-71971000D01*
X44337041Y-61405000D02*
X44337041Y-65235000D01*
X44337041Y-68115000D02*
X44337041Y-71945000D01*
X44377041Y-61432000D02*
X44377041Y-65235000D01*
X44377041Y-68115000D02*
X44377041Y-71918000D01*
X44417041Y-61459000D02*
X44417041Y-65235000D01*
X44417041Y-68115000D02*
X44417041Y-71891000D01*
X44457041Y-61487000D02*
X44457041Y-65235000D01*
X44457041Y-68115000D02*
X44457041Y-71863000D01*
X44497041Y-61515000D02*
X44497041Y-65235000D01*
X44497041Y-68115000D02*
X44497041Y-71835000D01*
X44537041Y-61544000D02*
X44537041Y-65235000D01*
X44537041Y-68115000D02*
X44537041Y-71806000D01*
X44577041Y-61573000D02*
X44577041Y-65235000D01*
X44577041Y-68115000D02*
X44577041Y-71777000D01*
X44617041Y-61602000D02*
X44617041Y-65235000D01*
X44617041Y-68115000D02*
X44617041Y-71748000D01*
X44657041Y-61632000D02*
X44657041Y-65235000D01*
X44657041Y-68115000D02*
X44657041Y-71718000D01*
X44697041Y-61663000D02*
X44697041Y-65235000D01*
X44697041Y-68115000D02*
X44697041Y-71687000D01*
X44737041Y-61693000D02*
X44737041Y-65235000D01*
X44737041Y-68115000D02*
X44737041Y-71657000D01*
X44777041Y-61725000D02*
X44777041Y-71625000D01*
X44817041Y-61757000D02*
X44817041Y-71593000D01*
X44857041Y-61790000D02*
X44857041Y-71560000D01*
X44897041Y-61823000D02*
X44897041Y-71527000D01*
X44937041Y-61856000D02*
X44937041Y-71494000D01*
X44977041Y-61890000D02*
X44977041Y-71460000D01*
X45017041Y-61925000D02*
X45017041Y-71425000D01*
X45057041Y-61961000D02*
X45057041Y-71389000D01*
X45097041Y-61997000D02*
X45097041Y-71353000D01*
X45137041Y-62033000D02*
X45137041Y-71317000D01*
X45177041Y-62070000D02*
X45177041Y-71280000D01*
X45217041Y-62108000D02*
X45217041Y-71242000D01*
X45257041Y-62147000D02*
X45257041Y-71203000D01*
X45297041Y-62186000D02*
X45297041Y-71164000D01*
X45337041Y-62226000D02*
X45337041Y-71124000D01*
X45377041Y-62267000D02*
X45377041Y-71083000D01*
X45417041Y-62308000D02*
X45417041Y-71042000D01*
X45457041Y-62350000D02*
X45457041Y-71000000D01*
X45497041Y-62393000D02*
X45497041Y-70957000D01*
X45537041Y-62437000D02*
X45537041Y-70913000D01*
X45577041Y-62481000D02*
X45577041Y-70869000D01*
X45617041Y-62527000D02*
X45617041Y-70823000D01*
X45657041Y-62573000D02*
X45657041Y-70777000D01*
X45697041Y-62620000D02*
X45697041Y-70730000D01*
X45737041Y-62668000D02*
X45737041Y-70682000D01*
X45777041Y-62718000D02*
X45777041Y-70632000D01*
X45817041Y-62768000D02*
X45817041Y-70582000D01*
X45857041Y-62819000D02*
X45857041Y-70531000D01*
X45897041Y-62871000D02*
X45897041Y-70479000D01*
X45937041Y-62925000D02*
X45937041Y-70425000D01*
X45977041Y-62979000D02*
X45977041Y-70371000D01*
X46017041Y-63035000D02*
X46017041Y-70315000D01*
X46057041Y-63092000D02*
X46057041Y-70258000D01*
X46097041Y-63151000D02*
X46097041Y-70199000D01*
X46137041Y-63211000D02*
X46137041Y-70139000D01*
X46177041Y-63273000D02*
X46177041Y-70077000D01*
X46217041Y-63336000D02*
X46217041Y-70014000D01*
X46257041Y-63400000D02*
X46257041Y-69950000D01*
X46297041Y-63467000D02*
X46297041Y-69883000D01*
X46337041Y-63535000D02*
X46337041Y-69815000D01*
X46377041Y-63606000D02*
X46377041Y-69744000D01*
X46417041Y-63679000D02*
X46417041Y-69671000D01*
X46457041Y-63754000D02*
X46457041Y-69596000D01*
X46497041Y-63831000D02*
X46497041Y-69519000D01*
X46537041Y-63911000D02*
X46537041Y-69439000D01*
X46577041Y-63994000D02*
X46577041Y-69356000D01*
X46617041Y-64081000D02*
X46617041Y-69269000D01*
X46657041Y-64171000D02*
X46657041Y-69179000D01*
X46697041Y-64265000D02*
X46697041Y-69085000D01*
X46737041Y-64363000D02*
X46737041Y-68987000D01*
X46777041Y-64466000D02*
X46777041Y-68884000D01*
X46817041Y-64575000D02*
X46817041Y-68775000D01*
X46857041Y-64691000D02*
X46857041Y-68659000D01*
X46897041Y-64814000D02*
X46897041Y-68536000D01*
X46937041Y-64947000D02*
X46937041Y-68403000D01*
X46977041Y-65092000D02*
X46977041Y-68258000D01*
X47017041Y-65253000D02*
X47017041Y-68097000D01*
X47057041Y-65434000D02*
X47057041Y-67916000D01*
X47097041Y-65647000D02*
X47097041Y-67703000D01*
X47137041Y-65918000D02*
X47137041Y-67432000D01*
X47177041Y-66358000D02*
X47177041Y-66992000D01*
X47186041Y-66675000D02*
G75*
G03*
X47186041Y-66675000I-6370000J0D01*
G01*
X54610000Y-65870000D02*
X54610000Y-65000000D01*
X49990000Y-65000000D02*
X59230000Y-65000000D01*
X59230000Y-65000000D02*
X59230000Y-46760000D01*
X49990000Y-46760000D02*
X49990000Y-65000000D01*
X59230000Y-46760000D02*
X49990000Y-46760000D01*
X54610000Y-45890000D02*
X54610000Y-46760000D01*
X50670000Y-118421000D02*
X50670000Y-119087000D01*
X50670000Y-118421000D02*
X56010000Y-118421000D01*
X50670000Y-121197000D02*
X50670000Y-121863000D01*
X50670000Y-121863000D02*
X56010000Y-121863000D01*
X56010000Y-118421000D02*
X56010000Y-119087000D01*
X56010000Y-121197000D02*
X56010000Y-121863000D01*
X35060000Y-114935000D02*
X35060000Y-113935000D01*
X36060000Y-114935000D02*
X35060000Y-114935000D01*
X35560000Y-114300000D02*
X35560000Y-73660000D01*
X76200000Y-114300000D02*
X35560000Y-114300000D01*
X76200000Y-114300000D02*
X76200000Y-73660000D01*
X35560000Y-73660000D02*
X76200000Y-73660000D01*
D12*
X43904000Y-23255500D02*
X65824000Y-23255500D01*
X43904000Y-35255500D02*
X43904000Y-23255500D01*
X65824000Y-23255500D02*
X65824000Y-35255500D01*
X65824000Y-35255500D02*
X43904000Y-35255500D01*
D13*
X47344000Y-36255500D02*
G75*
G03*
X47344000Y-36255500I-100000J0D01*
G01*
D11*
X35560000Y-43410000D02*
X35560000Y-42720000D01*
X33840000Y-42720000D02*
X37280000Y-42720000D01*
X37280000Y-42720000D02*
X37280000Y-33480000D01*
X33840000Y-33480000D02*
X33840000Y-42720000D01*
X37280000Y-33480000D02*
X33840000Y-33480000D01*
X35560000Y-32790000D02*
X35560000Y-33480000D01*
X40640000Y-43410000D02*
X40640000Y-42720000D01*
X38920000Y-42720000D02*
X42360000Y-42720000D01*
X42360000Y-42720000D02*
X42360000Y-33480000D01*
X38920000Y-33480000D02*
X38920000Y-42720000D01*
X42360000Y-33480000D02*
X38920000Y-33480000D01*
X40640000Y-32790000D02*
X40640000Y-33480000D01*
X33862918Y-49765000D02*
X35112918Y-49765000D01*
X34487918Y-49140000D02*
X34487918Y-50390000D01*
X40680000Y-47010000D02*
X40680000Y-59670000D01*
X40720000Y-47010000D02*
X40720000Y-59670000D01*
X40760000Y-47010000D02*
X40760000Y-59670000D01*
X40800000Y-47011000D02*
X40800000Y-59669000D01*
X40840000Y-47012000D02*
X40840000Y-59668000D01*
X40880000Y-47013000D02*
X40880000Y-59667000D01*
X40920000Y-47014000D02*
X40920000Y-59666000D01*
X40960000Y-47016000D02*
X40960000Y-59664000D01*
X41000000Y-47018000D02*
X41000000Y-59662000D01*
X41040000Y-47020000D02*
X41040000Y-59660000D01*
X41080000Y-47022000D02*
X41080000Y-59658000D01*
X41120000Y-47025000D02*
X41120000Y-59655000D01*
X41160000Y-47028000D02*
X41160000Y-59652000D01*
X41200000Y-47031000D02*
X41200000Y-59649000D01*
X41240000Y-47034000D02*
X41240000Y-59646000D01*
X41280000Y-47038000D02*
X41280000Y-59642000D01*
X41320000Y-47042000D02*
X41320000Y-59638000D01*
X41360000Y-47046000D02*
X41360000Y-59634000D01*
X41401000Y-47050000D02*
X41401000Y-59630000D01*
X41441000Y-47055000D02*
X41441000Y-59625000D01*
X41481000Y-47060000D02*
X41481000Y-59620000D01*
X41521000Y-47065000D02*
X41521000Y-59615000D01*
X41561000Y-47071000D02*
X41561000Y-59609000D01*
X41601000Y-47076000D02*
X41601000Y-59604000D01*
X41641000Y-47082000D02*
X41641000Y-59598000D01*
X41681000Y-47088000D02*
X41681000Y-59592000D01*
X41721000Y-47095000D02*
X41721000Y-59585000D01*
X41761000Y-47102000D02*
X41761000Y-51900000D01*
X41761000Y-54780000D02*
X41761000Y-59578000D01*
X41801000Y-47109000D02*
X41801000Y-51900000D01*
X41801000Y-54780000D02*
X41801000Y-59571000D01*
X41841000Y-47116000D02*
X41841000Y-51900000D01*
X41841000Y-54780000D02*
X41841000Y-59564000D01*
X41881000Y-47124000D02*
X41881000Y-51900000D01*
X41881000Y-54780000D02*
X41881000Y-59556000D01*
X41921000Y-47131000D02*
X41921000Y-51900000D01*
X41921000Y-54780000D02*
X41921000Y-59549000D01*
X41961000Y-47139000D02*
X41961000Y-51900000D01*
X41961000Y-54780000D02*
X41961000Y-59541000D01*
X42001000Y-47148000D02*
X42001000Y-51900000D01*
X42001000Y-54780000D02*
X42001000Y-59532000D01*
X42041000Y-47156000D02*
X42041000Y-51900000D01*
X42041000Y-54780000D02*
X42041000Y-59524000D01*
X42081000Y-47165000D02*
X42081000Y-51900000D01*
X42081000Y-54780000D02*
X42081000Y-59515000D01*
X42121000Y-47174000D02*
X42121000Y-51900000D01*
X42121000Y-54780000D02*
X42121000Y-59506000D01*
X42161000Y-47184000D02*
X42161000Y-51900000D01*
X42161000Y-54780000D02*
X42161000Y-59496000D01*
X42201000Y-47194000D02*
X42201000Y-51900000D01*
X42201000Y-54780000D02*
X42201000Y-59486000D01*
X42241000Y-47203000D02*
X42241000Y-51900000D01*
X42241000Y-54780000D02*
X42241000Y-59477000D01*
X42281000Y-47214000D02*
X42281000Y-51900000D01*
X42281000Y-54780000D02*
X42281000Y-59466000D01*
X42321000Y-47224000D02*
X42321000Y-51900000D01*
X42321000Y-54780000D02*
X42321000Y-59456000D01*
X42361000Y-47235000D02*
X42361000Y-51900000D01*
X42361000Y-54780000D02*
X42361000Y-59445000D01*
X42401000Y-47246000D02*
X42401000Y-51900000D01*
X42401000Y-54780000D02*
X42401000Y-59434000D01*
X42441000Y-47257000D02*
X42441000Y-51900000D01*
X42441000Y-54780000D02*
X42441000Y-59423000D01*
X42481000Y-47269000D02*
X42481000Y-51900000D01*
X42481000Y-54780000D02*
X42481000Y-59411000D01*
X42521000Y-47281000D02*
X42521000Y-51900000D01*
X42521000Y-54780000D02*
X42521000Y-59399000D01*
X42561000Y-47293000D02*
X42561000Y-51900000D01*
X42561000Y-54780000D02*
X42561000Y-59387000D01*
X42601000Y-47306000D02*
X42601000Y-51900000D01*
X42601000Y-54780000D02*
X42601000Y-59374000D01*
X42641000Y-47319000D02*
X42641000Y-51900000D01*
X42641000Y-54780000D02*
X42641000Y-59361000D01*
X42681000Y-47332000D02*
X42681000Y-51900000D01*
X42681000Y-54780000D02*
X42681000Y-59348000D01*
X42721000Y-47345000D02*
X42721000Y-51900000D01*
X42721000Y-54780000D02*
X42721000Y-59335000D01*
X42761000Y-47359000D02*
X42761000Y-51900000D01*
X42761000Y-54780000D02*
X42761000Y-59321000D01*
X42801000Y-47373000D02*
X42801000Y-51900000D01*
X42801000Y-54780000D02*
X42801000Y-59307000D01*
X42841000Y-47387000D02*
X42841000Y-51900000D01*
X42841000Y-54780000D02*
X42841000Y-59293000D01*
X42881000Y-47401000D02*
X42881000Y-51900000D01*
X42881000Y-54780000D02*
X42881000Y-59279000D01*
X42921000Y-47416000D02*
X42921000Y-51900000D01*
X42921000Y-54780000D02*
X42921000Y-59264000D01*
X42961000Y-47432000D02*
X42961000Y-51900000D01*
X42961000Y-54780000D02*
X42961000Y-59248000D01*
X43001000Y-47447000D02*
X43001000Y-51900000D01*
X43001000Y-54780000D02*
X43001000Y-59233000D01*
X43041000Y-47463000D02*
X43041000Y-51900000D01*
X43041000Y-54780000D02*
X43041000Y-59217000D01*
X43081000Y-47479000D02*
X43081000Y-51900000D01*
X43081000Y-54780000D02*
X43081000Y-59201000D01*
X43121000Y-47495000D02*
X43121000Y-51900000D01*
X43121000Y-54780000D02*
X43121000Y-59185000D01*
X43161000Y-47512000D02*
X43161000Y-51900000D01*
X43161000Y-54780000D02*
X43161000Y-59168000D01*
X43201000Y-47529000D02*
X43201000Y-51900000D01*
X43201000Y-54780000D02*
X43201000Y-59151000D01*
X43241000Y-47547000D02*
X43241000Y-51900000D01*
X43241000Y-54780000D02*
X43241000Y-59133000D01*
X43281000Y-47564000D02*
X43281000Y-51900000D01*
X43281000Y-54780000D02*
X43281000Y-59116000D01*
X43321000Y-47582000D02*
X43321000Y-51900000D01*
X43321000Y-54780000D02*
X43321000Y-59098000D01*
X43361000Y-47601000D02*
X43361000Y-51900000D01*
X43361000Y-54780000D02*
X43361000Y-59079000D01*
X43401000Y-47619000D02*
X43401000Y-51900000D01*
X43401000Y-54780000D02*
X43401000Y-59061000D01*
X43441000Y-47638000D02*
X43441000Y-51900000D01*
X43441000Y-54780000D02*
X43441000Y-59042000D01*
X43481000Y-47658000D02*
X43481000Y-51900000D01*
X43481000Y-54780000D02*
X43481000Y-59022000D01*
X43521000Y-47678000D02*
X43521000Y-51900000D01*
X43521000Y-54780000D02*
X43521000Y-59002000D01*
X43561000Y-47698000D02*
X43561000Y-51900000D01*
X43561000Y-54780000D02*
X43561000Y-58982000D01*
X43601000Y-47718000D02*
X43601000Y-51900000D01*
X43601000Y-54780000D02*
X43601000Y-58962000D01*
X43641000Y-47739000D02*
X43641000Y-51900000D01*
X43641000Y-54780000D02*
X43641000Y-58941000D01*
X43681000Y-47760000D02*
X43681000Y-51900000D01*
X43681000Y-54780000D02*
X43681000Y-58920000D01*
X43721000Y-47782000D02*
X43721000Y-51900000D01*
X43721000Y-54780000D02*
X43721000Y-58898000D01*
X43761000Y-47804000D02*
X43761000Y-51900000D01*
X43761000Y-54780000D02*
X43761000Y-58876000D01*
X43801000Y-47826000D02*
X43801000Y-51900000D01*
X43801000Y-54780000D02*
X43801000Y-58854000D01*
X43841000Y-47849000D02*
X43841000Y-51900000D01*
X43841000Y-54780000D02*
X43841000Y-58831000D01*
X43881000Y-47872000D02*
X43881000Y-51900000D01*
X43881000Y-54780000D02*
X43881000Y-58808000D01*
X43921000Y-47895000D02*
X43921000Y-51900000D01*
X43921000Y-54780000D02*
X43921000Y-58785000D01*
X43961000Y-47919000D02*
X43961000Y-51900000D01*
X43961000Y-54780000D02*
X43961000Y-58761000D01*
X44001000Y-47943000D02*
X44001000Y-51900000D01*
X44001000Y-54780000D02*
X44001000Y-58737000D01*
X44041000Y-47968000D02*
X44041000Y-51900000D01*
X44041000Y-54780000D02*
X44041000Y-58712000D01*
X44081000Y-47993000D02*
X44081000Y-51900000D01*
X44081000Y-54780000D02*
X44081000Y-58687000D01*
X44121000Y-48018000D02*
X44121000Y-51900000D01*
X44121000Y-54780000D02*
X44121000Y-58662000D01*
X44161000Y-48044000D02*
X44161000Y-51900000D01*
X44161000Y-54780000D02*
X44161000Y-58636000D01*
X44201000Y-48070000D02*
X44201000Y-51900000D01*
X44201000Y-54780000D02*
X44201000Y-58610000D01*
X44241000Y-48097000D02*
X44241000Y-51900000D01*
X44241000Y-54780000D02*
X44241000Y-58583000D01*
X44281000Y-48124000D02*
X44281000Y-51900000D01*
X44281000Y-54780000D02*
X44281000Y-58556000D01*
X44321000Y-48152000D02*
X44321000Y-51900000D01*
X44321000Y-54780000D02*
X44321000Y-58528000D01*
X44361000Y-48180000D02*
X44361000Y-51900000D01*
X44361000Y-54780000D02*
X44361000Y-58500000D01*
X44401000Y-48209000D02*
X44401000Y-51900000D01*
X44401000Y-54780000D02*
X44401000Y-58471000D01*
X44441000Y-48238000D02*
X44441000Y-51900000D01*
X44441000Y-54780000D02*
X44441000Y-58442000D01*
X44481000Y-48267000D02*
X44481000Y-51900000D01*
X44481000Y-54780000D02*
X44481000Y-58413000D01*
X44521000Y-48297000D02*
X44521000Y-51900000D01*
X44521000Y-54780000D02*
X44521000Y-58383000D01*
X44561000Y-48328000D02*
X44561000Y-51900000D01*
X44561000Y-54780000D02*
X44561000Y-58352000D01*
X44601000Y-48358000D02*
X44601000Y-51900000D01*
X44601000Y-54780000D02*
X44601000Y-58322000D01*
X44641000Y-48390000D02*
X44641000Y-58290000D01*
X44681000Y-48422000D02*
X44681000Y-58258000D01*
X44721000Y-48455000D02*
X44721000Y-58225000D01*
X44761000Y-48488000D02*
X44761000Y-58192000D01*
X44801000Y-48521000D02*
X44801000Y-58159000D01*
X44841000Y-48555000D02*
X44841000Y-58125000D01*
X44881000Y-48590000D02*
X44881000Y-58090000D01*
X44921000Y-48626000D02*
X44921000Y-58054000D01*
X44961000Y-48662000D02*
X44961000Y-58018000D01*
X45001000Y-48698000D02*
X45001000Y-57982000D01*
X45041000Y-48735000D02*
X45041000Y-57945000D01*
X45081000Y-48773000D02*
X45081000Y-57907000D01*
X45121000Y-48812000D02*
X45121000Y-57868000D01*
X45161000Y-48851000D02*
X45161000Y-57829000D01*
X45201000Y-48891000D02*
X45201000Y-57789000D01*
X45241000Y-48932000D02*
X45241000Y-57748000D01*
X45281000Y-48973000D02*
X45281000Y-57707000D01*
X45321000Y-49015000D02*
X45321000Y-57665000D01*
X45361000Y-49058000D02*
X45361000Y-57622000D01*
X45401000Y-49102000D02*
X45401000Y-57578000D01*
X45441000Y-49146000D02*
X45441000Y-57534000D01*
X45481000Y-49192000D02*
X45481000Y-57488000D01*
X45521000Y-49238000D02*
X45521000Y-57442000D01*
X45561000Y-49285000D02*
X45561000Y-57395000D01*
X45601000Y-49333000D02*
X45601000Y-57347000D01*
X45641000Y-49383000D02*
X45641000Y-57297000D01*
X45681000Y-49433000D02*
X45681000Y-57247000D01*
X45721000Y-49484000D02*
X45721000Y-57196000D01*
X45761000Y-49536000D02*
X45761000Y-57144000D01*
X45801000Y-49590000D02*
X45801000Y-57090000D01*
X45841000Y-49644000D02*
X45841000Y-57036000D01*
X45881000Y-49700000D02*
X45881000Y-56980000D01*
X45921000Y-49757000D02*
X45921000Y-56923000D01*
X45961000Y-49816000D02*
X45961000Y-56864000D01*
X46001000Y-49876000D02*
X46001000Y-56804000D01*
X46041000Y-49938000D02*
X46041000Y-56742000D01*
X46081000Y-50001000D02*
X46081000Y-56679000D01*
X46121000Y-50065000D02*
X46121000Y-56615000D01*
X46161000Y-50132000D02*
X46161000Y-56548000D01*
X46201000Y-50200000D02*
X46201000Y-56480000D01*
X46241000Y-50271000D02*
X46241000Y-56409000D01*
X46281000Y-50344000D02*
X46281000Y-56336000D01*
X46321000Y-50419000D02*
X46321000Y-56261000D01*
X46361000Y-50496000D02*
X46361000Y-56184000D01*
X46401000Y-50576000D02*
X46401000Y-56104000D01*
X46441000Y-50659000D02*
X46441000Y-56021000D01*
X46481000Y-50746000D02*
X46481000Y-55934000D01*
X46521000Y-50836000D02*
X46521000Y-55844000D01*
X46561000Y-50930000D02*
X46561000Y-55750000D01*
X46601000Y-51028000D02*
X46601000Y-55652000D01*
X46641000Y-51131000D02*
X46641000Y-55549000D01*
X46681000Y-51240000D02*
X46681000Y-55440000D01*
X46721000Y-51356000D02*
X46721000Y-55324000D01*
X46761000Y-51479000D02*
X46761000Y-55201000D01*
X46801000Y-51612000D02*
X46801000Y-55068000D01*
X46841000Y-51757000D02*
X46841000Y-54923000D01*
X46881000Y-51918000D02*
X46881000Y-54762000D01*
X46921000Y-52099000D02*
X46921000Y-54581000D01*
X46961000Y-52312000D02*
X46961000Y-54368000D01*
X47001000Y-52583000D02*
X47001000Y-54097000D01*
X47041000Y-53023000D02*
X47041000Y-53657000D01*
X47050000Y-53340000D02*
G75*
G03*
X47050000Y-53340000I-6370000J0D01*
G01*
X50670000Y-114611000D02*
X50670000Y-115277000D01*
X50670000Y-114611000D02*
X56010000Y-114611000D01*
X50670000Y-117387000D02*
X50670000Y-118053000D01*
X50670000Y-118053000D02*
X56010000Y-118053000D01*
X56010000Y-114611000D02*
X56010000Y-115277000D01*
X56010000Y-117387000D02*
X56010000Y-118053000D01*
X66040000Y-65870000D02*
X66040000Y-65000000D01*
X61420000Y-65000000D02*
X70660000Y-65000000D01*
X70660000Y-65000000D02*
X70660000Y-46760000D01*
X61420000Y-46760000D02*
X61420000Y-65000000D01*
X70660000Y-46760000D02*
X61420000Y-46760000D01*
X66040000Y-45890000D02*
X66040000Y-46760000D01*
M02*
