M48
; DRILL file {KiCad 7.0.2} date Sun Jun  4 18:47:54 2023
; FORMAT={-:-/ absolute / inch / decimal}
; #@! TF.CreationDate,2023-06-04T18:47:54-07:00
; #@! TF.GenerationSoftware,Kicad,Pcbnew,7.0.2
; #@! TF.FileFunction,Plated,1,2,PTH
FMAT,2
INCH
; #@! TA.AperFunction,Plated,PTH,ComponentDrill
T1C0.0315
; #@! TA.AperFunction,Plated,PTH,ComponentDrill
T2C0.0394
; #@! TA.AperFunction,Plated,PTH,ComponentDrill
T3C0.0472
; #@! TA.AperFunction,Plated,PTH,ComponentDrill
T4C0.0669
; #@! TA.AperFunction,Plated,PTH,ComponentDrill
T5C0.1260
%
G90
G05
T1
X1.4Y-1.25
X1.4Y-1.75
X1.6Y-1.25
X1.6Y-1.75
X1.61Y-4.58
X1.91Y-4.58
X2.0016Y-4.58
X2.0016Y-4.73
X2.1984Y-4.58
X2.1984Y-4.73
T2
X2.35Y-4.58
X2.35Y-4.68
X2.45Y-4.58
X2.45Y-4.68
X2.55Y-4.58
X2.55Y-4.68
X2.65Y-4.58
X2.65Y-4.68
T3
X1.5Y-3.0
X1.5Y-4.4
X1.5031Y-2.1
X1.5085Y-2.625
X1.7Y-2.1
X1.7Y-4.4
X1.7054Y-2.625
X1.9Y-4.4
X2.1Y-4.4
X2.15Y-1.75
X2.15Y-2.65
X2.3Y-4.4
X2.5Y-4.4
X2.6Y-1.75
X2.6Y-2.65
X2.7Y-4.4
X2.9Y-3.0
X2.9Y-4.4
T4
X1.86Y-1.3093
X2.06Y-1.3093
X2.26Y-1.3093
X2.46Y-1.3093
T5
X1.44Y-1.04
X1.44Y-4.69
X2.91Y-1.04
X2.91Y-4.69
T0
M30
