G04 #@! TF.GenerationSoftware,KiCad,Pcbnew,8.0.1*
G04 #@! TF.CreationDate,2024-04-06T08:34:46-07:00*
G04 #@! TF.ProjectId,pbx_ring_gen,7062785f-7269-46e6-975f-67656e2e6b69,3*
G04 #@! TF.SameCoordinates,Original*
G04 #@! TF.FileFunction,Soldermask,Bot*
G04 #@! TF.FilePolarity,Negative*
%FSLAX46Y46*%
G04 Gerber Fmt 4.6, Leading zero omitted, Abs format (unit mm)*
G04 Created by KiCad (PCBNEW 8.0.1) date 2024-04-06 08:34:46*
%MOMM*%
%LPD*%
G01*
G04 APERTURE LIST*
%ADD10R,1.700000X1.700000*%
%ADD11O,1.700000X1.700000*%
%ADD12C,1.600000*%
%ADD13O,1.600000X1.600000*%
%ADD14C,6.400000*%
%ADD15R,2.400000X2.400000*%
%ADD16C,2.400000*%
%ADD17O,2.400000X2.400000*%
%ADD18R,2.550000X2.550000*%
%ADD19C,2.550000*%
%ADD20R,1.500000X1.000000*%
G04 APERTURE END LIST*
D10*
X156972000Y-136906000D03*
D11*
X156972000Y-139446000D03*
X154432000Y-136906000D03*
X154432000Y-139446000D03*
X151892000Y-136906000D03*
X151892000Y-139446000D03*
X149352000Y-136906000D03*
X149352000Y-139446000D03*
D12*
X168148000Y-137922000D03*
D13*
X160528000Y-137922000D03*
D14*
X135636000Y-46736000D03*
D15*
X171233959Y-86995000D03*
D16*
X166233959Y-86995000D03*
X148590000Y-86360000D03*
D17*
X148590000Y-63500000D03*
D12*
X140248000Y-140970000D03*
X145248000Y-140970000D03*
D14*
X172974000Y-139446000D03*
D15*
X172085000Y-132080000D03*
D16*
X167640000Y-132080000D03*
X162560000Y-132080000D03*
X157480000Y-132080000D03*
X152400000Y-132080000D03*
X147320000Y-132080000D03*
X142240000Y-132080000D03*
X137160000Y-132080000D03*
X137160000Y-96520000D03*
X172720000Y-96520000D03*
D18*
X146304000Y-52070000D03*
D19*
X151384000Y-52070000D03*
X156464000Y-52070000D03*
X161544000Y-52070000D03*
D14*
X135636000Y-139446000D03*
D12*
X172720000Y-66040000D03*
D13*
X172720000Y-53340000D03*
D12*
X167640000Y-66040000D03*
D13*
X167640000Y-53340000D03*
D14*
X172974000Y-46736000D03*
D15*
X171450000Y-73660000D03*
D16*
X166450000Y-73660000D03*
D12*
X140248000Y-136906000D03*
X145248000Y-136906000D03*
D16*
X138430000Y-86360000D03*
D17*
X138430000Y-63500000D03*
D20*
X138430000Y-78740000D03*
X138430000Y-77440000D03*
M02*
