G04 #@! TF.GenerationSoftware,KiCad,Pcbnew,7.0.5*
G04 #@! TF.CreationDate,2023-06-17T17:36:06-07:00*
G04 #@! TF.ProjectId,pbx_ring_gen,7062785f-7269-46e6-975f-67656e2e6b69,2*
G04 #@! TF.SameCoordinates,Original*
G04 #@! TF.FileFunction,Copper,L1,Top*
G04 #@! TF.FilePolarity,Positive*
%FSLAX46Y46*%
G04 Gerber Fmt 4.6, Leading zero omitted, Abs format (unit mm)*
G04 Created by KiCad (PCBNEW 7.0.5) date 2023-06-17 17:36:06*
%MOMM*%
%LPD*%
G01*
G04 APERTURE LIST*
G04 #@! TA.AperFunction,ComponentPad*
%ADD10C,2.400000*%
G04 #@! TD*
G04 #@! TA.AperFunction,ComponentPad*
%ADD11R,2.400000X2.400000*%
G04 #@! TD*
G04 #@! TA.AperFunction,ComponentPad*
%ADD12R,2.550000X2.550000*%
G04 #@! TD*
G04 #@! TA.AperFunction,ComponentPad*
%ADD13C,2.550000*%
G04 #@! TD*
G04 #@! TA.AperFunction,ComponentPad*
%ADD14C,6.400000*%
G04 #@! TD*
G04 #@! TA.AperFunction,ComponentPad*
%ADD15C,1.600000*%
G04 #@! TD*
G04 #@! TA.AperFunction,ComponentPad*
%ADD16O,1.600000X1.600000*%
G04 #@! TD*
G04 #@! TA.AperFunction,ComponentPad*
%ADD17R,1.700000X1.700000*%
G04 #@! TD*
G04 #@! TA.AperFunction,ComponentPad*
%ADD18O,1.700000X1.700000*%
G04 #@! TD*
G04 #@! TA.AperFunction,ComponentPad*
%ADD19O,2.400000X2.400000*%
G04 #@! TD*
G04 #@! TA.AperFunction,Conductor*
%ADD20C,1.000000*%
G04 #@! TD*
G04 APERTURE END LIST*
D10*
X172720000Y-96520000D03*
X137160000Y-96520000D03*
X137160000Y-132080000D03*
X142240000Y-132080000D03*
X147320000Y-132080000D03*
X152400000Y-132080000D03*
X157480000Y-132080000D03*
X162560000Y-132080000D03*
X167640000Y-132080000D03*
D11*
X172085000Y-132080000D03*
X171233959Y-86995000D03*
D10*
X166233959Y-86995000D03*
D12*
X146304000Y-53575500D03*
D13*
X151384000Y-53575500D03*
X156464000Y-53575500D03*
X161544000Y-53575500D03*
D14*
X135636000Y-139446000D03*
D15*
X172720000Y-66040000D03*
D16*
X172720000Y-53340000D03*
D15*
X167640000Y-66040000D03*
D16*
X167640000Y-53340000D03*
D14*
X172974000Y-46736000D03*
D11*
X171450000Y-73660000D03*
D10*
X166450000Y-73660000D03*
D17*
X156972000Y-136906000D03*
D18*
X156972000Y-139446000D03*
X154432000Y-136906000D03*
X154432000Y-139446000D03*
X151892000Y-136906000D03*
X151892000Y-139446000D03*
X149352000Y-136906000D03*
X149352000Y-139446000D03*
D15*
X168148000Y-137922000D03*
D16*
X160528000Y-137922000D03*
D14*
X135636000Y-46736000D03*
D10*
X138430000Y-86360000D03*
D19*
X138430000Y-63500000D03*
D15*
X140248000Y-136906000D03*
X145248000Y-136906000D03*
D14*
X172974000Y-139446000D03*
D10*
X148590000Y-86360000D03*
D19*
X148590000Y-63500000D03*
D15*
X140248000Y-140970000D03*
X145248000Y-140970000D03*
D20*
X151892000Y-136906000D02*
X156972000Y-136906000D01*
X149352000Y-139446000D02*
X151892000Y-139446000D01*
X160528000Y-139446000D02*
X160528000Y-137922000D01*
X151892000Y-139446000D02*
X153924000Y-141478000D01*
X158496000Y-141478000D02*
X160528000Y-139446000D01*
X153924000Y-141478000D02*
X158496000Y-141478000D01*
X171233959Y-86143959D02*
X148590000Y-63500000D01*
X171233959Y-86995000D02*
X171233959Y-86143959D01*
X145248000Y-136906000D02*
X146411000Y-136906000D01*
X146411000Y-136906000D02*
X151237000Y-132080000D01*
X151237000Y-132080000D02*
X152400000Y-132080000D01*
X172085000Y-132080000D02*
X169545000Y-134620000D01*
X169545000Y-134620000D02*
X151638000Y-134620000D01*
X151638000Y-134620000D02*
X149352000Y-136906000D01*
M02*
