G04 #@! TF.GenerationSoftware,KiCad,Pcbnew,8.0.1*
G04 #@! TF.CreationDate,2024-03-23T11:28:12-07:00*
G04 #@! TF.ProjectId,pbx_ring_gen,7062785f-7269-46e6-975f-67656e2e6b69,2*
G04 #@! TF.SameCoordinates,Original*
G04 #@! TF.FileFunction,Legend,Top*
G04 #@! TF.FilePolarity,Positive*
%FSLAX46Y46*%
G04 Gerber Fmt 4.6, Leading zero omitted, Abs format (unit mm)*
G04 Created by KiCad (PCBNEW 8.0.1) date 2024-03-23 11:28:12*
%MOMM*%
%LPD*%
G01*
G04 APERTURE LIST*
%ADD10C,0.150000*%
%ADD11C,0.120000*%
%ADD12C,0.000000*%
%ADD13C,0.127000*%
%ADD14C,0.200000*%
G04 APERTURE END LIST*
D10*
X137496779Y-89359931D02*
X137496779Y-88359931D01*
X137496779Y-88359931D02*
X137877731Y-88359931D01*
X137877731Y-88359931D02*
X137972969Y-88407550D01*
X137972969Y-88407550D02*
X138020588Y-88455169D01*
X138020588Y-88455169D02*
X138068207Y-88550407D01*
X138068207Y-88550407D02*
X138068207Y-88693264D01*
X138068207Y-88693264D02*
X138020588Y-88788502D01*
X138020588Y-88788502D02*
X137972969Y-88836121D01*
X137972969Y-88836121D02*
X137877731Y-88883740D01*
X137877731Y-88883740D02*
X137496779Y-88883740D01*
X138830112Y-88836121D02*
X138972969Y-88883740D01*
X138972969Y-88883740D02*
X139020588Y-88931359D01*
X139020588Y-88931359D02*
X139068207Y-89026597D01*
X139068207Y-89026597D02*
X139068207Y-89169454D01*
X139068207Y-89169454D02*
X139020588Y-89264692D01*
X139020588Y-89264692D02*
X138972969Y-89312312D01*
X138972969Y-89312312D02*
X138877731Y-89359931D01*
X138877731Y-89359931D02*
X138496779Y-89359931D01*
X138496779Y-89359931D02*
X138496779Y-88359931D01*
X138496779Y-88359931D02*
X138830112Y-88359931D01*
X138830112Y-88359931D02*
X138925350Y-88407550D01*
X138925350Y-88407550D02*
X138972969Y-88455169D01*
X138972969Y-88455169D02*
X139020588Y-88550407D01*
X139020588Y-88550407D02*
X139020588Y-88645645D01*
X139020588Y-88645645D02*
X138972969Y-88740883D01*
X138972969Y-88740883D02*
X138925350Y-88788502D01*
X138925350Y-88788502D02*
X138830112Y-88836121D01*
X138830112Y-88836121D02*
X138496779Y-88836121D01*
X139401541Y-88359931D02*
X140068207Y-89359931D01*
X140068207Y-88359931D02*
X139401541Y-89359931D01*
X141782493Y-89359931D02*
X141449160Y-88883740D01*
X141211065Y-89359931D02*
X141211065Y-88359931D01*
X141211065Y-88359931D02*
X141592017Y-88359931D01*
X141592017Y-88359931D02*
X141687255Y-88407550D01*
X141687255Y-88407550D02*
X141734874Y-88455169D01*
X141734874Y-88455169D02*
X141782493Y-88550407D01*
X141782493Y-88550407D02*
X141782493Y-88693264D01*
X141782493Y-88693264D02*
X141734874Y-88788502D01*
X141734874Y-88788502D02*
X141687255Y-88836121D01*
X141687255Y-88836121D02*
X141592017Y-88883740D01*
X141592017Y-88883740D02*
X141211065Y-88883740D01*
X142211065Y-89359931D02*
X142211065Y-88693264D01*
X142211065Y-88359931D02*
X142163446Y-88407550D01*
X142163446Y-88407550D02*
X142211065Y-88455169D01*
X142211065Y-88455169D02*
X142258684Y-88407550D01*
X142258684Y-88407550D02*
X142211065Y-88359931D01*
X142211065Y-88359931D02*
X142211065Y-88455169D01*
X142687255Y-88693264D02*
X142687255Y-89359931D01*
X142687255Y-88788502D02*
X142734874Y-88740883D01*
X142734874Y-88740883D02*
X142830112Y-88693264D01*
X142830112Y-88693264D02*
X142972969Y-88693264D01*
X142972969Y-88693264D02*
X143068207Y-88740883D01*
X143068207Y-88740883D02*
X143115826Y-88836121D01*
X143115826Y-88836121D02*
X143115826Y-89359931D01*
X144020588Y-88693264D02*
X144020588Y-89502788D01*
X144020588Y-89502788D02*
X143972969Y-89598026D01*
X143972969Y-89598026D02*
X143925350Y-89645645D01*
X143925350Y-89645645D02*
X143830112Y-89693264D01*
X143830112Y-89693264D02*
X143687255Y-89693264D01*
X143687255Y-89693264D02*
X143592017Y-89645645D01*
X144020588Y-89312312D02*
X143925350Y-89359931D01*
X143925350Y-89359931D02*
X143734874Y-89359931D01*
X143734874Y-89359931D02*
X143639636Y-89312312D01*
X143639636Y-89312312D02*
X143592017Y-89264692D01*
X143592017Y-89264692D02*
X143544398Y-89169454D01*
X143544398Y-89169454D02*
X143544398Y-88883740D01*
X143544398Y-88883740D02*
X143592017Y-88788502D01*
X143592017Y-88788502D02*
X143639636Y-88740883D01*
X143639636Y-88740883D02*
X143734874Y-88693264D01*
X143734874Y-88693264D02*
X143925350Y-88693264D01*
X143925350Y-88693264D02*
X144020588Y-88740883D01*
X145782493Y-88407550D02*
X145687255Y-88359931D01*
X145687255Y-88359931D02*
X145544398Y-88359931D01*
X145544398Y-88359931D02*
X145401541Y-88407550D01*
X145401541Y-88407550D02*
X145306303Y-88502788D01*
X145306303Y-88502788D02*
X145258684Y-88598026D01*
X145258684Y-88598026D02*
X145211065Y-88788502D01*
X145211065Y-88788502D02*
X145211065Y-88931359D01*
X145211065Y-88931359D02*
X145258684Y-89121835D01*
X145258684Y-89121835D02*
X145306303Y-89217073D01*
X145306303Y-89217073D02*
X145401541Y-89312312D01*
X145401541Y-89312312D02*
X145544398Y-89359931D01*
X145544398Y-89359931D02*
X145639636Y-89359931D01*
X145639636Y-89359931D02*
X145782493Y-89312312D01*
X145782493Y-89312312D02*
X145830112Y-89264692D01*
X145830112Y-89264692D02*
X145830112Y-88931359D01*
X145830112Y-88931359D02*
X145639636Y-88931359D01*
X146639636Y-89312312D02*
X146544398Y-89359931D01*
X146544398Y-89359931D02*
X146353922Y-89359931D01*
X146353922Y-89359931D02*
X146258684Y-89312312D01*
X146258684Y-89312312D02*
X146211065Y-89217073D01*
X146211065Y-89217073D02*
X146211065Y-88836121D01*
X146211065Y-88836121D02*
X146258684Y-88740883D01*
X146258684Y-88740883D02*
X146353922Y-88693264D01*
X146353922Y-88693264D02*
X146544398Y-88693264D01*
X146544398Y-88693264D02*
X146639636Y-88740883D01*
X146639636Y-88740883D02*
X146687255Y-88836121D01*
X146687255Y-88836121D02*
X146687255Y-88931359D01*
X146687255Y-88931359D02*
X146211065Y-89026597D01*
X147115827Y-88693264D02*
X147115827Y-89359931D01*
X147115827Y-88788502D02*
X147163446Y-88740883D01*
X147163446Y-88740883D02*
X147258684Y-88693264D01*
X147258684Y-88693264D02*
X147401541Y-88693264D01*
X147401541Y-88693264D02*
X147496779Y-88740883D01*
X147496779Y-88740883D02*
X147544398Y-88836121D01*
X147544398Y-88836121D02*
X147544398Y-89359931D01*
X148401541Y-89312312D02*
X148306303Y-89359931D01*
X148306303Y-89359931D02*
X148115827Y-89359931D01*
X148115827Y-89359931D02*
X148020589Y-89312312D01*
X148020589Y-89312312D02*
X147972970Y-89217073D01*
X147972970Y-89217073D02*
X147972970Y-88836121D01*
X147972970Y-88836121D02*
X148020589Y-88740883D01*
X148020589Y-88740883D02*
X148115827Y-88693264D01*
X148115827Y-88693264D02*
X148306303Y-88693264D01*
X148306303Y-88693264D02*
X148401541Y-88740883D01*
X148401541Y-88740883D02*
X148449160Y-88836121D01*
X148449160Y-88836121D02*
X148449160Y-88931359D01*
X148449160Y-88931359D02*
X147972970Y-89026597D01*
X148877732Y-89359931D02*
X148877732Y-88693264D01*
X148877732Y-88883740D02*
X148925351Y-88788502D01*
X148925351Y-88788502D02*
X148972970Y-88740883D01*
X148972970Y-88740883D02*
X149068208Y-88693264D01*
X149068208Y-88693264D02*
X149163446Y-88693264D01*
X149925351Y-89359931D02*
X149925351Y-88836121D01*
X149925351Y-88836121D02*
X149877732Y-88740883D01*
X149877732Y-88740883D02*
X149782494Y-88693264D01*
X149782494Y-88693264D02*
X149592018Y-88693264D01*
X149592018Y-88693264D02*
X149496780Y-88740883D01*
X149925351Y-89312312D02*
X149830113Y-89359931D01*
X149830113Y-89359931D02*
X149592018Y-89359931D01*
X149592018Y-89359931D02*
X149496780Y-89312312D01*
X149496780Y-89312312D02*
X149449161Y-89217073D01*
X149449161Y-89217073D02*
X149449161Y-89121835D01*
X149449161Y-89121835D02*
X149496780Y-89026597D01*
X149496780Y-89026597D02*
X149592018Y-88978978D01*
X149592018Y-88978978D02*
X149830113Y-88978978D01*
X149830113Y-88978978D02*
X149925351Y-88931359D01*
X150258685Y-88693264D02*
X150639637Y-88693264D01*
X150401542Y-88359931D02*
X150401542Y-89217073D01*
X150401542Y-89217073D02*
X150449161Y-89312312D01*
X150449161Y-89312312D02*
X150544399Y-89359931D01*
X150544399Y-89359931D02*
X150639637Y-89359931D01*
X151115828Y-89359931D02*
X151020590Y-89312312D01*
X151020590Y-89312312D02*
X150972971Y-89264692D01*
X150972971Y-89264692D02*
X150925352Y-89169454D01*
X150925352Y-89169454D02*
X150925352Y-88883740D01*
X150925352Y-88883740D02*
X150972971Y-88788502D01*
X150972971Y-88788502D02*
X151020590Y-88740883D01*
X151020590Y-88740883D02*
X151115828Y-88693264D01*
X151115828Y-88693264D02*
X151258685Y-88693264D01*
X151258685Y-88693264D02*
X151353923Y-88740883D01*
X151353923Y-88740883D02*
X151401542Y-88788502D01*
X151401542Y-88788502D02*
X151449161Y-88883740D01*
X151449161Y-88883740D02*
X151449161Y-89169454D01*
X151449161Y-89169454D02*
X151401542Y-89264692D01*
X151401542Y-89264692D02*
X151353923Y-89312312D01*
X151353923Y-89312312D02*
X151258685Y-89359931D01*
X151258685Y-89359931D02*
X151115828Y-89359931D01*
X151877733Y-89359931D02*
X151877733Y-88693264D01*
X151877733Y-88883740D02*
X151925352Y-88788502D01*
X151925352Y-88788502D02*
X151972971Y-88740883D01*
X151972971Y-88740883D02*
X152068209Y-88693264D01*
X152068209Y-88693264D02*
X152163447Y-88693264D01*
X137925350Y-90303208D02*
X137925350Y-91112732D01*
X137925350Y-91112732D02*
X137877731Y-91207970D01*
X137877731Y-91207970D02*
X137830112Y-91255589D01*
X137830112Y-91255589D02*
X137734874Y-91303208D01*
X137734874Y-91303208D02*
X137592017Y-91303208D01*
X137592017Y-91303208D02*
X137496779Y-91255589D01*
X137925350Y-90922256D02*
X137830112Y-90969875D01*
X137830112Y-90969875D02*
X137639636Y-90969875D01*
X137639636Y-90969875D02*
X137544398Y-90922256D01*
X137544398Y-90922256D02*
X137496779Y-90874636D01*
X137496779Y-90874636D02*
X137449160Y-90779398D01*
X137449160Y-90779398D02*
X137449160Y-90493684D01*
X137449160Y-90493684D02*
X137496779Y-90398446D01*
X137496779Y-90398446D02*
X137544398Y-90350827D01*
X137544398Y-90350827D02*
X137639636Y-90303208D01*
X137639636Y-90303208D02*
X137830112Y-90303208D01*
X137830112Y-90303208D02*
X137925350Y-90350827D01*
X138401541Y-90969875D02*
X138401541Y-90303208D01*
X138401541Y-89969875D02*
X138353922Y-90017494D01*
X138353922Y-90017494D02*
X138401541Y-90065113D01*
X138401541Y-90065113D02*
X138449160Y-90017494D01*
X138449160Y-90017494D02*
X138401541Y-89969875D01*
X138401541Y-89969875D02*
X138401541Y-90065113D01*
X138734874Y-90303208D02*
X139115826Y-90303208D01*
X138877731Y-89969875D02*
X138877731Y-90827017D01*
X138877731Y-90827017D02*
X138925350Y-90922256D01*
X138925350Y-90922256D02*
X139020588Y-90969875D01*
X139020588Y-90969875D02*
X139115826Y-90969875D01*
X139449160Y-90969875D02*
X139449160Y-89969875D01*
X139877731Y-90969875D02*
X139877731Y-90446065D01*
X139877731Y-90446065D02*
X139830112Y-90350827D01*
X139830112Y-90350827D02*
X139734874Y-90303208D01*
X139734874Y-90303208D02*
X139592017Y-90303208D01*
X139592017Y-90303208D02*
X139496779Y-90350827D01*
X139496779Y-90350827D02*
X139449160Y-90398446D01*
X140782493Y-90303208D02*
X140782493Y-90969875D01*
X140353922Y-90303208D02*
X140353922Y-90827017D01*
X140353922Y-90827017D02*
X140401541Y-90922256D01*
X140401541Y-90922256D02*
X140496779Y-90969875D01*
X140496779Y-90969875D02*
X140639636Y-90969875D01*
X140639636Y-90969875D02*
X140734874Y-90922256D01*
X140734874Y-90922256D02*
X140782493Y-90874636D01*
X141258684Y-90969875D02*
X141258684Y-89969875D01*
X141258684Y-90350827D02*
X141353922Y-90303208D01*
X141353922Y-90303208D02*
X141544398Y-90303208D01*
X141544398Y-90303208D02*
X141639636Y-90350827D01*
X141639636Y-90350827D02*
X141687255Y-90398446D01*
X141687255Y-90398446D02*
X141734874Y-90493684D01*
X141734874Y-90493684D02*
X141734874Y-90779398D01*
X141734874Y-90779398D02*
X141687255Y-90874636D01*
X141687255Y-90874636D02*
X141639636Y-90922256D01*
X141639636Y-90922256D02*
X141544398Y-90969875D01*
X141544398Y-90969875D02*
X141353922Y-90969875D01*
X141353922Y-90969875D02*
X141258684Y-90922256D01*
X142163446Y-90874636D02*
X142211065Y-90922256D01*
X142211065Y-90922256D02*
X142163446Y-90969875D01*
X142163446Y-90969875D02*
X142115827Y-90922256D01*
X142115827Y-90922256D02*
X142163446Y-90874636D01*
X142163446Y-90874636D02*
X142163446Y-90969875D01*
X143068207Y-90922256D02*
X142972969Y-90969875D01*
X142972969Y-90969875D02*
X142782493Y-90969875D01*
X142782493Y-90969875D02*
X142687255Y-90922256D01*
X142687255Y-90922256D02*
X142639636Y-90874636D01*
X142639636Y-90874636D02*
X142592017Y-90779398D01*
X142592017Y-90779398D02*
X142592017Y-90493684D01*
X142592017Y-90493684D02*
X142639636Y-90398446D01*
X142639636Y-90398446D02*
X142687255Y-90350827D01*
X142687255Y-90350827D02*
X142782493Y-90303208D01*
X142782493Y-90303208D02*
X142972969Y-90303208D01*
X142972969Y-90303208D02*
X143068207Y-90350827D01*
X143639636Y-90969875D02*
X143544398Y-90922256D01*
X143544398Y-90922256D02*
X143496779Y-90874636D01*
X143496779Y-90874636D02*
X143449160Y-90779398D01*
X143449160Y-90779398D02*
X143449160Y-90493684D01*
X143449160Y-90493684D02*
X143496779Y-90398446D01*
X143496779Y-90398446D02*
X143544398Y-90350827D01*
X143544398Y-90350827D02*
X143639636Y-90303208D01*
X143639636Y-90303208D02*
X143782493Y-90303208D01*
X143782493Y-90303208D02*
X143877731Y-90350827D01*
X143877731Y-90350827D02*
X143925350Y-90398446D01*
X143925350Y-90398446D02*
X143972969Y-90493684D01*
X143972969Y-90493684D02*
X143972969Y-90779398D01*
X143972969Y-90779398D02*
X143925350Y-90874636D01*
X143925350Y-90874636D02*
X143877731Y-90922256D01*
X143877731Y-90922256D02*
X143782493Y-90969875D01*
X143782493Y-90969875D02*
X143639636Y-90969875D01*
X144401541Y-90969875D02*
X144401541Y-90303208D01*
X144401541Y-90398446D02*
X144449160Y-90350827D01*
X144449160Y-90350827D02*
X144544398Y-90303208D01*
X144544398Y-90303208D02*
X144687255Y-90303208D01*
X144687255Y-90303208D02*
X144782493Y-90350827D01*
X144782493Y-90350827D02*
X144830112Y-90446065D01*
X144830112Y-90446065D02*
X144830112Y-90969875D01*
X144830112Y-90446065D02*
X144877731Y-90350827D01*
X144877731Y-90350827D02*
X144972969Y-90303208D01*
X144972969Y-90303208D02*
X145115826Y-90303208D01*
X145115826Y-90303208D02*
X145211065Y-90350827D01*
X145211065Y-90350827D02*
X145258684Y-90446065D01*
X145258684Y-90446065D02*
X145258684Y-90969875D01*
X146449159Y-89922256D02*
X145592017Y-91207970D01*
X146782493Y-90969875D02*
X146782493Y-89969875D01*
X147211064Y-90969875D02*
X147211064Y-90446065D01*
X147211064Y-90446065D02*
X147163445Y-90350827D01*
X147163445Y-90350827D02*
X147068207Y-90303208D01*
X147068207Y-90303208D02*
X146925350Y-90303208D01*
X146925350Y-90303208D02*
X146830112Y-90350827D01*
X146830112Y-90350827D02*
X146782493Y-90398446D01*
X147687255Y-90969875D02*
X147687255Y-89969875D01*
X148115826Y-90969875D02*
X148115826Y-90446065D01*
X148115826Y-90446065D02*
X148068207Y-90350827D01*
X148068207Y-90350827D02*
X147972969Y-90303208D01*
X147972969Y-90303208D02*
X147830112Y-90303208D01*
X147830112Y-90303208D02*
X147734874Y-90350827D01*
X147734874Y-90350827D02*
X147687255Y-90398446D01*
X149020588Y-90969875D02*
X149020588Y-90446065D01*
X149020588Y-90446065D02*
X148972969Y-90350827D01*
X148972969Y-90350827D02*
X148877731Y-90303208D01*
X148877731Y-90303208D02*
X148687255Y-90303208D01*
X148687255Y-90303208D02*
X148592017Y-90350827D01*
X149020588Y-90922256D02*
X148925350Y-90969875D01*
X148925350Y-90969875D02*
X148687255Y-90969875D01*
X148687255Y-90969875D02*
X148592017Y-90922256D01*
X148592017Y-90922256D02*
X148544398Y-90827017D01*
X148544398Y-90827017D02*
X148544398Y-90731779D01*
X148544398Y-90731779D02*
X148592017Y-90636541D01*
X148592017Y-90636541D02*
X148687255Y-90588922D01*
X148687255Y-90588922D02*
X148925350Y-90588922D01*
X148925350Y-90588922D02*
X149020588Y-90541303D01*
X149496779Y-90969875D02*
X149496779Y-90303208D01*
X149496779Y-90493684D02*
X149544398Y-90398446D01*
X149544398Y-90398446D02*
X149592017Y-90350827D01*
X149592017Y-90350827D02*
X149687255Y-90303208D01*
X149687255Y-90303208D02*
X149782493Y-90303208D01*
X149972970Y-90303208D02*
X150353922Y-90303208D01*
X150115827Y-89969875D02*
X150115827Y-90827017D01*
X150115827Y-90827017D02*
X150163446Y-90922256D01*
X150163446Y-90922256D02*
X150258684Y-90969875D01*
X150258684Y-90969875D02*
X150353922Y-90969875D01*
X151068208Y-90922256D02*
X150972970Y-90969875D01*
X150972970Y-90969875D02*
X150782494Y-90969875D01*
X150782494Y-90969875D02*
X150687256Y-90922256D01*
X150687256Y-90922256D02*
X150639637Y-90827017D01*
X150639637Y-90827017D02*
X150639637Y-90446065D01*
X150639637Y-90446065D02*
X150687256Y-90350827D01*
X150687256Y-90350827D02*
X150782494Y-90303208D01*
X150782494Y-90303208D02*
X150972970Y-90303208D01*
X150972970Y-90303208D02*
X151068208Y-90350827D01*
X151068208Y-90350827D02*
X151115827Y-90446065D01*
X151115827Y-90446065D02*
X151115827Y-90541303D01*
X151115827Y-90541303D02*
X150639637Y-90636541D01*
X152258684Y-89922256D02*
X151401542Y-91207970D01*
X152592018Y-90303208D02*
X152592018Y-91303208D01*
X152592018Y-90350827D02*
X152687256Y-90303208D01*
X152687256Y-90303208D02*
X152877732Y-90303208D01*
X152877732Y-90303208D02*
X152972970Y-90350827D01*
X152972970Y-90350827D02*
X153020589Y-90398446D01*
X153020589Y-90398446D02*
X153068208Y-90493684D01*
X153068208Y-90493684D02*
X153068208Y-90779398D01*
X153068208Y-90779398D02*
X153020589Y-90874636D01*
X153020589Y-90874636D02*
X152972970Y-90922256D01*
X152972970Y-90922256D02*
X152877732Y-90969875D01*
X152877732Y-90969875D02*
X152687256Y-90969875D01*
X152687256Y-90969875D02*
X152592018Y-90922256D01*
X153496780Y-90969875D02*
X153496780Y-89969875D01*
X153496780Y-90350827D02*
X153592018Y-90303208D01*
X153592018Y-90303208D02*
X153782494Y-90303208D01*
X153782494Y-90303208D02*
X153877732Y-90350827D01*
X153877732Y-90350827D02*
X153925351Y-90398446D01*
X153925351Y-90398446D02*
X153972970Y-90493684D01*
X153972970Y-90493684D02*
X153972970Y-90779398D01*
X153972970Y-90779398D02*
X153925351Y-90874636D01*
X153925351Y-90874636D02*
X153877732Y-90922256D01*
X153877732Y-90922256D02*
X153782494Y-90969875D01*
X153782494Y-90969875D02*
X153592018Y-90969875D01*
X153592018Y-90969875D02*
X153496780Y-90922256D01*
X154306304Y-90969875D02*
X154830113Y-90303208D01*
X154306304Y-90303208D02*
X154830113Y-90969875D01*
X154972971Y-91065113D02*
X155734875Y-91065113D01*
X155972971Y-90969875D02*
X155972971Y-90303208D01*
X155972971Y-90493684D02*
X156020590Y-90398446D01*
X156020590Y-90398446D02*
X156068209Y-90350827D01*
X156068209Y-90350827D02*
X156163447Y-90303208D01*
X156163447Y-90303208D02*
X156258685Y-90303208D01*
X156592019Y-90969875D02*
X156592019Y-90303208D01*
X156592019Y-89969875D02*
X156544400Y-90017494D01*
X156544400Y-90017494D02*
X156592019Y-90065113D01*
X156592019Y-90065113D02*
X156639638Y-90017494D01*
X156639638Y-90017494D02*
X156592019Y-89969875D01*
X156592019Y-89969875D02*
X156592019Y-90065113D01*
X157068209Y-90303208D02*
X157068209Y-90969875D01*
X157068209Y-90398446D02*
X157115828Y-90350827D01*
X157115828Y-90350827D02*
X157211066Y-90303208D01*
X157211066Y-90303208D02*
X157353923Y-90303208D01*
X157353923Y-90303208D02*
X157449161Y-90350827D01*
X157449161Y-90350827D02*
X157496780Y-90446065D01*
X157496780Y-90446065D02*
X157496780Y-90969875D01*
X158401542Y-90303208D02*
X158401542Y-91112732D01*
X158401542Y-91112732D02*
X158353923Y-91207970D01*
X158353923Y-91207970D02*
X158306304Y-91255589D01*
X158306304Y-91255589D02*
X158211066Y-91303208D01*
X158211066Y-91303208D02*
X158068209Y-91303208D01*
X158068209Y-91303208D02*
X157972971Y-91255589D01*
X158401542Y-90922256D02*
X158306304Y-90969875D01*
X158306304Y-90969875D02*
X158115828Y-90969875D01*
X158115828Y-90969875D02*
X158020590Y-90922256D01*
X158020590Y-90922256D02*
X157972971Y-90874636D01*
X157972971Y-90874636D02*
X157925352Y-90779398D01*
X157925352Y-90779398D02*
X157925352Y-90493684D01*
X157925352Y-90493684D02*
X157972971Y-90398446D01*
X157972971Y-90398446D02*
X158020590Y-90350827D01*
X158020590Y-90350827D02*
X158115828Y-90303208D01*
X158115828Y-90303208D02*
X158306304Y-90303208D01*
X158306304Y-90303208D02*
X158401542Y-90350827D01*
X158639638Y-91065113D02*
X159401542Y-91065113D01*
X160068209Y-90303208D02*
X160068209Y-91112732D01*
X160068209Y-91112732D02*
X160020590Y-91207970D01*
X160020590Y-91207970D02*
X159972971Y-91255589D01*
X159972971Y-91255589D02*
X159877733Y-91303208D01*
X159877733Y-91303208D02*
X159734876Y-91303208D01*
X159734876Y-91303208D02*
X159639638Y-91255589D01*
X160068209Y-90922256D02*
X159972971Y-90969875D01*
X159972971Y-90969875D02*
X159782495Y-90969875D01*
X159782495Y-90969875D02*
X159687257Y-90922256D01*
X159687257Y-90922256D02*
X159639638Y-90874636D01*
X159639638Y-90874636D02*
X159592019Y-90779398D01*
X159592019Y-90779398D02*
X159592019Y-90493684D01*
X159592019Y-90493684D02*
X159639638Y-90398446D01*
X159639638Y-90398446D02*
X159687257Y-90350827D01*
X159687257Y-90350827D02*
X159782495Y-90303208D01*
X159782495Y-90303208D02*
X159972971Y-90303208D01*
X159972971Y-90303208D02*
X160068209Y-90350827D01*
X160925352Y-90922256D02*
X160830114Y-90969875D01*
X160830114Y-90969875D02*
X160639638Y-90969875D01*
X160639638Y-90969875D02*
X160544400Y-90922256D01*
X160544400Y-90922256D02*
X160496781Y-90827017D01*
X160496781Y-90827017D02*
X160496781Y-90446065D01*
X160496781Y-90446065D02*
X160544400Y-90350827D01*
X160544400Y-90350827D02*
X160639638Y-90303208D01*
X160639638Y-90303208D02*
X160830114Y-90303208D01*
X160830114Y-90303208D02*
X160925352Y-90350827D01*
X160925352Y-90350827D02*
X160972971Y-90446065D01*
X160972971Y-90446065D02*
X160972971Y-90541303D01*
X160972971Y-90541303D02*
X160496781Y-90636541D01*
X161401543Y-90303208D02*
X161401543Y-90969875D01*
X161401543Y-90398446D02*
X161449162Y-90350827D01*
X161449162Y-90350827D02*
X161544400Y-90303208D01*
X161544400Y-90303208D02*
X161687257Y-90303208D01*
X161687257Y-90303208D02*
X161782495Y-90350827D01*
X161782495Y-90350827D02*
X161830114Y-90446065D01*
X161830114Y-90446065D02*
X161830114Y-90969875D01*
X137496779Y-92579819D02*
X137496779Y-91579819D01*
X137925350Y-92532200D02*
X138020588Y-92579819D01*
X138020588Y-92579819D02*
X138211064Y-92579819D01*
X138211064Y-92579819D02*
X138306302Y-92532200D01*
X138306302Y-92532200D02*
X138353921Y-92436961D01*
X138353921Y-92436961D02*
X138353921Y-92389342D01*
X138353921Y-92389342D02*
X138306302Y-92294104D01*
X138306302Y-92294104D02*
X138211064Y-92246485D01*
X138211064Y-92246485D02*
X138068207Y-92246485D01*
X138068207Y-92246485D02*
X137972969Y-92198866D01*
X137972969Y-92198866D02*
X137925350Y-92103628D01*
X137925350Y-92103628D02*
X137925350Y-92056009D01*
X137925350Y-92056009D02*
X137972969Y-91960771D01*
X137972969Y-91960771D02*
X138068207Y-91913152D01*
X138068207Y-91913152D02*
X138211064Y-91913152D01*
X138211064Y-91913152D02*
X138306302Y-91960771D01*
X138734874Y-92532200D02*
X138830112Y-92579819D01*
X138830112Y-92579819D02*
X139020588Y-92579819D01*
X139020588Y-92579819D02*
X139115826Y-92532200D01*
X139115826Y-92532200D02*
X139163445Y-92436961D01*
X139163445Y-92436961D02*
X139163445Y-92389342D01*
X139163445Y-92389342D02*
X139115826Y-92294104D01*
X139115826Y-92294104D02*
X139020588Y-92246485D01*
X139020588Y-92246485D02*
X138877731Y-92246485D01*
X138877731Y-92246485D02*
X138782493Y-92198866D01*
X138782493Y-92198866D02*
X138734874Y-92103628D01*
X138734874Y-92103628D02*
X138734874Y-92056009D01*
X138734874Y-92056009D02*
X138782493Y-91960771D01*
X138782493Y-91960771D02*
X138877731Y-91913152D01*
X138877731Y-91913152D02*
X139020588Y-91913152D01*
X139020588Y-91913152D02*
X139115826Y-91960771D01*
X140020588Y-91913152D02*
X140020588Y-92579819D01*
X139592017Y-91913152D02*
X139592017Y-92436961D01*
X139592017Y-92436961D02*
X139639636Y-92532200D01*
X139639636Y-92532200D02*
X139734874Y-92579819D01*
X139734874Y-92579819D02*
X139877731Y-92579819D01*
X139877731Y-92579819D02*
X139972969Y-92532200D01*
X139972969Y-92532200D02*
X140020588Y-92484580D01*
X140877731Y-92532200D02*
X140782493Y-92579819D01*
X140782493Y-92579819D02*
X140592017Y-92579819D01*
X140592017Y-92579819D02*
X140496779Y-92532200D01*
X140496779Y-92532200D02*
X140449160Y-92436961D01*
X140449160Y-92436961D02*
X140449160Y-92056009D01*
X140449160Y-92056009D02*
X140496779Y-91960771D01*
X140496779Y-91960771D02*
X140592017Y-91913152D01*
X140592017Y-91913152D02*
X140782493Y-91913152D01*
X140782493Y-91913152D02*
X140877731Y-91960771D01*
X140877731Y-91960771D02*
X140925350Y-92056009D01*
X140925350Y-92056009D02*
X140925350Y-92151247D01*
X140925350Y-92151247D02*
X140449160Y-92246485D01*
X142068208Y-91675057D02*
X142115827Y-91627438D01*
X142115827Y-91627438D02*
X142211065Y-91579819D01*
X142211065Y-91579819D02*
X142449160Y-91579819D01*
X142449160Y-91579819D02*
X142544398Y-91627438D01*
X142544398Y-91627438D02*
X142592017Y-91675057D01*
X142592017Y-91675057D02*
X142639636Y-91770295D01*
X142639636Y-91770295D02*
X142639636Y-91865533D01*
X142639636Y-91865533D02*
X142592017Y-92008390D01*
X142592017Y-92008390D02*
X142020589Y-92579819D01*
X142020589Y-92579819D02*
X142639636Y-92579819D01*
X155848207Y-57314875D02*
X155514874Y-56838684D01*
X155276779Y-57314875D02*
X155276779Y-56314875D01*
X155276779Y-56314875D02*
X155657731Y-56314875D01*
X155657731Y-56314875D02*
X155752969Y-56362494D01*
X155752969Y-56362494D02*
X155800588Y-56410113D01*
X155800588Y-56410113D02*
X155848207Y-56505351D01*
X155848207Y-56505351D02*
X155848207Y-56648208D01*
X155848207Y-56648208D02*
X155800588Y-56743446D01*
X155800588Y-56743446D02*
X155752969Y-56791065D01*
X155752969Y-56791065D02*
X155657731Y-56838684D01*
X155657731Y-56838684D02*
X155276779Y-56838684D01*
X156276779Y-57314875D02*
X156276779Y-56314875D01*
X156752969Y-57314875D02*
X156752969Y-56314875D01*
X156752969Y-56314875D02*
X157324397Y-57314875D01*
X157324397Y-57314875D02*
X157324397Y-56314875D01*
X158324397Y-56362494D02*
X158229159Y-56314875D01*
X158229159Y-56314875D02*
X158086302Y-56314875D01*
X158086302Y-56314875D02*
X157943445Y-56362494D01*
X157943445Y-56362494D02*
X157848207Y-56457732D01*
X157848207Y-56457732D02*
X157800588Y-56552970D01*
X157800588Y-56552970D02*
X157752969Y-56743446D01*
X157752969Y-56743446D02*
X157752969Y-56886303D01*
X157752969Y-56886303D02*
X157800588Y-57076779D01*
X157800588Y-57076779D02*
X157848207Y-57172017D01*
X157848207Y-57172017D02*
X157943445Y-57267256D01*
X157943445Y-57267256D02*
X158086302Y-57314875D01*
X158086302Y-57314875D02*
X158181540Y-57314875D01*
X158181540Y-57314875D02*
X158324397Y-57267256D01*
X158324397Y-57267256D02*
X158372016Y-57219636D01*
X158372016Y-57219636D02*
X158372016Y-56886303D01*
X158372016Y-56886303D02*
X158181540Y-56886303D01*
X155467255Y-57924819D02*
X155657731Y-57924819D01*
X155657731Y-57924819D02*
X155752969Y-57972438D01*
X155752969Y-57972438D02*
X155848207Y-58067676D01*
X155848207Y-58067676D02*
X155895826Y-58258152D01*
X155895826Y-58258152D02*
X155895826Y-58591485D01*
X155895826Y-58591485D02*
X155848207Y-58781961D01*
X155848207Y-58781961D02*
X155752969Y-58877200D01*
X155752969Y-58877200D02*
X155657731Y-58924819D01*
X155657731Y-58924819D02*
X155467255Y-58924819D01*
X155467255Y-58924819D02*
X155372017Y-58877200D01*
X155372017Y-58877200D02*
X155276779Y-58781961D01*
X155276779Y-58781961D02*
X155229160Y-58591485D01*
X155229160Y-58591485D02*
X155229160Y-58258152D01*
X155229160Y-58258152D02*
X155276779Y-58067676D01*
X155276779Y-58067676D02*
X155372017Y-57972438D01*
X155372017Y-57972438D02*
X155467255Y-57924819D01*
X156324398Y-57924819D02*
X156324398Y-58734342D01*
X156324398Y-58734342D02*
X156372017Y-58829580D01*
X156372017Y-58829580D02*
X156419636Y-58877200D01*
X156419636Y-58877200D02*
X156514874Y-58924819D01*
X156514874Y-58924819D02*
X156705350Y-58924819D01*
X156705350Y-58924819D02*
X156800588Y-58877200D01*
X156800588Y-58877200D02*
X156848207Y-58829580D01*
X156848207Y-58829580D02*
X156895826Y-58734342D01*
X156895826Y-58734342D02*
X156895826Y-57924819D01*
X157229160Y-57924819D02*
X157800588Y-57924819D01*
X157514874Y-58924819D02*
X157514874Y-57924819D01*
X158657731Y-58924819D02*
X158086303Y-58924819D01*
X158372017Y-58924819D02*
X158372017Y-57924819D01*
X158372017Y-57924819D02*
X158276779Y-58067676D01*
X158276779Y-58067676D02*
X158181541Y-58162914D01*
X158181541Y-58162914D02*
X158086303Y-58210533D01*
X148847350Y-141443152D02*
X148847350Y-142109819D01*
X148609255Y-141062200D02*
X148371160Y-141776485D01*
X148371160Y-141776485D02*
X148990207Y-141776485D01*
X149847350Y-141109819D02*
X149371160Y-141109819D01*
X149371160Y-141109819D02*
X149323541Y-141586009D01*
X149323541Y-141586009D02*
X149371160Y-141538390D01*
X149371160Y-141538390D02*
X149466398Y-141490771D01*
X149466398Y-141490771D02*
X149704493Y-141490771D01*
X149704493Y-141490771D02*
X149799731Y-141538390D01*
X149799731Y-141538390D02*
X149847350Y-141586009D01*
X149847350Y-141586009D02*
X149894969Y-141681247D01*
X149894969Y-141681247D02*
X149894969Y-141919342D01*
X149894969Y-141919342D02*
X149847350Y-142014580D01*
X149847350Y-142014580D02*
X149799731Y-142062200D01*
X149799731Y-142062200D02*
X149704493Y-142109819D01*
X149704493Y-142109819D02*
X149466398Y-142109819D01*
X149466398Y-142109819D02*
X149371160Y-142062200D01*
X149371160Y-142062200D02*
X149323541Y-142014580D01*
X150990208Y-141109819D02*
X151656874Y-141109819D01*
X151656874Y-141109819D02*
X151228303Y-142109819D01*
X152514017Y-141109819D02*
X152037827Y-141109819D01*
X152037827Y-141109819D02*
X151990208Y-141586009D01*
X151990208Y-141586009D02*
X152037827Y-141538390D01*
X152037827Y-141538390D02*
X152133065Y-141490771D01*
X152133065Y-141490771D02*
X152371160Y-141490771D01*
X152371160Y-141490771D02*
X152466398Y-141538390D01*
X152466398Y-141538390D02*
X152514017Y-141586009D01*
X152514017Y-141586009D02*
X152561636Y-141681247D01*
X152561636Y-141681247D02*
X152561636Y-141919342D01*
X152561636Y-141919342D02*
X152514017Y-142014580D01*
X152514017Y-142014580D02*
X152466398Y-142062200D01*
X152466398Y-142062200D02*
X152371160Y-142109819D01*
X152371160Y-142109819D02*
X152133065Y-142109819D01*
X152133065Y-142109819D02*
X152037827Y-142062200D01*
X152037827Y-142062200D02*
X151990208Y-142014580D01*
X154085446Y-141586009D02*
X153752113Y-141586009D01*
X153752113Y-142109819D02*
X153752113Y-141109819D01*
X153752113Y-141109819D02*
X154228303Y-141109819D01*
X154799732Y-141109819D02*
X154894970Y-141109819D01*
X154894970Y-141109819D02*
X154990208Y-141157438D01*
X154990208Y-141157438D02*
X155037827Y-141205057D01*
X155037827Y-141205057D02*
X155085446Y-141300295D01*
X155085446Y-141300295D02*
X155133065Y-141490771D01*
X155133065Y-141490771D02*
X155133065Y-141728866D01*
X155133065Y-141728866D02*
X155085446Y-141919342D01*
X155085446Y-141919342D02*
X155037827Y-142014580D01*
X155037827Y-142014580D02*
X154990208Y-142062200D01*
X154990208Y-142062200D02*
X154894970Y-142109819D01*
X154894970Y-142109819D02*
X154799732Y-142109819D01*
X154799732Y-142109819D02*
X154704494Y-142062200D01*
X154704494Y-142062200D02*
X154656875Y-142014580D01*
X154656875Y-142014580D02*
X154609256Y-141919342D01*
X154609256Y-141919342D02*
X154561637Y-141728866D01*
X154561637Y-141728866D02*
X154561637Y-141490771D01*
X154561637Y-141490771D02*
X154609256Y-141300295D01*
X154609256Y-141300295D02*
X154656875Y-141205057D01*
X154656875Y-141205057D02*
X154704494Y-141157438D01*
X154704494Y-141157438D02*
X154799732Y-141109819D01*
X156656875Y-141586009D02*
X156323542Y-141586009D01*
X156323542Y-142109819D02*
X156323542Y-141109819D01*
X156323542Y-141109819D02*
X156799732Y-141109819D01*
X157704494Y-142109819D02*
X157133066Y-142109819D01*
X157418780Y-142109819D02*
X157418780Y-141109819D01*
X157418780Y-141109819D02*
X157323542Y-141252676D01*
X157323542Y-141252676D02*
X157228304Y-141347914D01*
X157228304Y-141347914D02*
X157133066Y-141395533D01*
X160928207Y-57314875D02*
X160594874Y-56838684D01*
X160356779Y-57314875D02*
X160356779Y-56314875D01*
X160356779Y-56314875D02*
X160737731Y-56314875D01*
X160737731Y-56314875D02*
X160832969Y-56362494D01*
X160832969Y-56362494D02*
X160880588Y-56410113D01*
X160880588Y-56410113D02*
X160928207Y-56505351D01*
X160928207Y-56505351D02*
X160928207Y-56648208D01*
X160928207Y-56648208D02*
X160880588Y-56743446D01*
X160880588Y-56743446D02*
X160832969Y-56791065D01*
X160832969Y-56791065D02*
X160737731Y-56838684D01*
X160737731Y-56838684D02*
X160356779Y-56838684D01*
X161356779Y-57314875D02*
X161356779Y-56314875D01*
X161832969Y-57314875D02*
X161832969Y-56314875D01*
X161832969Y-56314875D02*
X162404397Y-57314875D01*
X162404397Y-57314875D02*
X162404397Y-56314875D01*
X163404397Y-56362494D02*
X163309159Y-56314875D01*
X163309159Y-56314875D02*
X163166302Y-56314875D01*
X163166302Y-56314875D02*
X163023445Y-56362494D01*
X163023445Y-56362494D02*
X162928207Y-56457732D01*
X162928207Y-56457732D02*
X162880588Y-56552970D01*
X162880588Y-56552970D02*
X162832969Y-56743446D01*
X162832969Y-56743446D02*
X162832969Y-56886303D01*
X162832969Y-56886303D02*
X162880588Y-57076779D01*
X162880588Y-57076779D02*
X162928207Y-57172017D01*
X162928207Y-57172017D02*
X163023445Y-57267256D01*
X163023445Y-57267256D02*
X163166302Y-57314875D01*
X163166302Y-57314875D02*
X163261540Y-57314875D01*
X163261540Y-57314875D02*
X163404397Y-57267256D01*
X163404397Y-57267256D02*
X163452016Y-57219636D01*
X163452016Y-57219636D02*
X163452016Y-56886303D01*
X163452016Y-56886303D02*
X163261540Y-56886303D01*
X160547255Y-57924819D02*
X160737731Y-57924819D01*
X160737731Y-57924819D02*
X160832969Y-57972438D01*
X160832969Y-57972438D02*
X160928207Y-58067676D01*
X160928207Y-58067676D02*
X160975826Y-58258152D01*
X160975826Y-58258152D02*
X160975826Y-58591485D01*
X160975826Y-58591485D02*
X160928207Y-58781961D01*
X160928207Y-58781961D02*
X160832969Y-58877200D01*
X160832969Y-58877200D02*
X160737731Y-58924819D01*
X160737731Y-58924819D02*
X160547255Y-58924819D01*
X160547255Y-58924819D02*
X160452017Y-58877200D01*
X160452017Y-58877200D02*
X160356779Y-58781961D01*
X160356779Y-58781961D02*
X160309160Y-58591485D01*
X160309160Y-58591485D02*
X160309160Y-58258152D01*
X160309160Y-58258152D02*
X160356779Y-58067676D01*
X160356779Y-58067676D02*
X160452017Y-57972438D01*
X160452017Y-57972438D02*
X160547255Y-57924819D01*
X161404398Y-57924819D02*
X161404398Y-58734342D01*
X161404398Y-58734342D02*
X161452017Y-58829580D01*
X161452017Y-58829580D02*
X161499636Y-58877200D01*
X161499636Y-58877200D02*
X161594874Y-58924819D01*
X161594874Y-58924819D02*
X161785350Y-58924819D01*
X161785350Y-58924819D02*
X161880588Y-58877200D01*
X161880588Y-58877200D02*
X161928207Y-58829580D01*
X161928207Y-58829580D02*
X161975826Y-58734342D01*
X161975826Y-58734342D02*
X161975826Y-57924819D01*
X162309160Y-57924819D02*
X162880588Y-57924819D01*
X162594874Y-58924819D02*
X162594874Y-57924819D01*
X163166303Y-58020057D02*
X163213922Y-57972438D01*
X163213922Y-57972438D02*
X163309160Y-57924819D01*
X163309160Y-57924819D02*
X163547255Y-57924819D01*
X163547255Y-57924819D02*
X163642493Y-57972438D01*
X163642493Y-57972438D02*
X163690112Y-58020057D01*
X163690112Y-58020057D02*
X163737731Y-58115295D01*
X163737731Y-58115295D02*
X163737731Y-58210533D01*
X163737731Y-58210533D02*
X163690112Y-58353390D01*
X163690112Y-58353390D02*
X163118684Y-58924819D01*
X163118684Y-58924819D02*
X163737731Y-58924819D01*
X145640588Y-57337438D02*
X145545350Y-57289819D01*
X145545350Y-57289819D02*
X145402493Y-57289819D01*
X145402493Y-57289819D02*
X145259636Y-57337438D01*
X145259636Y-57337438D02*
X145164398Y-57432676D01*
X145164398Y-57432676D02*
X145116779Y-57527914D01*
X145116779Y-57527914D02*
X145069160Y-57718390D01*
X145069160Y-57718390D02*
X145069160Y-57861247D01*
X145069160Y-57861247D02*
X145116779Y-58051723D01*
X145116779Y-58051723D02*
X145164398Y-58146961D01*
X145164398Y-58146961D02*
X145259636Y-58242200D01*
X145259636Y-58242200D02*
X145402493Y-58289819D01*
X145402493Y-58289819D02*
X145497731Y-58289819D01*
X145497731Y-58289819D02*
X145640588Y-58242200D01*
X145640588Y-58242200D02*
X145688207Y-58194580D01*
X145688207Y-58194580D02*
X145688207Y-57861247D01*
X145688207Y-57861247D02*
X145497731Y-57861247D01*
X146688207Y-58289819D02*
X146354874Y-57813628D01*
X146116779Y-58289819D02*
X146116779Y-57289819D01*
X146116779Y-57289819D02*
X146497731Y-57289819D01*
X146497731Y-57289819D02*
X146592969Y-57337438D01*
X146592969Y-57337438D02*
X146640588Y-57385057D01*
X146640588Y-57385057D02*
X146688207Y-57480295D01*
X146688207Y-57480295D02*
X146688207Y-57623152D01*
X146688207Y-57623152D02*
X146640588Y-57718390D01*
X146640588Y-57718390D02*
X146592969Y-57766009D01*
X146592969Y-57766009D02*
X146497731Y-57813628D01*
X146497731Y-57813628D02*
X146116779Y-57813628D01*
X147116779Y-58289819D02*
X147116779Y-57289819D01*
X147116779Y-57289819D02*
X147354874Y-57289819D01*
X147354874Y-57289819D02*
X147497731Y-57337438D01*
X147497731Y-57337438D02*
X147592969Y-57432676D01*
X147592969Y-57432676D02*
X147640588Y-57527914D01*
X147640588Y-57527914D02*
X147688207Y-57718390D01*
X147688207Y-57718390D02*
X147688207Y-57861247D01*
X147688207Y-57861247D02*
X147640588Y-58051723D01*
X147640588Y-58051723D02*
X147592969Y-58146961D01*
X147592969Y-58146961D02*
X147497731Y-58242200D01*
X147497731Y-58242200D02*
X147354874Y-58289819D01*
X147354874Y-58289819D02*
X147116779Y-58289819D01*
X133807200Y-128615839D02*
X133854819Y-128472982D01*
X133854819Y-128472982D02*
X133854819Y-128234887D01*
X133854819Y-128234887D02*
X133807200Y-128139649D01*
X133807200Y-128139649D02*
X133759580Y-128092030D01*
X133759580Y-128092030D02*
X133664342Y-128044411D01*
X133664342Y-128044411D02*
X133569104Y-128044411D01*
X133569104Y-128044411D02*
X133473866Y-128092030D01*
X133473866Y-128092030D02*
X133426247Y-128139649D01*
X133426247Y-128139649D02*
X133378628Y-128234887D01*
X133378628Y-128234887D02*
X133331009Y-128425363D01*
X133331009Y-128425363D02*
X133283390Y-128520601D01*
X133283390Y-128520601D02*
X133235771Y-128568220D01*
X133235771Y-128568220D02*
X133140533Y-128615839D01*
X133140533Y-128615839D02*
X133045295Y-128615839D01*
X133045295Y-128615839D02*
X132950057Y-128568220D01*
X132950057Y-128568220D02*
X132902438Y-128520601D01*
X132902438Y-128520601D02*
X132854819Y-128425363D01*
X132854819Y-128425363D02*
X132854819Y-128187268D01*
X132854819Y-128187268D02*
X132902438Y-128044411D01*
X133854819Y-127615839D02*
X132854819Y-127615839D01*
X133854819Y-127139649D02*
X132854819Y-127139649D01*
X132854819Y-127139649D02*
X133854819Y-126568221D01*
X133854819Y-126568221D02*
X132854819Y-126568221D01*
X132854819Y-125901554D02*
X132854819Y-125806316D01*
X132854819Y-125806316D02*
X132902438Y-125711078D01*
X132902438Y-125711078D02*
X132950057Y-125663459D01*
X132950057Y-125663459D02*
X133045295Y-125615840D01*
X133045295Y-125615840D02*
X133235771Y-125568221D01*
X133235771Y-125568221D02*
X133473866Y-125568221D01*
X133473866Y-125568221D02*
X133664342Y-125615840D01*
X133664342Y-125615840D02*
X133759580Y-125663459D01*
X133759580Y-125663459D02*
X133807200Y-125711078D01*
X133807200Y-125711078D02*
X133854819Y-125806316D01*
X133854819Y-125806316D02*
X133854819Y-125901554D01*
X133854819Y-125901554D02*
X133807200Y-125996792D01*
X133807200Y-125996792D02*
X133759580Y-126044411D01*
X133759580Y-126044411D02*
X133664342Y-126092030D01*
X133664342Y-126092030D02*
X133473866Y-126139649D01*
X133473866Y-126139649D02*
X133235771Y-126139649D01*
X133235771Y-126139649D02*
X133045295Y-126092030D01*
X133045295Y-126092030D02*
X132950057Y-126044411D01*
X132950057Y-126044411D02*
X132902438Y-125996792D01*
X132902438Y-125996792D02*
X132854819Y-125901554D01*
X132854819Y-124711078D02*
X132854819Y-124901554D01*
X132854819Y-124901554D02*
X132902438Y-124996792D01*
X132902438Y-124996792D02*
X132950057Y-125044411D01*
X132950057Y-125044411D02*
X133092914Y-125139649D01*
X133092914Y-125139649D02*
X133283390Y-125187268D01*
X133283390Y-125187268D02*
X133664342Y-125187268D01*
X133664342Y-125187268D02*
X133759580Y-125139649D01*
X133759580Y-125139649D02*
X133807200Y-125092030D01*
X133807200Y-125092030D02*
X133854819Y-124996792D01*
X133854819Y-124996792D02*
X133854819Y-124806316D01*
X133854819Y-124806316D02*
X133807200Y-124711078D01*
X133807200Y-124711078D02*
X133759580Y-124663459D01*
X133759580Y-124663459D02*
X133664342Y-124615840D01*
X133664342Y-124615840D02*
X133426247Y-124615840D01*
X133426247Y-124615840D02*
X133331009Y-124663459D01*
X133331009Y-124663459D02*
X133283390Y-124711078D01*
X133283390Y-124711078D02*
X133235771Y-124806316D01*
X133235771Y-124806316D02*
X133235771Y-124996792D01*
X133235771Y-124996792D02*
X133283390Y-125092030D01*
X133283390Y-125092030D02*
X133331009Y-125139649D01*
X133331009Y-125139649D02*
X133426247Y-125187268D01*
X132854819Y-124330125D02*
X133854819Y-123996792D01*
X133854819Y-123996792D02*
X132854819Y-123663459D01*
X132950057Y-123377744D02*
X132902438Y-123330125D01*
X132902438Y-123330125D02*
X132854819Y-123234887D01*
X132854819Y-123234887D02*
X132854819Y-122996792D01*
X132854819Y-122996792D02*
X132902438Y-122901554D01*
X132902438Y-122901554D02*
X132950057Y-122853935D01*
X132950057Y-122853935D02*
X133045295Y-122806316D01*
X133045295Y-122806316D02*
X133140533Y-122806316D01*
X133140533Y-122806316D02*
X133283390Y-122853935D01*
X133283390Y-122853935D02*
X133854819Y-123425363D01*
X133854819Y-123425363D02*
X133854819Y-122806316D01*
X133188152Y-121949173D02*
X133854819Y-121949173D01*
X132807200Y-122187268D02*
X133521485Y-122425363D01*
X133521485Y-122425363D02*
X133521485Y-121806316D01*
X133331009Y-121092030D02*
X133331009Y-121425363D01*
X133854819Y-121425363D02*
X132854819Y-121425363D01*
X132854819Y-121425363D02*
X132854819Y-120949173D01*
X132854819Y-120377744D02*
X132854819Y-120282506D01*
X132854819Y-120282506D02*
X132902438Y-120187268D01*
X132902438Y-120187268D02*
X132950057Y-120139649D01*
X132950057Y-120139649D02*
X133045295Y-120092030D01*
X133045295Y-120092030D02*
X133235771Y-120044411D01*
X133235771Y-120044411D02*
X133473866Y-120044411D01*
X133473866Y-120044411D02*
X133664342Y-120092030D01*
X133664342Y-120092030D02*
X133759580Y-120139649D01*
X133759580Y-120139649D02*
X133807200Y-120187268D01*
X133807200Y-120187268D02*
X133854819Y-120282506D01*
X133854819Y-120282506D02*
X133854819Y-120377744D01*
X133854819Y-120377744D02*
X133807200Y-120472982D01*
X133807200Y-120472982D02*
X133759580Y-120520601D01*
X133759580Y-120520601D02*
X133664342Y-120568220D01*
X133664342Y-120568220D02*
X133473866Y-120615839D01*
X133473866Y-120615839D02*
X133235771Y-120615839D01*
X133235771Y-120615839D02*
X133045295Y-120568220D01*
X133045295Y-120568220D02*
X132950057Y-120520601D01*
X132950057Y-120520601D02*
X132902438Y-120472982D01*
X132902438Y-120472982D02*
X132854819Y-120377744D01*
X132854819Y-119425363D02*
X132854819Y-119330125D01*
X132854819Y-119330125D02*
X132902438Y-119234887D01*
X132902438Y-119234887D02*
X132950057Y-119187268D01*
X132950057Y-119187268D02*
X133045295Y-119139649D01*
X133045295Y-119139649D02*
X133235771Y-119092030D01*
X133235771Y-119092030D02*
X133473866Y-119092030D01*
X133473866Y-119092030D02*
X133664342Y-119139649D01*
X133664342Y-119139649D02*
X133759580Y-119187268D01*
X133759580Y-119187268D02*
X133807200Y-119234887D01*
X133807200Y-119234887D02*
X133854819Y-119330125D01*
X133854819Y-119330125D02*
X133854819Y-119425363D01*
X133854819Y-119425363D02*
X133807200Y-119520601D01*
X133807200Y-119520601D02*
X133759580Y-119568220D01*
X133759580Y-119568220D02*
X133664342Y-119615839D01*
X133664342Y-119615839D02*
X133473866Y-119663458D01*
X133473866Y-119663458D02*
X133235771Y-119663458D01*
X133235771Y-119663458D02*
X133045295Y-119615839D01*
X133045295Y-119615839D02*
X132950057Y-119568220D01*
X132950057Y-119568220D02*
X132902438Y-119520601D01*
X132902438Y-119520601D02*
X132854819Y-119425363D01*
X149561779Y-57908866D02*
X150323684Y-57908866D01*
X151133207Y-57766009D02*
X151276064Y-57813628D01*
X151276064Y-57813628D02*
X151323683Y-57861247D01*
X151323683Y-57861247D02*
X151371302Y-57956485D01*
X151371302Y-57956485D02*
X151371302Y-58099342D01*
X151371302Y-58099342D02*
X151323683Y-58194580D01*
X151323683Y-58194580D02*
X151276064Y-58242200D01*
X151276064Y-58242200D02*
X151180826Y-58289819D01*
X151180826Y-58289819D02*
X150799874Y-58289819D01*
X150799874Y-58289819D02*
X150799874Y-57289819D01*
X150799874Y-57289819D02*
X151133207Y-57289819D01*
X151133207Y-57289819D02*
X151228445Y-57337438D01*
X151228445Y-57337438D02*
X151276064Y-57385057D01*
X151276064Y-57385057D02*
X151323683Y-57480295D01*
X151323683Y-57480295D02*
X151323683Y-57575533D01*
X151323683Y-57575533D02*
X151276064Y-57670771D01*
X151276064Y-57670771D02*
X151228445Y-57718390D01*
X151228445Y-57718390D02*
X151133207Y-57766009D01*
X151133207Y-57766009D02*
X150799874Y-57766009D01*
X151752255Y-58004104D02*
X152228445Y-58004104D01*
X151657017Y-58289819D02*
X151990350Y-57289819D01*
X151990350Y-57289819D02*
X152323683Y-58289819D01*
X152514160Y-57289819D02*
X153085588Y-57289819D01*
X152799874Y-58289819D02*
X152799874Y-57289819D01*
X159686666Y-141440819D02*
X159686666Y-142155104D01*
X159686666Y-142155104D02*
X159639047Y-142297961D01*
X159639047Y-142297961D02*
X159543809Y-142393200D01*
X159543809Y-142393200D02*
X159400952Y-142440819D01*
X159400952Y-142440819D02*
X159305714Y-142440819D01*
X160686666Y-142440819D02*
X160115238Y-142440819D01*
X160400952Y-142440819D02*
X160400952Y-141440819D01*
X160400952Y-141440819D02*
X160305714Y-141583676D01*
X160305714Y-141583676D02*
X160210476Y-141678914D01*
X160210476Y-141678914D02*
X160115238Y-141726533D01*
X164171333Y-140662819D02*
X163838000Y-140186628D01*
X163599905Y-140662819D02*
X163599905Y-139662819D01*
X163599905Y-139662819D02*
X163980857Y-139662819D01*
X163980857Y-139662819D02*
X164076095Y-139710438D01*
X164076095Y-139710438D02*
X164123714Y-139758057D01*
X164123714Y-139758057D02*
X164171333Y-139853295D01*
X164171333Y-139853295D02*
X164171333Y-139996152D01*
X164171333Y-139996152D02*
X164123714Y-140091390D01*
X164123714Y-140091390D02*
X164076095Y-140139009D01*
X164076095Y-140139009D02*
X163980857Y-140186628D01*
X163980857Y-140186628D02*
X163599905Y-140186628D01*
X165123714Y-140662819D02*
X164552286Y-140662819D01*
X164838000Y-140662819D02*
X164838000Y-139662819D01*
X164838000Y-139662819D02*
X164742762Y-139805676D01*
X164742762Y-139805676D02*
X164647524Y-139900914D01*
X164647524Y-139900914D02*
X164552286Y-139948533D01*
X174458333Y-93069580D02*
X174410714Y-93117200D01*
X174410714Y-93117200D02*
X174267857Y-93164819D01*
X174267857Y-93164819D02*
X174172619Y-93164819D01*
X174172619Y-93164819D02*
X174029762Y-93117200D01*
X174029762Y-93117200D02*
X173934524Y-93021961D01*
X173934524Y-93021961D02*
X173886905Y-92926723D01*
X173886905Y-92926723D02*
X173839286Y-92736247D01*
X173839286Y-92736247D02*
X173839286Y-92593390D01*
X173839286Y-92593390D02*
X173886905Y-92402914D01*
X173886905Y-92402914D02*
X173934524Y-92307676D01*
X173934524Y-92307676D02*
X174029762Y-92212438D01*
X174029762Y-92212438D02*
X174172619Y-92164819D01*
X174172619Y-92164819D02*
X174267857Y-92164819D01*
X174267857Y-92164819D02*
X174410714Y-92212438D01*
X174410714Y-92212438D02*
X174458333Y-92260057D01*
X175410714Y-93164819D02*
X174839286Y-93164819D01*
X175125000Y-93164819D02*
X175125000Y-92164819D01*
X175125000Y-92164819D02*
X175029762Y-92307676D01*
X175029762Y-92307676D02*
X174934524Y-92402914D01*
X174934524Y-92402914D02*
X174839286Y-92450533D01*
X145248333Y-63954819D02*
X144915000Y-63478628D01*
X144676905Y-63954819D02*
X144676905Y-62954819D01*
X144676905Y-62954819D02*
X145057857Y-62954819D01*
X145057857Y-62954819D02*
X145153095Y-63002438D01*
X145153095Y-63002438D02*
X145200714Y-63050057D01*
X145200714Y-63050057D02*
X145248333Y-63145295D01*
X145248333Y-63145295D02*
X145248333Y-63288152D01*
X145248333Y-63288152D02*
X145200714Y-63383390D01*
X145200714Y-63383390D02*
X145153095Y-63431009D01*
X145153095Y-63431009D02*
X145057857Y-63478628D01*
X145057857Y-63478628D02*
X144676905Y-63478628D01*
X145629286Y-63050057D02*
X145676905Y-63002438D01*
X145676905Y-63002438D02*
X145772143Y-62954819D01*
X145772143Y-62954819D02*
X146010238Y-62954819D01*
X146010238Y-62954819D02*
X146105476Y-63002438D01*
X146105476Y-63002438D02*
X146153095Y-63050057D01*
X146153095Y-63050057D02*
X146200714Y-63145295D01*
X146200714Y-63145295D02*
X146200714Y-63240533D01*
X146200714Y-63240533D02*
X146153095Y-63383390D01*
X146153095Y-63383390D02*
X145581667Y-63954819D01*
X145581667Y-63954819D02*
X146200714Y-63954819D01*
X146899333Y-142345580D02*
X146851714Y-142393200D01*
X146851714Y-142393200D02*
X146708857Y-142440819D01*
X146708857Y-142440819D02*
X146613619Y-142440819D01*
X146613619Y-142440819D02*
X146470762Y-142393200D01*
X146470762Y-142393200D02*
X146375524Y-142297961D01*
X146375524Y-142297961D02*
X146327905Y-142202723D01*
X146327905Y-142202723D02*
X146280286Y-142012247D01*
X146280286Y-142012247D02*
X146280286Y-141869390D01*
X146280286Y-141869390D02*
X146327905Y-141678914D01*
X146327905Y-141678914D02*
X146375524Y-141583676D01*
X146375524Y-141583676D02*
X146470762Y-141488438D01*
X146470762Y-141488438D02*
X146613619Y-141440819D01*
X146613619Y-141440819D02*
X146708857Y-141440819D01*
X146708857Y-141440819D02*
X146851714Y-141488438D01*
X146851714Y-141488438D02*
X146899333Y-141536057D01*
X147232667Y-141440819D02*
X147851714Y-141440819D01*
X147851714Y-141440819D02*
X147518381Y-141821771D01*
X147518381Y-141821771D02*
X147661238Y-141821771D01*
X147661238Y-141821771D02*
X147756476Y-141869390D01*
X147756476Y-141869390D02*
X147804095Y-141917009D01*
X147804095Y-141917009D02*
X147851714Y-142012247D01*
X147851714Y-142012247D02*
X147851714Y-142250342D01*
X147851714Y-142250342D02*
X147804095Y-142345580D01*
X147804095Y-142345580D02*
X147756476Y-142393200D01*
X147756476Y-142393200D02*
X147661238Y-142440819D01*
X147661238Y-142440819D02*
X147375524Y-142440819D01*
X147375524Y-142440819D02*
X147280286Y-142393200D01*
X147280286Y-142393200D02*
X147232667Y-142345580D01*
X132804819Y-132841904D02*
X133614342Y-132841904D01*
X133614342Y-132841904D02*
X133709580Y-132794285D01*
X133709580Y-132794285D02*
X133757200Y-132746666D01*
X133757200Y-132746666D02*
X133804819Y-132651428D01*
X133804819Y-132651428D02*
X133804819Y-132460952D01*
X133804819Y-132460952D02*
X133757200Y-132365714D01*
X133757200Y-132365714D02*
X133709580Y-132318095D01*
X133709580Y-132318095D02*
X133614342Y-132270476D01*
X133614342Y-132270476D02*
X132804819Y-132270476D01*
X133804819Y-131270476D02*
X133804819Y-131841904D01*
X133804819Y-131556190D02*
X132804819Y-131556190D01*
X132804819Y-131556190D02*
X132947676Y-131651428D01*
X132947676Y-131651428D02*
X133042914Y-131746666D01*
X133042914Y-131746666D02*
X133090533Y-131841904D01*
X140503333Y-44324866D02*
X140503333Y-45324866D01*
X140503333Y-45324866D02*
X140436666Y-45524866D01*
X140436666Y-45524866D02*
X140303333Y-45658200D01*
X140303333Y-45658200D02*
X140103333Y-45724866D01*
X140103333Y-45724866D02*
X139970000Y-45724866D01*
X141103333Y-44458200D02*
X141170000Y-44391533D01*
X141170000Y-44391533D02*
X141303333Y-44324866D01*
X141303333Y-44324866D02*
X141636667Y-44324866D01*
X141636667Y-44324866D02*
X141770000Y-44391533D01*
X141770000Y-44391533D02*
X141836667Y-44458200D01*
X141836667Y-44458200D02*
X141903333Y-44591533D01*
X141903333Y-44591533D02*
X141903333Y-44724866D01*
X141903333Y-44724866D02*
X141836667Y-44924866D01*
X141836667Y-44924866D02*
X141036667Y-45724866D01*
X141036667Y-45724866D02*
X141903333Y-45724866D01*
X174291666Y-65971009D02*
X173958333Y-65971009D01*
X173958333Y-66494819D02*
X173958333Y-65494819D01*
X173958333Y-65494819D02*
X174434523Y-65494819D01*
X175339285Y-66494819D02*
X174767857Y-66494819D01*
X175053571Y-66494819D02*
X175053571Y-65494819D01*
X175053571Y-65494819D02*
X174958333Y-65637676D01*
X174958333Y-65637676D02*
X174863095Y-65732914D01*
X174863095Y-65732914D02*
X174767857Y-65780533D01*
X169211666Y-65971009D02*
X168878333Y-65971009D01*
X168878333Y-66494819D02*
X168878333Y-65494819D01*
X168878333Y-65494819D02*
X169354523Y-65494819D01*
X169687857Y-65590057D02*
X169735476Y-65542438D01*
X169735476Y-65542438D02*
X169830714Y-65494819D01*
X169830714Y-65494819D02*
X170068809Y-65494819D01*
X170068809Y-65494819D02*
X170164047Y-65542438D01*
X170164047Y-65542438D02*
X170211666Y-65590057D01*
X170211666Y-65590057D02*
X170259285Y-65685295D01*
X170259285Y-65685295D02*
X170259285Y-65780533D01*
X170259285Y-65780533D02*
X170211666Y-65923390D01*
X170211666Y-65923390D02*
X169640238Y-66494819D01*
X169640238Y-66494819D02*
X170259285Y-66494819D01*
X175173333Y-79099580D02*
X175125714Y-79147200D01*
X175125714Y-79147200D02*
X174982857Y-79194819D01*
X174982857Y-79194819D02*
X174887619Y-79194819D01*
X174887619Y-79194819D02*
X174744762Y-79147200D01*
X174744762Y-79147200D02*
X174649524Y-79051961D01*
X174649524Y-79051961D02*
X174601905Y-78956723D01*
X174601905Y-78956723D02*
X174554286Y-78766247D01*
X174554286Y-78766247D02*
X174554286Y-78623390D01*
X174554286Y-78623390D02*
X174601905Y-78432914D01*
X174601905Y-78432914D02*
X174649524Y-78337676D01*
X174649524Y-78337676D02*
X174744762Y-78242438D01*
X174744762Y-78242438D02*
X174887619Y-78194819D01*
X174887619Y-78194819D02*
X174982857Y-78194819D01*
X174982857Y-78194819D02*
X175125714Y-78242438D01*
X175125714Y-78242438D02*
X175173333Y-78290057D01*
X175554286Y-78290057D02*
X175601905Y-78242438D01*
X175601905Y-78242438D02*
X175697143Y-78194819D01*
X175697143Y-78194819D02*
X175935238Y-78194819D01*
X175935238Y-78194819D02*
X176030476Y-78242438D01*
X176030476Y-78242438D02*
X176078095Y-78290057D01*
X176078095Y-78290057D02*
X176125714Y-78385295D01*
X176125714Y-78385295D02*
X176125714Y-78480533D01*
X176125714Y-78480533D02*
X176078095Y-78623390D01*
X176078095Y-78623390D02*
X175506667Y-79194819D01*
X175506667Y-79194819D02*
X176125714Y-79194819D01*
X137755333Y-135995580D02*
X137707714Y-136043200D01*
X137707714Y-136043200D02*
X137564857Y-136090819D01*
X137564857Y-136090819D02*
X137469619Y-136090819D01*
X137469619Y-136090819D02*
X137326762Y-136043200D01*
X137326762Y-136043200D02*
X137231524Y-135947961D01*
X137231524Y-135947961D02*
X137183905Y-135852723D01*
X137183905Y-135852723D02*
X137136286Y-135662247D01*
X137136286Y-135662247D02*
X137136286Y-135519390D01*
X137136286Y-135519390D02*
X137183905Y-135328914D01*
X137183905Y-135328914D02*
X137231524Y-135233676D01*
X137231524Y-135233676D02*
X137326762Y-135138438D01*
X137326762Y-135138438D02*
X137469619Y-135090819D01*
X137469619Y-135090819D02*
X137564857Y-135090819D01*
X137564857Y-135090819D02*
X137707714Y-135138438D01*
X137707714Y-135138438D02*
X137755333Y-135186057D01*
X138612476Y-135424152D02*
X138612476Y-136090819D01*
X138374381Y-135043200D02*
X138136286Y-135757485D01*
X138136286Y-135757485D02*
X138755333Y-135757485D01*
X135088333Y-63954819D02*
X134755000Y-63478628D01*
X134516905Y-63954819D02*
X134516905Y-62954819D01*
X134516905Y-62954819D02*
X134897857Y-62954819D01*
X134897857Y-62954819D02*
X134993095Y-63002438D01*
X134993095Y-63002438D02*
X135040714Y-63050057D01*
X135040714Y-63050057D02*
X135088333Y-63145295D01*
X135088333Y-63145295D02*
X135088333Y-63288152D01*
X135088333Y-63288152D02*
X135040714Y-63383390D01*
X135040714Y-63383390D02*
X134993095Y-63431009D01*
X134993095Y-63431009D02*
X134897857Y-63478628D01*
X134897857Y-63478628D02*
X134516905Y-63478628D01*
X135421667Y-62954819D02*
X136040714Y-62954819D01*
X136040714Y-62954819D02*
X135707381Y-63335771D01*
X135707381Y-63335771D02*
X135850238Y-63335771D01*
X135850238Y-63335771D02*
X135945476Y-63383390D01*
X135945476Y-63383390D02*
X135993095Y-63431009D01*
X135993095Y-63431009D02*
X136040714Y-63526247D01*
X136040714Y-63526247D02*
X136040714Y-63764342D01*
X136040714Y-63764342D02*
X135993095Y-63859580D01*
X135993095Y-63859580D02*
X135945476Y-63907200D01*
X135945476Y-63907200D02*
X135850238Y-63954819D01*
X135850238Y-63954819D02*
X135564524Y-63954819D01*
X135564524Y-63954819D02*
X135469286Y-63907200D01*
X135469286Y-63907200D02*
X135421667Y-63859580D01*
D11*
X148022000Y-135576000D02*
X148022000Y-140776000D01*
X155702000Y-135576000D02*
X148022000Y-135576000D01*
X155702000Y-135576000D02*
X155702000Y-138176000D01*
X155702000Y-138176000D02*
X158302000Y-138176000D01*
X156972000Y-135576000D02*
X158302000Y-135576000D01*
X158302000Y-135576000D02*
X158302000Y-136906000D01*
X158302000Y-138176000D02*
X158302000Y-140776000D01*
X158302000Y-140776000D02*
X148022000Y-140776000D01*
D12*
G36*
X153170487Y-112532448D02*
G01*
X153201322Y-112535859D01*
X153222989Y-112544969D01*
X153241551Y-112565630D01*
X153263068Y-112603691D01*
X153280628Y-112638746D01*
X153346875Y-112747138D01*
X153431897Y-112847096D01*
X153528359Y-112930932D01*
X153605943Y-112979729D01*
X153663049Y-113006557D01*
X153737675Y-113037475D01*
X153818804Y-113068072D01*
X153874555Y-113087262D01*
X153979965Y-113125636D01*
X154058396Y-113163291D01*
X154112559Y-113201782D01*
X154145089Y-113242525D01*
X154147745Y-113266612D01*
X154141296Y-113313508D01*
X154125413Y-113384958D01*
X154100267Y-113480899D01*
X154059469Y-113636174D01*
X154023860Y-113784977D01*
X153994516Y-113922197D01*
X153972513Y-114042722D01*
X153958927Y-114141441D01*
X153957049Y-114161197D01*
X153951471Y-114213926D01*
X153945238Y-114252639D01*
X153939564Y-114270071D01*
X153938788Y-114270400D01*
X153929115Y-114257874D01*
X153907105Y-114223153D01*
X153875016Y-114169996D01*
X153835105Y-114102163D01*
X153789627Y-114023416D01*
X153771257Y-113991238D01*
X153643862Y-113767337D01*
X153530463Y-113567916D01*
X153430288Y-113391599D01*
X153342566Y-113237007D01*
X153266525Y-113102765D01*
X153201393Y-112987494D01*
X153146398Y-112889817D01*
X153100770Y-112808359D01*
X153063736Y-112741740D01*
X153034524Y-112688585D01*
X153012364Y-112647516D01*
X152996483Y-112617156D01*
X152986109Y-112596128D01*
X152980472Y-112583054D01*
X152978815Y-112577033D01*
X152991092Y-112559286D01*
X153026342Y-112544710D01*
X153077807Y-112534876D01*
X153138724Y-112531356D01*
X153170487Y-112532448D01*
G37*
G36*
X155637377Y-116032577D02*
G01*
X155801693Y-116058384D01*
X155952235Y-116098879D01*
X156086720Y-116153051D01*
X156202867Y-116219889D01*
X156298394Y-116298381D01*
X156371020Y-116387517D01*
X156418461Y-116486284D01*
X156432458Y-116541319D01*
X156443189Y-116600709D01*
X156340367Y-116495203D01*
X156254758Y-116419193D01*
X156157934Y-116352829D01*
X156058872Y-116301546D01*
X155971801Y-116271966D01*
X155954951Y-116269786D01*
X155951689Y-116276043D01*
X155964093Y-116293883D01*
X155994240Y-116326447D01*
X156035078Y-116367767D01*
X156079664Y-116413659D01*
X156114954Y-116452470D01*
X156136403Y-116479053D01*
X156140768Y-116487367D01*
X156127989Y-116489726D01*
X156094284Y-116483046D01*
X156046602Y-116468762D01*
X156040270Y-116466605D01*
X155916675Y-116433873D01*
X155772039Y-116412074D01*
X155612952Y-116401049D01*
X155446007Y-116400638D01*
X155277795Y-116410681D01*
X155114908Y-116431018D01*
X154963939Y-116461490D01*
X154849179Y-116495496D01*
X154811682Y-116506216D01*
X154788992Y-116507854D01*
X154785903Y-116504989D01*
X154795233Y-116489495D01*
X154820675Y-116456617D01*
X154858405Y-116411093D01*
X154904600Y-116357659D01*
X154907325Y-116354569D01*
X154957149Y-116297564D01*
X154988853Y-116259345D01*
X154989366Y-116258599D01*
X155902550Y-116258599D01*
X155909994Y-116266043D01*
X155917438Y-116258599D01*
X155909994Y-116251155D01*
X155902550Y-116258599D01*
X154989366Y-116258599D01*
X155004400Y-116236716D01*
X155005755Y-116226478D01*
X154994881Y-116225436D01*
X154985490Y-116227360D01*
X154954549Y-116238023D01*
X154904525Y-116258791D01*
X154842956Y-116286425D01*
X154791849Y-116310620D01*
X154676394Y-116375185D01*
X154575229Y-116448845D01*
X154494121Y-116527017D01*
X154454477Y-116578704D01*
X154430137Y-116615926D01*
X154429357Y-116549906D01*
X154442750Y-116464084D01*
X154485204Y-116379572D01*
X154557048Y-116295747D01*
X154571777Y-116281914D01*
X154686230Y-116195755D01*
X154822218Y-116127153D01*
X154980678Y-116075771D01*
X155162550Y-116041271D01*
X155276549Y-116029072D01*
X155461568Y-116022470D01*
X155637377Y-116032577D01*
G37*
G36*
X159160175Y-104559322D02*
G01*
X159238631Y-104613245D01*
X159251104Y-104625083D01*
X159312234Y-104694189D01*
X159367836Y-104775987D01*
X159418343Y-104872181D01*
X159464184Y-104984478D01*
X159505790Y-105114583D01*
X159543594Y-105264203D01*
X159578025Y-105435044D01*
X159609514Y-105628811D01*
X159638493Y-105847210D01*
X159665392Y-106091948D01*
X159690643Y-106364730D01*
X159690675Y-106365105D01*
X159705387Y-106560570D01*
X159717679Y-106771869D01*
X159727536Y-106995003D01*
X159734946Y-107225969D01*
X159739896Y-107460766D01*
X159742371Y-107695394D01*
X159742360Y-107925851D01*
X159739848Y-108148135D01*
X159734822Y-108358246D01*
X159727269Y-108552183D01*
X159717176Y-108725943D01*
X159704529Y-108875526D01*
X159699174Y-108924166D01*
X159666697Y-109197822D01*
X159711827Y-109312028D01*
X159760134Y-109444200D01*
X159793897Y-109562347D01*
X159815522Y-109676928D01*
X159827409Y-109798403D01*
X159828635Y-109820504D01*
X159828853Y-110004394D01*
X159809466Y-110170980D01*
X159769723Y-110326009D01*
X159758364Y-110358611D01*
X159727427Y-110431430D01*
X159686934Y-110509987D01*
X159641733Y-110586194D01*
X159596669Y-110651963D01*
X159556589Y-110699208D01*
X159551244Y-110704253D01*
X159528283Y-110733181D01*
X159520487Y-110756309D01*
X159528377Y-110779888D01*
X159550304Y-110823784D01*
X159583652Y-110883627D01*
X159625803Y-110955049D01*
X159674143Y-111033682D01*
X159726054Y-111115155D01*
X159778920Y-111195101D01*
X159813224Y-111245136D01*
X159980126Y-111466232D01*
X160153945Y-111660081D01*
X160336787Y-111828822D01*
X160530759Y-111974594D01*
X160532913Y-111976045D01*
X160586274Y-112012984D01*
X160629439Y-112044842D01*
X160656921Y-112067456D01*
X160663868Y-112075474D01*
X160653623Y-112087519D01*
X160618762Y-112098787D01*
X160564442Y-112108883D01*
X160495820Y-112117411D01*
X160418055Y-112123977D01*
X160336304Y-112128186D01*
X160255725Y-112129642D01*
X160181476Y-112127950D01*
X160118715Y-112122716D01*
X160095256Y-112119035D01*
X160037259Y-112107990D01*
X160216838Y-112322707D01*
X160326188Y-112455496D01*
X160426633Y-112581515D01*
X160515965Y-112697820D01*
X160591979Y-112801468D01*
X160652468Y-112889514D01*
X160695225Y-112959015D01*
X160699263Y-112966343D01*
X160730806Y-113027477D01*
X160761217Y-113091441D01*
X160787479Y-113151295D01*
X160806579Y-113200103D01*
X160815499Y-113230927D01*
X160815797Y-113234455D01*
X160806232Y-113233010D01*
X160781127Y-113214391D01*
X160745872Y-113182607D01*
X160745076Y-113181841D01*
X160691983Y-113134018D01*
X160630664Y-113083507D01*
X160592468Y-113054493D01*
X160553821Y-113028038D01*
X160498139Y-112991873D01*
X160430328Y-112948989D01*
X160355294Y-112902377D01*
X160277943Y-112855028D01*
X160203182Y-112809931D01*
X160135916Y-112770077D01*
X160081053Y-112738458D01*
X160043498Y-112718064D01*
X160031412Y-112712496D01*
X160030772Y-112716902D01*
X160049965Y-112736477D01*
X160085479Y-112767902D01*
X160123564Y-112799573D01*
X160200183Y-112864558D01*
X160269110Y-112929584D01*
X160335297Y-113000136D01*
X160403696Y-113081699D01*
X160479257Y-113179759D01*
X160534332Y-113254629D01*
X160613753Y-113362792D01*
X160681285Y-113451623D01*
X160741461Y-113526628D01*
X160798816Y-113593313D01*
X160857883Y-113657185D01*
X160908338Y-113708873D01*
X160955952Y-113758384D01*
X160981047Y-113790521D01*
X160982383Y-113807056D01*
X160958721Y-113809764D01*
X160908822Y-113800420D01*
X160853974Y-113786710D01*
X160749770Y-113750263D01*
X160632860Y-113691617D01*
X160501867Y-113609989D01*
X160355410Y-113504599D01*
X160354250Y-113503717D01*
X160242670Y-113419712D01*
X160135929Y-113340983D01*
X160037882Y-113270281D01*
X159952385Y-113210357D01*
X159883293Y-113163963D01*
X159842398Y-113138425D01*
X159807419Y-113118362D01*
X159793128Y-113113205D01*
X159794629Y-113122624D01*
X159801360Y-113135676D01*
X159825921Y-113168623D01*
X159852781Y-113194202D01*
X159891228Y-113231305D01*
X159942299Y-113291026D01*
X160003844Y-113370126D01*
X160073715Y-113465367D01*
X160149765Y-113573513D01*
X160229845Y-113691324D01*
X160311806Y-113815563D01*
X160393501Y-113942992D01*
X160472782Y-114070372D01*
X160547499Y-114194467D01*
X160615506Y-114312038D01*
X160674653Y-114419846D01*
X160705452Y-114479408D01*
X160765863Y-114603383D01*
X160812621Y-114708783D01*
X160848157Y-114802094D01*
X160874899Y-114889803D01*
X160895277Y-114978396D01*
X160898385Y-114994558D01*
X160911209Y-115070632D01*
X160916563Y-115121001D01*
X160914626Y-115144938D01*
X160905577Y-115141719D01*
X160889595Y-115110616D01*
X160877337Y-115079825D01*
X160823184Y-114963895D01*
X160745041Y-114837848D01*
X160645585Y-114704818D01*
X160527490Y-114567942D01*
X160393433Y-114430356D01*
X160246088Y-114295196D01*
X160115787Y-114187236D01*
X160057311Y-114142598D01*
X160004072Y-114104753D01*
X159958824Y-114075126D01*
X159924316Y-114055142D01*
X159903299Y-114046228D01*
X159898524Y-114049809D01*
X159912742Y-114067311D01*
X159948704Y-114100159D01*
X159950121Y-114101374D01*
X159987283Y-114137476D01*
X160027449Y-114185600D01*
X160072788Y-114248895D01*
X160125469Y-114330511D01*
X160187661Y-114433598D01*
X160235605Y-114516029D01*
X160371697Y-114771756D01*
X160485296Y-115026006D01*
X160575070Y-115275366D01*
X160639687Y-115516425D01*
X160654341Y-115588611D01*
X160672501Y-115714313D01*
X160684170Y-115857122D01*
X160689448Y-116009749D01*
X160688433Y-116164902D01*
X160681226Y-116315292D01*
X160667924Y-116453629D01*
X160648629Y-116572622D01*
X160640445Y-116608482D01*
X160634518Y-116618700D01*
X160627595Y-116603509D01*
X160619145Y-116561249D01*
X160613371Y-116523934D01*
X160599613Y-116452883D01*
X160580139Y-116380682D01*
X160559006Y-116322236D01*
X160557629Y-116319176D01*
X160500767Y-116225271D01*
X160417692Y-116131360D01*
X160311861Y-116039970D01*
X160186732Y-115953629D01*
X160045761Y-115874865D01*
X159892405Y-115806204D01*
X159818259Y-115778572D01*
X159745163Y-115752868D01*
X159691361Y-115735070D01*
X159656603Y-115727337D01*
X159640641Y-115731824D01*
X159643226Y-115750691D01*
X159664110Y-115786094D01*
X159703042Y-115840192D01*
X159759776Y-115915141D01*
X159796883Y-115963931D01*
X159864118Y-116051863D01*
X159935344Y-116143866D01*
X160005013Y-116232856D01*
X160067581Y-116311745D01*
X160114886Y-116370264D01*
X160193633Y-116466645D01*
X160254214Y-116541765D01*
X160297747Y-116597055D01*
X160325350Y-116633945D01*
X160338138Y-116653864D01*
X160339361Y-116657555D01*
X160326655Y-116657901D01*
X160294164Y-116650493D01*
X160268640Y-116643035D01*
X160237590Y-116635559D01*
X160197716Y-116630429D01*
X160145913Y-116627666D01*
X160079078Y-116627291D01*
X159994107Y-116629324D01*
X159887896Y-116633786D01*
X159757340Y-116640697D01*
X159647040Y-116647171D01*
X159501837Y-116646816D01*
X159370065Y-116625718D01*
X159244402Y-116581795D01*
X159117522Y-116512965D01*
X159073828Y-116484219D01*
X159036555Y-116459235D01*
X159020202Y-116450606D01*
X159021335Y-116457555D01*
X159033430Y-116475056D01*
X159139739Y-116627772D01*
X159230215Y-116770774D01*
X159303404Y-116901451D01*
X159357852Y-117017193D01*
X159392105Y-117115392D01*
X159393709Y-117121545D01*
X159412277Y-117231296D01*
X159417906Y-117355703D01*
X159411412Y-117486196D01*
X159393612Y-117614207D01*
X159365322Y-117731165D01*
X159327358Y-117828500D01*
X159326138Y-117830909D01*
X159293731Y-117894434D01*
X159275542Y-117841528D01*
X159247700Y-117779644D01*
X159203476Y-117703587D01*
X159147641Y-117620141D01*
X159084966Y-117536093D01*
X159020220Y-117458226D01*
X158965079Y-117399970D01*
X158898768Y-117335362D01*
X158891977Y-117526523D01*
X158888274Y-117610513D01*
X158883272Y-117672267D01*
X158875726Y-117719327D01*
X158864393Y-117759233D01*
X158848029Y-117799527D01*
X158846329Y-117803294D01*
X158825476Y-117847556D01*
X158809448Y-117878484D01*
X158802210Y-117888904D01*
X158799692Y-117875172D01*
X158797572Y-117838602D01*
X158796204Y-117786135D01*
X158795974Y-117766072D01*
X158783743Y-117618584D01*
X158748141Y-117474793D01*
X158693479Y-117339590D01*
X158667142Y-117287620D01*
X158634798Y-117229352D01*
X158599776Y-117170091D01*
X158565405Y-117115141D01*
X158535014Y-117069807D01*
X158511931Y-117039395D01*
X158499486Y-117029209D01*
X158498917Y-117029543D01*
X158499582Y-117045658D01*
X158506585Y-117083082D01*
X158518490Y-117134379D01*
X158521354Y-117145733D01*
X158562267Y-117359669D01*
X158580253Y-117588510D01*
X158575573Y-117828481D01*
X158548490Y-118075806D01*
X158499265Y-118326709D01*
X158428159Y-118577414D01*
X158420603Y-118600113D01*
X158394915Y-118672819D01*
X158366159Y-118748529D01*
X158336426Y-118822394D01*
X158307807Y-118889563D01*
X158282394Y-118945185D01*
X158262277Y-118984411D01*
X158249547Y-119002390D01*
X158247075Y-119002635D01*
X158246981Y-118986429D01*
X158251619Y-118948061D01*
X158260068Y-118894606D01*
X158264237Y-118870971D01*
X158281123Y-118702510D01*
X158273955Y-118523896D01*
X158243896Y-118340817D01*
X158192107Y-118158960D01*
X158119749Y-117984011D01*
X158060560Y-117873862D01*
X158016280Y-117800151D01*
X157984692Y-117751329D01*
X157963652Y-117726467D01*
X157951020Y-117724634D01*
X157944653Y-117744901D01*
X157942409Y-117786335D01*
X157942149Y-117822437D01*
X157934968Y-118002256D01*
X157914825Y-118191572D01*
X157883191Y-118383292D01*
X157841536Y-118570326D01*
X157791333Y-118745581D01*
X157734051Y-118901965D01*
X157704433Y-118968329D01*
X157661665Y-119057661D01*
X157670006Y-118886442D01*
X157672341Y-118811689D01*
X157672786Y-118728412D01*
X157671571Y-118641469D01*
X157668925Y-118555716D01*
X157665078Y-118476011D01*
X157660259Y-118407212D01*
X157654696Y-118354177D01*
X157648620Y-118321761D01*
X157642997Y-118314170D01*
X157634220Y-118333154D01*
X157629744Y-118369339D01*
X157629599Y-118377385D01*
X157626017Y-118432673D01*
X157616127Y-118510735D01*
X157601139Y-118605533D01*
X157582265Y-118711027D01*
X157560714Y-118821178D01*
X157537696Y-118929949D01*
X157514423Y-119031301D01*
X157492105Y-119119194D01*
X157471951Y-119187591D01*
X157461296Y-119217017D01*
X157451823Y-119238542D01*
X157445378Y-119245120D01*
X157440756Y-119233188D01*
X157436750Y-119199185D01*
X157432154Y-119139547D01*
X157431371Y-119128623D01*
X157415007Y-118976618D01*
X157389231Y-118839666D01*
X157355224Y-118723331D01*
X157334651Y-118672769D01*
X157294637Y-118585649D01*
X157294144Y-118791878D01*
X157281623Y-119012392D01*
X157244433Y-119229813D01*
X157181541Y-119448568D01*
X157091910Y-119673088D01*
X157084014Y-119690428D01*
X157057410Y-119744477D01*
X157024158Y-119806353D01*
X156987493Y-119870709D01*
X156950653Y-119932193D01*
X156916873Y-119985458D01*
X156889392Y-120025154D01*
X156871444Y-120045932D01*
X156867816Y-120047755D01*
X156855653Y-120035496D01*
X156847629Y-120016879D01*
X156836616Y-119995333D01*
X156811674Y-119953412D01*
X156775507Y-119895440D01*
X156730819Y-119825741D01*
X156680313Y-119748638D01*
X156673077Y-119737717D01*
X156590060Y-119610019D01*
X156523930Y-119502116D01*
X156472905Y-119410606D01*
X156435201Y-119332089D01*
X156409034Y-119263163D01*
X156393430Y-119204407D01*
X156382106Y-119162198D01*
X156370200Y-119136713D01*
X156362787Y-119132914D01*
X156344096Y-119155017D01*
X156320581Y-119197270D01*
X156296150Y-119251353D01*
X156274712Y-119308948D01*
X156265227Y-119340545D01*
X156248455Y-119453793D01*
X156253522Y-119579414D01*
X156279538Y-119710539D01*
X156325613Y-119840302D01*
X156331705Y-119853843D01*
X156348222Y-119893402D01*
X156356378Y-119920395D01*
X156356135Y-119926682D01*
X156341851Y-119921170D01*
X156310549Y-119898121D01*
X156266250Y-119861071D01*
X156212979Y-119813552D01*
X156154757Y-119759098D01*
X156095608Y-119701244D01*
X156070245Y-119675539D01*
X156011673Y-119611833D01*
X155947113Y-119535921D01*
X155887098Y-119460372D01*
X155864405Y-119429877D01*
X155819356Y-119363184D01*
X155771060Y-119284170D01*
X155722506Y-119198573D01*
X155676683Y-119112132D01*
X155636581Y-119030586D01*
X155605189Y-118959674D01*
X155585497Y-118905134D01*
X155580962Y-118885735D01*
X155572930Y-118834332D01*
X155743732Y-118786885D01*
X155999477Y-118704479D01*
X156239914Y-118603052D01*
X156466364Y-118481424D01*
X156680146Y-118338416D01*
X156882583Y-118172847D01*
X157074994Y-117983537D01*
X157258701Y-117769304D01*
X157435024Y-117528970D01*
X157605284Y-117261353D01*
X157760733Y-116984329D01*
X157805077Y-116901986D01*
X157849443Y-116821851D01*
X157890024Y-116750648D01*
X157923010Y-116695102D01*
X157937635Y-116671992D01*
X158014594Y-116570259D01*
X158117136Y-116459241D01*
X158245911Y-116338289D01*
X158401568Y-116206754D01*
X158410229Y-116199758D01*
X158486143Y-116137386D01*
X158561500Y-116073386D01*
X158630053Y-116013209D01*
X158685553Y-115962308D01*
X158712137Y-115936300D01*
X158823119Y-115802040D01*
X158917625Y-115643625D01*
X158995232Y-115461983D01*
X159055514Y-115258040D01*
X159082884Y-115127063D01*
X159092524Y-115054740D01*
X159100308Y-114959192D01*
X159106130Y-114846918D01*
X159109879Y-114724419D01*
X159111449Y-114598195D01*
X159110730Y-114474746D01*
X159107616Y-114360573D01*
X159101998Y-114262176D01*
X159097991Y-114218857D01*
X159090644Y-114162024D01*
X159083393Y-114131983D01*
X159075388Y-114129328D01*
X159065780Y-114154651D01*
X159053719Y-114208547D01*
X159044727Y-114256078D01*
X158993042Y-114476826D01*
X158921692Y-114684046D01*
X158832140Y-114875652D01*
X158725848Y-115049559D01*
X158604279Y-115203684D01*
X158468895Y-115335942D01*
X158321158Y-115444248D01*
X158162532Y-115526516D01*
X158149815Y-115531749D01*
X158102375Y-115549308D01*
X158066587Y-115559568D01*
X158050535Y-115560374D01*
X158049833Y-115542813D01*
X158056316Y-115505531D01*
X158066038Y-115466185D01*
X158087529Y-115369788D01*
X158099559Y-115275264D01*
X158101288Y-115191883D01*
X158095335Y-115142299D01*
X158082545Y-115083092D01*
X158024615Y-115179521D01*
X157991116Y-115234575D01*
X157948288Y-115303964D01*
X157902804Y-115376910D01*
X157877341Y-115417384D01*
X157824713Y-115502927D01*
X157778759Y-115583465D01*
X157738115Y-115662803D01*
X157701416Y-115744747D01*
X157667297Y-115833102D01*
X157634394Y-115931674D01*
X157601343Y-116044268D01*
X157566779Y-116174690D01*
X157529338Y-116326745D01*
X157487655Y-116504239D01*
X157487650Y-116504261D01*
X157425430Y-116757798D01*
X157362061Y-116983351D01*
X157296559Y-117182712D01*
X157227939Y-117357674D01*
X157155217Y-117510029D01*
X157077408Y-117641569D01*
X156993528Y-117754089D01*
X156902592Y-117849379D01*
X156803616Y-117929232D01*
X156695616Y-117995442D01*
X156658298Y-118014375D01*
X156560134Y-118056585D01*
X156451091Y-118094581D01*
X156338067Y-118126704D01*
X156227961Y-118151293D01*
X156127669Y-118166689D01*
X156044089Y-118171232D01*
X156014181Y-118169342D01*
X155995757Y-118165580D01*
X155995814Y-118158990D01*
X156017342Y-118147364D01*
X156063329Y-118128494D01*
X156076385Y-118123400D01*
X156242055Y-118049373D01*
X156394729Y-117961955D01*
X156529550Y-117864437D01*
X156641659Y-117760109D01*
X156682482Y-117712967D01*
X156735620Y-117644781D01*
X156769997Y-117596415D01*
X156785591Y-117568440D01*
X156782381Y-117561426D01*
X156760346Y-117575946D01*
X156719465Y-117612570D01*
X156684956Y-117646317D01*
X156599100Y-117726177D01*
X156524247Y-117782550D01*
X156474051Y-117810641D01*
X156435964Y-117827599D01*
X156402531Y-117839030D01*
X156366550Y-117845938D01*
X156320821Y-117849325D01*
X156258140Y-117850192D01*
X156192878Y-117849765D01*
X156098618Y-117847011D01*
X156015945Y-117841092D01*
X155951934Y-117832613D01*
X155926703Y-117826923D01*
X155854080Y-117805999D01*
X155963925Y-117717596D01*
X156124396Y-117575712D01*
X156257249Y-117429997D01*
X156364615Y-117277859D01*
X156437157Y-117142142D01*
X156478513Y-117044719D01*
X156509652Y-116950272D01*
X156532771Y-116849881D01*
X156550066Y-116734624D01*
X156559389Y-116645745D01*
X156570026Y-116488752D01*
X156570448Y-116358342D01*
X156560564Y-116253095D01*
X156540287Y-116171594D01*
X156527892Y-116142575D01*
X156471970Y-116058879D01*
X156392159Y-115978894D01*
X156294329Y-115907381D01*
X156184349Y-115849099D01*
X156147282Y-115833919D01*
X156118166Y-115825908D01*
X156114307Y-115833601D01*
X156135684Y-115856972D01*
X156182274Y-115895989D01*
X156212899Y-115919742D01*
X156324677Y-116013555D01*
X156412921Y-116106049D01*
X156475355Y-116194725D01*
X156490809Y-116224659D01*
X156509412Y-116267146D01*
X156520512Y-116297143D01*
X156522005Y-116306651D01*
X156509554Y-116300088D01*
X156482494Y-116278264D01*
X156459341Y-116257535D01*
X156322707Y-116150479D01*
X156164828Y-116061701D01*
X155988955Y-115992544D01*
X155798334Y-115944351D01*
X155650190Y-115923024D01*
X155510543Y-115915557D01*
X155357940Y-115918637D01*
X155200094Y-115931322D01*
X155044719Y-115952669D01*
X154899526Y-115981734D01*
X154772229Y-116017574D01*
X154720059Y-116036780D01*
X154673589Y-116055221D01*
X154639297Y-116068119D01*
X154625406Y-116072491D01*
X154633064Y-116062921D01*
X154658607Y-116036739D01*
X154698232Y-115997736D01*
X154748137Y-115949703D01*
X154758249Y-115940076D01*
X154809606Y-115890002D01*
X154851049Y-115847165D01*
X154878808Y-115815646D01*
X154889115Y-115799528D01*
X154888844Y-115798595D01*
X154871026Y-115798612D01*
X154832078Y-115808014D01*
X154778420Y-115824892D01*
X154716475Y-115847337D01*
X154690551Y-115857552D01*
X154680379Y-115856532D01*
X154688352Y-115837006D01*
X154715241Y-115797275D01*
X154722226Y-115787743D01*
X154803052Y-115659113D01*
X154869410Y-115514935D01*
X154916179Y-115367100D01*
X154928332Y-115309169D01*
X154930767Y-115291588D01*
X154929081Y-115281838D01*
X154920789Y-115281865D01*
X154903409Y-115293613D01*
X154874458Y-115319026D01*
X154831454Y-115360051D01*
X154771914Y-115418631D01*
X154709756Y-115480388D01*
X154630329Y-115558641D01*
X154569462Y-115616689D01*
X154525367Y-115656067D01*
X154496255Y-115678309D01*
X154480337Y-115684950D01*
X154476019Y-115680824D01*
X154480310Y-115646011D01*
X154501160Y-115591782D01*
X154536480Y-115521936D01*
X154584184Y-115440274D01*
X154642185Y-115350595D01*
X154708395Y-115256700D01*
X154710664Y-115253616D01*
X154754129Y-115191750D01*
X154800323Y-115121106D01*
X154846723Y-115046144D01*
X154890806Y-114971323D01*
X154930048Y-114901100D01*
X154961926Y-114839935D01*
X154983918Y-114792285D01*
X154993499Y-114762609D01*
X154992544Y-114755542D01*
X154981223Y-114764153D01*
X154953195Y-114791505D01*
X154911715Y-114834245D01*
X154860041Y-114889022D01*
X154804483Y-114949146D01*
X154743816Y-115014372D01*
X154687861Y-115072619D01*
X154640526Y-115119963D01*
X154605721Y-115152483D01*
X154588598Y-115165707D01*
X154568717Y-115175069D01*
X154567449Y-115170759D01*
X154585492Y-115149144D01*
X154593506Y-115140159D01*
X154679361Y-115029845D01*
X154760441Y-114898291D01*
X154832084Y-114754036D01*
X154889634Y-114605616D01*
X154896089Y-114585665D01*
X154926761Y-114467817D01*
X154953241Y-114324624D01*
X154975448Y-114160230D01*
X154993301Y-113978783D01*
X155006721Y-113784429D01*
X155015626Y-113581313D01*
X155019936Y-113373582D01*
X155019572Y-113165382D01*
X155014452Y-112960860D01*
X155004496Y-112764160D01*
X154989624Y-112579430D01*
X154969756Y-112410816D01*
X154944810Y-112262463D01*
X154941449Y-112246113D01*
X154924114Y-112170809D01*
X154918381Y-112149337D01*
X156230097Y-112149337D01*
X156236113Y-112320557D01*
X156243378Y-112429241D01*
X156258433Y-112528179D01*
X156283336Y-112622982D01*
X156320143Y-112719263D01*
X156370912Y-112822632D01*
X156437700Y-112938702D01*
X156498095Y-113035211D01*
X156601254Y-113206460D01*
X156680591Y-113361605D01*
X156736593Y-113501742D01*
X156769743Y-113627969D01*
X156775179Y-113662337D01*
X156784383Y-113708140D01*
X156795150Y-113731307D01*
X156804703Y-113730021D01*
X156810265Y-113702465D01*
X156810756Y-113685601D01*
X156817020Y-113599679D01*
X156834159Y-113505046D01*
X156859696Y-113410134D01*
X156891155Y-113323375D01*
X156926058Y-113253200D01*
X156946336Y-113224106D01*
X156979227Y-113188971D01*
X157017381Y-113159531D01*
X157066234Y-113133015D01*
X157131221Y-113106648D01*
X157217779Y-113077656D01*
X157257415Y-113065387D01*
X157415320Y-113010829D01*
X157547198Y-112950423D01*
X157656612Y-112881650D01*
X157747124Y-112801988D01*
X157822299Y-112708918D01*
X157868370Y-112633218D01*
X157886276Y-112598954D01*
X157900485Y-112573568D01*
X157915458Y-112555995D01*
X157935653Y-112545173D01*
X157965533Y-112540036D01*
X158009557Y-112539521D01*
X158072186Y-112542563D01*
X158157880Y-112548099D01*
X158210983Y-112551482D01*
X158290568Y-112555025D01*
X158366806Y-112555970D01*
X158430735Y-112554350D01*
X158471534Y-112550529D01*
X158505734Y-112544477D01*
X158520672Y-112540282D01*
X158513829Y-112536964D01*
X158482685Y-112533542D01*
X158424720Y-112529037D01*
X158414284Y-112528262D01*
X158348678Y-112522022D01*
X158296435Y-112512451D01*
X158246596Y-112496344D01*
X158188205Y-112470494D01*
X158146288Y-112449867D01*
X158073685Y-112411238D01*
X158021024Y-112376873D01*
X157980262Y-112340864D01*
X157949736Y-112305538D01*
X157893706Y-112235231D01*
X157850241Y-112183701D01*
X157814104Y-112145856D01*
X157780055Y-112116606D01*
X157742856Y-112090861D01*
X157705792Y-112068480D01*
X157592421Y-112014465D01*
X157481895Y-111987949D01*
X157368468Y-111987918D01*
X157306188Y-111998086D01*
X157217655Y-112020223D01*
X157148051Y-112047089D01*
X157086543Y-112084365D01*
X157022296Y-112137734D01*
X156999720Y-112158824D01*
X156908715Y-112245421D01*
X156876402Y-112215065D01*
X156854526Y-112186988D01*
X156826520Y-112140806D01*
X156797944Y-112085800D01*
X156794105Y-112077691D01*
X156768640Y-112026877D01*
X156750975Y-112001055D01*
X156740863Y-112000994D01*
X156738056Y-112027467D01*
X156742307Y-112081243D01*
X156753366Y-112163094D01*
X156757637Y-112191071D01*
X156778304Y-112352501D01*
X156786480Y-112489586D01*
X156782332Y-112601901D01*
X156766024Y-112689019D01*
X156737723Y-112750517D01*
X156697594Y-112785969D01*
X156645801Y-112794950D01*
X156582512Y-112777034D01*
X156538844Y-112753043D01*
X156464596Y-112693055D01*
X156400054Y-112612404D01*
X156343813Y-112508672D01*
X156294468Y-112379445D01*
X156266595Y-112284994D01*
X156230097Y-112149337D01*
X154918381Y-112149337D01*
X154904786Y-112098416D01*
X154885264Y-112034533D01*
X154867343Y-111984755D01*
X154852822Y-111954681D01*
X154845847Y-111948341D01*
X154836841Y-111961704D01*
X154824091Y-111997023D01*
X154810115Y-112047141D01*
X154807878Y-112056283D01*
X154760511Y-112238139D01*
X154711636Y-112395687D01*
X154661724Y-112527779D01*
X154611248Y-112633267D01*
X154560678Y-112711005D01*
X154522573Y-112750737D01*
X154462945Y-112788435D01*
X154410670Y-112797385D01*
X154365955Y-112777747D01*
X154329006Y-112729681D01*
X154300029Y-112653347D01*
X154281497Y-112564272D01*
X154273193Y-112450756D01*
X154282984Y-112328478D01*
X154311506Y-112192283D01*
X154338953Y-112098347D01*
X154357302Y-112038424D01*
X154370731Y-111989976D01*
X154377559Y-111959355D01*
X154377679Y-111952036D01*
X154367133Y-111960399D01*
X154344818Y-111988002D01*
X154315269Y-112029167D01*
X154310836Y-112035656D01*
X154276099Y-112083532D01*
X154243133Y-112123481D01*
X154218981Y-112146979D01*
X154218677Y-112147194D01*
X154198179Y-112158358D01*
X154177472Y-112157714D01*
X154147472Y-112143275D01*
X154118144Y-112125208D01*
X154017210Y-112074539D01*
X153906351Y-112045986D01*
X153788029Y-112037673D01*
X153682524Y-112043691D01*
X153592671Y-112064053D01*
X153506408Y-112102218D01*
X153453861Y-112133492D01*
X153386710Y-112179958D01*
X153339325Y-112222498D01*
X153303970Y-112268606D01*
X153290136Y-112292131D01*
X153264735Y-112318963D01*
X153219916Y-112348498D01*
X153162152Y-112378216D01*
X153097917Y-112405599D01*
X153033683Y-112428129D01*
X152975923Y-112443285D01*
X152931112Y-112448549D01*
X152905947Y-112441633D01*
X152900409Y-112416657D01*
X152909878Y-112371796D01*
X152910353Y-112370315D01*
X152921773Y-112340008D01*
X152944549Y-112284185D01*
X152977952Y-112204544D01*
X153021253Y-112102784D01*
X153073722Y-111980603D01*
X153134631Y-111839698D01*
X153203249Y-111681769D01*
X153278849Y-111508514D01*
X153356827Y-111330463D01*
X153454700Y-111107278D01*
X153541193Y-110909875D01*
X153616938Y-110736790D01*
X153682565Y-110586558D01*
X153738708Y-110457716D01*
X153785998Y-110348798D01*
X153825067Y-110258340D01*
X153856546Y-110184878D01*
X153881069Y-110126947D01*
X153899266Y-110083083D01*
X153911770Y-110051822D01*
X153919213Y-110031698D01*
X153922226Y-110021248D01*
X153922362Y-110019888D01*
X153911008Y-110023939D01*
X153880642Y-110041531D01*
X153836807Y-110069362D01*
X153814420Y-110084176D01*
X153762816Y-110118538D01*
X153718931Y-110147425D01*
X153689971Y-110166106D01*
X153684623Y-110169400D01*
X153685028Y-110164392D01*
X153702409Y-110141114D01*
X153733744Y-110103358D01*
X153774473Y-110056646D01*
X153833462Y-109987143D01*
X153898405Y-109905702D01*
X153959041Y-109825364D01*
X153984750Y-109789380D01*
X154024291Y-109730976D01*
X154067031Y-109665160D01*
X154110118Y-109596661D01*
X154150706Y-109530205D01*
X154185943Y-109470519D01*
X154212982Y-109422332D01*
X154228972Y-109390370D01*
X154231780Y-109379518D01*
X154219956Y-109387623D01*
X154190064Y-109412587D01*
X154145931Y-109451091D01*
X154091387Y-109499816D01*
X154056360Y-109531571D01*
X153937145Y-109638788D01*
X153799060Y-109760542D01*
X153646641Y-109892965D01*
X153484428Y-110032189D01*
X153316957Y-110174348D01*
X153148766Y-110315572D01*
X152984394Y-110451996D01*
X152828378Y-110579750D01*
X152790827Y-110610193D01*
X152668090Y-110709051D01*
X152552820Y-110801082D01*
X152447050Y-110884715D01*
X152352817Y-110958377D01*
X152272156Y-111020497D01*
X152207102Y-111069501D01*
X152159691Y-111103818D01*
X152131958Y-111121877D01*
X152125439Y-111124141D01*
X152130560Y-111109937D01*
X152151357Y-111079550D01*
X152183636Y-111038977D01*
X152191459Y-111029748D01*
X152268555Y-110936241D01*
X152359781Y-110819381D01*
X152463675Y-110681181D01*
X152578770Y-110523657D01*
X152703604Y-110348821D01*
X152836712Y-110158688D01*
X152976629Y-109955272D01*
X153033673Y-109871377D01*
X153125117Y-109737086D01*
X153202215Y-109625468D01*
X153266800Y-109534199D01*
X153320705Y-109460954D01*
X153365765Y-109403410D01*
X153403812Y-109359241D01*
X153436681Y-109326124D01*
X153466206Y-109301734D01*
X153494218Y-109283747D01*
X153499479Y-109280884D01*
X153554716Y-109241393D01*
X153585469Y-109194063D01*
X153615487Y-109098042D01*
X153635045Y-108985186D01*
X153644799Y-108850903D01*
X153646219Y-108769619D01*
X153645463Y-108680733D01*
X153642131Y-108612889D01*
X153635246Y-108557394D01*
X153623828Y-108505556D01*
X153611874Y-108464402D01*
X153549117Y-108311971D01*
X153459094Y-108170954D01*
X153387107Y-108086506D01*
X153349507Y-108044913D01*
X153331094Y-108019153D01*
X153333157Y-108009061D01*
X153356983Y-108014473D01*
X153403859Y-108035225D01*
X153475074Y-108071153D01*
X153481478Y-108074479D01*
X153577975Y-108134071D01*
X153659651Y-108206652D01*
X153731487Y-108297627D01*
X153798464Y-108412403D01*
X153805382Y-108425986D01*
X153837228Y-108486067D01*
X153858586Y-108520178D01*
X153869511Y-108530197D01*
X153870057Y-108518002D01*
X153860278Y-108485472D01*
X153840231Y-108434485D01*
X153809969Y-108366919D01*
X153803248Y-108352737D01*
X153732956Y-108231435D01*
X153639668Y-108109295D01*
X153528715Y-107990988D01*
X153405428Y-107881184D01*
X153275138Y-107784554D01*
X153143177Y-107705768D01*
X153014875Y-107649496D01*
X152991823Y-107641882D01*
X152859603Y-107614219D01*
X152765516Y-107608851D01*
X152711065Y-107607519D01*
X152671791Y-107604441D01*
X152653883Y-107600191D01*
X152653851Y-107598491D01*
X152682580Y-107583385D01*
X152733675Y-107567585D01*
X152799814Y-107552692D01*
X152873676Y-107540306D01*
X152947937Y-107532030D01*
X152962569Y-107530984D01*
X153125793Y-107534732D01*
X153296696Y-107565648D01*
X153472579Y-107622990D01*
X153650746Y-107706016D01*
X153701780Y-107734402D01*
X153751149Y-107761693D01*
X153789921Y-107780929D01*
X153811643Y-107788984D01*
X153813930Y-107788700D01*
X153808395Y-107774812D01*
X153781759Y-107747769D01*
X153737990Y-107710483D01*
X153681057Y-107665866D01*
X153614928Y-107616830D01*
X153543571Y-107566290D01*
X153470955Y-107517157D01*
X153401048Y-107472344D01*
X153337820Y-107434763D01*
X153313749Y-107421592D01*
X153270146Y-107396742D01*
X153241959Y-107377119D01*
X153234398Y-107366435D01*
X153235454Y-107365802D01*
X153266142Y-107366962D01*
X153316001Y-107381391D01*
X153379060Y-107406403D01*
X153449349Y-107439312D01*
X153520899Y-107477431D01*
X153587737Y-107518073D01*
X153614637Y-107536434D01*
X153652525Y-107561745D01*
X153670226Y-107569190D01*
X153667427Y-107558330D01*
X153643812Y-107528727D01*
X153599068Y-107479945D01*
X153532882Y-107411544D01*
X153504242Y-107382535D01*
X153381838Y-107263440D01*
X153273666Y-107167700D01*
X153177774Y-107093676D01*
X153103488Y-107046049D01*
X153035593Y-107012713D01*
X152957797Y-106982955D01*
X152880394Y-106960060D01*
X152813676Y-106947313D01*
X152789246Y-106945762D01*
X152747998Y-106941890D01*
X152726202Y-106932390D01*
X152727378Y-106920432D01*
X152750050Y-106910436D01*
X152797211Y-106903512D01*
X152864427Y-106900739D01*
X152942318Y-106901773D01*
X153021503Y-106906268D01*
X153092601Y-106913880D01*
X153146233Y-106924265D01*
X153149149Y-106925104D01*
X153231143Y-106955318D01*
X153334859Y-107003491D01*
X153458860Y-107068865D01*
X153601709Y-107150680D01*
X153761969Y-107248179D01*
X153766032Y-107250715D01*
X153781010Y-107257335D01*
X153776044Y-107246528D01*
X153753547Y-107220530D01*
X153715932Y-107181583D01*
X153665613Y-107131926D01*
X153605002Y-107073798D01*
X153536513Y-107009438D01*
X153462558Y-106941087D01*
X153385552Y-106870983D01*
X153307907Y-106801366D01*
X153232036Y-106734476D01*
X153160352Y-106672551D01*
X153095269Y-106617833D01*
X153039200Y-106572559D01*
X153016162Y-106554813D01*
X152902243Y-106476444D01*
X152783083Y-106407928D01*
X152667558Y-106354022D01*
X152589830Y-106326393D01*
X152545317Y-106311568D01*
X152526429Y-106300834D01*
X152533985Y-106293968D01*
X152568806Y-106290750D01*
X152631712Y-106290959D01*
X152710731Y-106293791D01*
X152784958Y-106298153D01*
X152840085Y-106305082D01*
X152886790Y-106316996D01*
X152935750Y-106336311D01*
X152971376Y-106352805D01*
X153066917Y-106405172D01*
X153173421Y-106476789D01*
X153292670Y-106569004D01*
X153426447Y-106683165D01*
X153518809Y-106766796D01*
X153622330Y-106862116D01*
X153704969Y-106937629D01*
X153767545Y-106993917D01*
X153810877Y-107031564D01*
X153835783Y-107051153D01*
X153843081Y-107053268D01*
X153833590Y-107038493D01*
X153808127Y-107007411D01*
X153767511Y-106960606D01*
X153727997Y-106915985D01*
X153526424Y-106690097D01*
X153343845Y-106486788D01*
X153180074Y-106305858D01*
X153034927Y-106147106D01*
X152908218Y-106010335D01*
X152799761Y-105895344D01*
X152709371Y-105801935D01*
X152636862Y-105729907D01*
X152582049Y-105679061D01*
X152560053Y-105660588D01*
X152485610Y-105601440D01*
X152545164Y-105612288D01*
X152595311Y-105623738D01*
X152654998Y-105640486D01*
X152682884Y-105649371D01*
X152725450Y-105662371D01*
X152753840Y-105668574D01*
X152761049Y-105667678D01*
X152751948Y-105651041D01*
X152727135Y-105616558D01*
X152690351Y-105568933D01*
X152645334Y-105512867D01*
X152595823Y-105453062D01*
X152545557Y-105394221D01*
X152524917Y-105370698D01*
X152452460Y-105294353D01*
X152375784Y-105223004D01*
X152300801Y-105161565D01*
X152233422Y-105114953D01*
X152189697Y-105091945D01*
X152115718Y-105071186D01*
X152050199Y-105075102D01*
X151992229Y-105104570D01*
X151940898Y-105160467D01*
X151895294Y-105243669D01*
X151854506Y-105355053D01*
X151831842Y-105436261D01*
X151789704Y-105626659D01*
X151753391Y-105841834D01*
X151723355Y-106077273D01*
X151700049Y-106328462D01*
X151683925Y-106590891D01*
X151675434Y-106860046D01*
X151674182Y-107009462D01*
X151679181Y-107285670D01*
X151695072Y-107539571D01*
X151723196Y-107777064D01*
X151764890Y-108004043D01*
X151821493Y-108226407D01*
X151894343Y-108450051D01*
X151984779Y-108680871D01*
X152094138Y-108924766D01*
X152122278Y-108983683D01*
X152159835Y-109062106D01*
X152192435Y-109131313D01*
X152218021Y-109186843D01*
X152234534Y-109224236D01*
X152239947Y-109238838D01*
X152226530Y-109244805D01*
X152192064Y-109248008D01*
X152161782Y-109248103D01*
X152083617Y-109246055D01*
X152086968Y-109298165D01*
X152089387Y-109335756D01*
X152093107Y-109393493D01*
X152097509Y-109461808D01*
X152099928Y-109499329D01*
X152102476Y-109586556D01*
X152099228Y-109667982D01*
X152090927Y-109738181D01*
X152078317Y-109791728D01*
X152062141Y-109823198D01*
X152054851Y-109828383D01*
X152032410Y-109826989D01*
X151991049Y-109816529D01*
X151939403Y-109799221D01*
X151935432Y-109797737D01*
X151883804Y-109778992D01*
X151854747Y-109770927D01*
X151843296Y-109772888D01*
X151844485Y-109784222D01*
X151845108Y-109785847D01*
X151883039Y-109913260D01*
X151905582Y-110063885D01*
X151912397Y-110221260D01*
X151910847Y-110314318D01*
X151905208Y-110397501D01*
X151893996Y-110475031D01*
X151875729Y-110551130D01*
X151848924Y-110630020D01*
X151812097Y-110715921D01*
X151763765Y-110813056D01*
X151702447Y-110925647D01*
X151626657Y-111057914D01*
X151606121Y-111093104D01*
X151518990Y-111239595D01*
X151440522Y-111365738D01*
X151366365Y-111477967D01*
X151292168Y-111582716D01*
X151213577Y-111686421D01*
X151154614Y-111760605D01*
X151087694Y-111843521D01*
X151037493Y-111906004D01*
X151002004Y-111950773D01*
X150979218Y-111980545D01*
X150967129Y-111998041D01*
X150963730Y-112005978D01*
X150967012Y-112007074D01*
X150974802Y-112004122D01*
X150997282Y-111994621D01*
X151040280Y-111976644D01*
X151096804Y-111953108D01*
X151138189Y-111935920D01*
X151212285Y-111904669D01*
X151289485Y-111871280D01*
X151357088Y-111841274D01*
X151379394Y-111831086D01*
X151430945Y-111809619D01*
X151473891Y-111796025D01*
X151499701Y-111792950D01*
X151501074Y-111793347D01*
X151525961Y-111811074D01*
X151526633Y-111837442D01*
X151502457Y-111874573D01*
X151465556Y-111912741D01*
X151420443Y-111960164D01*
X151369731Y-112020593D01*
X151323627Y-112081796D01*
X151319239Y-112088104D01*
X151285128Y-112139943D01*
X151244650Y-112205184D01*
X151199842Y-112280139D01*
X151152740Y-112361120D01*
X151105381Y-112444440D01*
X151059803Y-112526411D01*
X151018041Y-112603346D01*
X150982134Y-112671557D01*
X150954117Y-112727356D01*
X150936028Y-112767056D01*
X150929904Y-112786969D01*
X150932642Y-112787997D01*
X150953549Y-112774641D01*
X150992006Y-112749509D01*
X151040781Y-112717334D01*
X151056301Y-112707045D01*
X151123658Y-112663261D01*
X151200183Y-112614889D01*
X151269343Y-112572380D01*
X151269530Y-112572267D01*
X151325289Y-112538597D01*
X151375964Y-112507798D01*
X151412482Y-112485391D01*
X151418416Y-112481698D01*
X151465775Y-112459742D01*
X151501391Y-112458743D01*
X151519748Y-112476468D01*
X151512764Y-112497703D01*
X151482808Y-112535911D01*
X151430678Y-112590134D01*
X151400515Y-112619206D01*
X151315274Y-112705488D01*
X151231244Y-112802510D01*
X151146031Y-112913584D01*
X151057246Y-113042022D01*
X150962495Y-113191134D01*
X150859388Y-113364232D01*
X150847309Y-113385094D01*
X150804318Y-113459537D01*
X150870755Y-113405787D01*
X150948348Y-113347770D01*
X151043351Y-113284078D01*
X151145913Y-113221020D01*
X151246185Y-113164905D01*
X151249853Y-113162976D01*
X151305405Y-113133341D01*
X151355389Y-113105818D01*
X151389964Y-113085836D01*
X151392683Y-113084158D01*
X151427939Y-113069715D01*
X151455959Y-113069476D01*
X151475923Y-113089508D01*
X151479186Y-113118347D01*
X151465081Y-113141451D01*
X151459388Y-113144396D01*
X151438739Y-113161885D01*
X151406673Y-113200482D01*
X151366394Y-113255354D01*
X151321103Y-113321665D01*
X151274002Y-113394582D01*
X151228293Y-113469271D01*
X151187179Y-113540897D01*
X151153861Y-113604627D01*
X151152021Y-113608423D01*
X151124033Y-113668503D01*
X151091354Y-113741877D01*
X151055777Y-113824155D01*
X151019096Y-113910950D01*
X150983105Y-113997872D01*
X150949597Y-114080534D01*
X150920365Y-114154547D01*
X150897205Y-114215522D01*
X150881909Y-114259071D01*
X150876271Y-114280806D01*
X150876578Y-114282315D01*
X150890864Y-114277466D01*
X150922894Y-114258781D01*
X150966375Y-114230003D01*
X150977127Y-114222496D01*
X151040983Y-114179366D01*
X151112755Y-114133670D01*
X151167966Y-114100539D01*
X151220501Y-114068798D01*
X151266646Y-114038243D01*
X151296731Y-114015289D01*
X151297484Y-114014601D01*
X151331350Y-113994757D01*
X151359988Y-113996852D01*
X151375494Y-114019407D01*
X151376407Y-114029361D01*
X151366230Y-114055189D01*
X151340374Y-114089941D01*
X151323173Y-114107994D01*
X151248770Y-114192406D01*
X151179920Y-114297592D01*
X151115683Y-114425544D01*
X151055118Y-114578254D01*
X150997286Y-114757714D01*
X150968840Y-114859068D01*
X150916380Y-115063887D01*
X150875439Y-115246607D01*
X150845209Y-115412233D01*
X150824880Y-115565773D01*
X150813645Y-115712231D01*
X150810639Y-115838839D01*
X150810639Y-116000972D01*
X150859027Y-115969326D01*
X150962862Y-115905126D01*
X151045868Y-115861962D01*
X151107983Y-115839864D01*
X151139734Y-115837012D01*
X151160533Y-115839963D01*
X151167600Y-115845585D01*
X151158127Y-115857010D01*
X151129305Y-115877371D01*
X151078326Y-115909802D01*
X151069547Y-115915305D01*
X150934860Y-116003952D01*
X150825864Y-116086073D01*
X150740073Y-116164772D01*
X150675000Y-116243151D01*
X150628159Y-116324311D01*
X150597063Y-116411354D01*
X150579224Y-116507383D01*
X150576840Y-116529933D01*
X150570701Y-116576415D01*
X150563205Y-116606240D01*
X150556144Y-116612958D01*
X150545089Y-116587472D01*
X150534785Y-116537146D01*
X150525517Y-116466914D01*
X150517571Y-116381709D01*
X150511234Y-116286464D01*
X150506793Y-116186114D01*
X150504532Y-116085592D01*
X150504739Y-115989832D01*
X150507699Y-115903767D01*
X150511837Y-115849162D01*
X150537613Y-115647722D01*
X150574053Y-115460966D01*
X150623452Y-115281330D01*
X150688108Y-115101250D01*
X150770314Y-114913163D01*
X150837233Y-114777180D01*
X150884976Y-114683586D01*
X150933057Y-114589030D01*
X150977998Y-114500373D01*
X151016324Y-114424472D01*
X151044556Y-114368187D01*
X151044637Y-114368024D01*
X151076871Y-114305269D01*
X151108103Y-114247750D01*
X151133621Y-114204008D01*
X151143198Y-114189361D01*
X151149628Y-114174976D01*
X151136072Y-114178958D01*
X151104608Y-114199680D01*
X151057319Y-114235515D01*
X150996284Y-114284838D01*
X150923586Y-114346022D01*
X150841303Y-114417441D01*
X150768352Y-114482311D01*
X150641588Y-114601621D01*
X150537611Y-114712133D01*
X150452633Y-114818479D01*
X150382865Y-114925292D01*
X150338508Y-115007954D01*
X150272538Y-115141952D01*
X150281514Y-115053393D01*
X150299981Y-114948797D01*
X150335989Y-114828966D01*
X150390051Y-114692802D01*
X150462677Y-114539205D01*
X150554380Y-114367076D01*
X150665671Y-114175316D01*
X150767268Y-114010034D01*
X150826100Y-113916198D01*
X150883853Y-113823866D01*
X150937278Y-113738248D01*
X150983127Y-113664551D01*
X151018151Y-113607988D01*
X151031611Y-113586090D01*
X151072789Y-113520739D01*
X151122489Y-113444725D01*
X151171839Y-113371555D01*
X151186050Y-113351028D01*
X151222179Y-113298598D01*
X151250850Y-113255708D01*
X151268427Y-113227875D01*
X151272186Y-113220371D01*
X151260865Y-113219613D01*
X151229516Y-113234000D01*
X151182064Y-113260981D01*
X151122433Y-113298008D01*
X151054549Y-113342533D01*
X150982334Y-113392007D01*
X150909715Y-113443882D01*
X150840614Y-113495609D01*
X150803195Y-113524939D01*
X150683721Y-113616136D01*
X150578147Y-113686561D01*
X150481721Y-113738651D01*
X150389690Y-113774845D01*
X150297302Y-113797582D01*
X150260953Y-113803222D01*
X150181821Y-113813719D01*
X150313845Y-113680732D01*
X150368612Y-113621759D01*
X150434794Y-113544433D01*
X150507204Y-113455118D01*
X150580650Y-113360178D01*
X150634276Y-113287756D01*
X150697514Y-113202509D01*
X150762662Y-113118233D01*
X150825122Y-113040625D01*
X150880295Y-112975384D01*
X150923584Y-112928209D01*
X150927666Y-112924127D01*
X150971393Y-112879913D01*
X151005014Y-112843901D01*
X151024263Y-112820781D01*
X151027029Y-112814868D01*
X151008081Y-112815555D01*
X150969312Y-112831052D01*
X150915004Y-112858690D01*
X150849442Y-112895796D01*
X150776909Y-112939701D01*
X150701689Y-112987733D01*
X150628065Y-113037221D01*
X150560322Y-113085494D01*
X150502742Y-113129881D01*
X150459610Y-113167711D01*
X150456953Y-113170333D01*
X150422373Y-113202463D01*
X150396320Y-113222276D01*
X150385713Y-113225682D01*
X150387049Y-113208031D01*
X150400670Y-113170157D01*
X150423909Y-113117585D01*
X150454096Y-113055842D01*
X150488563Y-112990454D01*
X150524641Y-112926946D01*
X150549583Y-112886325D01*
X150601305Y-112808997D01*
X150667291Y-112715785D01*
X150742457Y-112613437D01*
X150821716Y-112508701D01*
X150899982Y-112408326D01*
X150972169Y-112319059D01*
X151017373Y-112265627D01*
X151060464Y-112214980D01*
X151095119Y-112172255D01*
X151117294Y-112142569D01*
X151123328Y-112131630D01*
X151109411Y-112127375D01*
X151071427Y-112124553D01*
X151015064Y-112123394D01*
X150946007Y-112124128D01*
X150940943Y-112124254D01*
X150856800Y-112124566D01*
X150770648Y-112121683D01*
X150688043Y-112116151D01*
X150614538Y-112108515D01*
X150555691Y-112099321D01*
X150517054Y-112089114D01*
X150504857Y-112081424D01*
X150511003Y-112066817D01*
X150536519Y-112048329D01*
X150539600Y-112046691D01*
X150595657Y-112012831D01*
X150667017Y-111962369D01*
X150747996Y-111899822D01*
X150832910Y-111829712D01*
X150916074Y-111756559D01*
X150979728Y-111696739D01*
X151148408Y-111518608D01*
X151290094Y-111339370D01*
X151404040Y-111160135D01*
X151489504Y-110982013D01*
X151524447Y-110883804D01*
X151548947Y-110792032D01*
X151557706Y-110716528D01*
X151549696Y-110647671D01*
X151523887Y-110575840D01*
X151483193Y-110498256D01*
X151429036Y-110395562D01*
X151389647Y-110299059D01*
X151363144Y-110200848D01*
X151347644Y-110093027D01*
X151341263Y-109967695D01*
X151340875Y-109901155D01*
X151343043Y-109792557D01*
X151349498Y-109699774D01*
X151361874Y-109614833D01*
X151381808Y-109529765D01*
X151410937Y-109436596D01*
X151450896Y-109327356D01*
X151467389Y-109284756D01*
X151494553Y-109212759D01*
X151510710Y-109162533D01*
X151517146Y-109128727D01*
X151515152Y-109105993D01*
X151512205Y-109098648D01*
X151500598Y-109060565D01*
X151489670Y-108995687D01*
X151479517Y-108906991D01*
X151470234Y-108797453D01*
X151461916Y-108670050D01*
X151454657Y-108527759D01*
X151448553Y-108373555D01*
X151443698Y-108210416D01*
X151440188Y-108041317D01*
X151438118Y-107869237D01*
X151437582Y-107697151D01*
X151438676Y-107528035D01*
X151441494Y-107364867D01*
X151446132Y-107210623D01*
X151449442Y-107131734D01*
X151464561Y-106846044D01*
X151482686Y-106569336D01*
X151503477Y-106305385D01*
X151526598Y-106057969D01*
X151551709Y-105830867D01*
X151578472Y-105627853D01*
X151592366Y-105536568D01*
X151629314Y-105339635D01*
X151673953Y-105159756D01*
X151725432Y-104998883D01*
X151782899Y-104858964D01*
X151845501Y-104741951D01*
X151912387Y-104649794D01*
X151982704Y-104584444D01*
X152017624Y-104563068D01*
X152100179Y-104536944D01*
X152193219Y-104535122D01*
X152290403Y-104557336D01*
X152336723Y-104576487D01*
X152416938Y-104624035D01*
X152510304Y-104695547D01*
X152615283Y-104789084D01*
X152730334Y-104902710D01*
X152853919Y-105034487D01*
X152984499Y-105182476D01*
X153120534Y-105344741D01*
X153260485Y-105519344D01*
X153402812Y-105704347D01*
X153545977Y-105897813D01*
X153688439Y-106097805D01*
X153828661Y-106302384D01*
X153965101Y-106509613D01*
X154096222Y-106717554D01*
X154220484Y-106924271D01*
X154270353Y-107010428D01*
X154326512Y-107111426D01*
X154388849Y-107228308D01*
X154454320Y-107354959D01*
X154519884Y-107485263D01*
X154582496Y-107613106D01*
X154639115Y-107732373D01*
X154686697Y-107836947D01*
X154717411Y-107908853D01*
X154782395Y-108080284D01*
X154833545Y-108241262D01*
X154869082Y-108386012D01*
X154876575Y-108426235D01*
X154888209Y-108541571D01*
X154886624Y-108663786D01*
X154872957Y-108785514D01*
X154848342Y-108899390D01*
X154813914Y-108998049D01*
X154778314Y-109063669D01*
X154755955Y-109100556D01*
X154753107Y-109116352D01*
X154768635Y-109111419D01*
X154801400Y-109086123D01*
X154850267Y-109040825D01*
X154850529Y-109040570D01*
X154941046Y-108932341D01*
X155006948Y-108808219D01*
X155048399Y-108667727D01*
X155065567Y-108510384D01*
X155064864Y-108419736D01*
X155061470Y-108352582D01*
X155057765Y-108295238D01*
X155054272Y-108255076D01*
X155052217Y-108241072D01*
X155053687Y-108235232D01*
X155063181Y-108230425D01*
X155083370Y-108226524D01*
X155116926Y-108223402D01*
X155166522Y-108220930D01*
X155234827Y-108218982D01*
X155324515Y-108217428D01*
X155438256Y-108216142D01*
X155578723Y-108214995D01*
X155601055Y-108214836D01*
X155749722Y-108213984D01*
X155870982Y-108213767D01*
X155967201Y-108214248D01*
X156040744Y-108215492D01*
X156093976Y-108217561D01*
X156129262Y-108220519D01*
X156148968Y-108224429D01*
X156155459Y-108229356D01*
X156155480Y-108229725D01*
X156151635Y-108253702D01*
X156141914Y-108295641D01*
X156132784Y-108330404D01*
X156112573Y-108433886D01*
X156101766Y-108557118D01*
X156100208Y-108691650D01*
X156107740Y-108829031D01*
X156124206Y-108960813D01*
X156146498Y-109067506D01*
X156153951Y-109094877D01*
X156159405Y-109108816D01*
X156163400Y-109106399D01*
X156166475Y-109084705D01*
X156169170Y-109040809D01*
X156172024Y-108971788D01*
X156173986Y-108918505D01*
X156178073Y-108824768D01*
X156183496Y-108751475D01*
X156191666Y-108689295D01*
X156203994Y-108628894D01*
X156221889Y-108560941D01*
X156223725Y-108554600D01*
X157306145Y-108554600D01*
X157307266Y-108570500D01*
X157316617Y-108562216D01*
X157333460Y-108527837D01*
X157346183Y-108495688D01*
X157411616Y-108355893D01*
X157495263Y-108239099D01*
X157598454Y-108143776D01*
X157714869Y-108072179D01*
X157784678Y-108038021D01*
X157829670Y-108018646D01*
X157851128Y-108014499D01*
X157850332Y-108026026D01*
X157828565Y-108053672D01*
X157787549Y-108097426D01*
X157695369Y-108207902D01*
X157625736Y-108327066D01*
X157576272Y-108460218D01*
X157544603Y-108612660D01*
X157539645Y-108650510D01*
X157533680Y-108756163D01*
X157537473Y-108876285D01*
X157549957Y-108998753D01*
X157570063Y-109111445D01*
X157585369Y-109169416D01*
X157602917Y-109221475D01*
X157619429Y-109252922D01*
X157641054Y-109272043D01*
X157672238Y-109286456D01*
X157703433Y-109303102D01*
X157738566Y-109331025D01*
X157779317Y-109372302D01*
X157827368Y-109429010D01*
X157884400Y-109503227D01*
X157952094Y-109597030D01*
X158032130Y-109712496D01*
X158109432Y-109826711D01*
X158210106Y-109976172D01*
X158296696Y-110103507D01*
X158371333Y-110211567D01*
X158436146Y-110303204D01*
X158493263Y-110381269D01*
X158544814Y-110448613D01*
X158592929Y-110508088D01*
X158639737Y-110562544D01*
X158687367Y-110614832D01*
X158736318Y-110666128D01*
X158781738Y-110710721D01*
X158834880Y-110759576D01*
X158890740Y-110808495D01*
X158944312Y-110853280D01*
X158990590Y-110889736D01*
X159024569Y-110913664D01*
X159040289Y-110921026D01*
X159037270Y-110910180D01*
X159021564Y-110883121D01*
X159014739Y-110872638D01*
X158938015Y-110735636D01*
X158888860Y-110597232D01*
X158867992Y-110459825D01*
X158868844Y-110385372D01*
X158887025Y-110280947D01*
X158927227Y-110181779D01*
X158991190Y-110085341D01*
X159080650Y-109989108D01*
X159197347Y-109890553D01*
X159222269Y-109871708D01*
X159275866Y-109831190D01*
X159319317Y-109797175D01*
X159347817Y-109773506D01*
X159356712Y-109764263D01*
X159343498Y-109761755D01*
X159309845Y-109763574D01*
X159285991Y-109766309D01*
X159206678Y-109763351D01*
X159137738Y-109732676D01*
X159080780Y-109675024D01*
X159077550Y-109670388D01*
X159052048Y-109608626D01*
X159043752Y-109524512D01*
X159052768Y-109420072D01*
X159061833Y-109370195D01*
X159069552Y-109322193D01*
X159071294Y-109286232D01*
X159068036Y-109272522D01*
X159047440Y-109265767D01*
X159008060Y-109261595D01*
X158983255Y-109260943D01*
X158941181Y-109260208D01*
X158914713Y-109258332D01*
X158910053Y-109256924D01*
X158916279Y-109242787D01*
X158933036Y-109207993D01*
X158957443Y-109158470D01*
X158975175Y-109122926D01*
X159120067Y-108813802D01*
X159239952Y-108513617D01*
X159336324Y-108217729D01*
X159410676Y-107921494D01*
X159464499Y-107620269D01*
X159469320Y-107585973D01*
X159479028Y-107495979D01*
X159487241Y-107382196D01*
X159493845Y-107250583D01*
X159498725Y-107107096D01*
X159501768Y-106957692D01*
X159502857Y-106808328D01*
X159501880Y-106664963D01*
X159498722Y-106533552D01*
X159493267Y-106420053D01*
X159492057Y-106402327D01*
X159471813Y-106152946D01*
X159448926Y-105932202D01*
X159423182Y-105739053D01*
X159394365Y-105572458D01*
X159362262Y-105431375D01*
X159326657Y-105314764D01*
X159287336Y-105221582D01*
X159244085Y-105150789D01*
X159230762Y-105134280D01*
X159197694Y-105099618D01*
X159168551Y-105082881D01*
X159129883Y-105077811D01*
X159109030Y-105077646D01*
X159057021Y-105081782D01*
X159007913Y-105095375D01*
X158957358Y-105121131D01*
X158901008Y-105161754D01*
X158834514Y-105219951D01*
X158753529Y-105298427D01*
X158752449Y-105299505D01*
X158693515Y-105360118D01*
X158633844Y-105424553D01*
X158576685Y-105488938D01*
X158525284Y-105549403D01*
X158482890Y-105602074D01*
X158452751Y-105643080D01*
X158438113Y-105668550D01*
X158437865Y-105674551D01*
X158453073Y-105672429D01*
X158489642Y-105662868D01*
X158540648Y-105647730D01*
X158559269Y-105641892D01*
X158615141Y-105625267D01*
X158660551Y-105613818D01*
X158687769Y-105609428D01*
X158691205Y-105609761D01*
X158688334Y-105620250D01*
X158665983Y-105642651D01*
X158633190Y-105668903D01*
X158583233Y-105710087D01*
X158516216Y-105771748D01*
X158434283Y-105851608D01*
X158339580Y-105947387D01*
X158234250Y-106056808D01*
X158120439Y-106177590D01*
X158000291Y-106307455D01*
X157875951Y-106444124D01*
X157749565Y-106585318D01*
X157623276Y-106728758D01*
X157499229Y-106872165D01*
X157483783Y-106890214D01*
X157422857Y-106962096D01*
X157379582Y-107014719D01*
X157354398Y-107047867D01*
X157347747Y-107061324D01*
X157360069Y-107054875D01*
X157391804Y-107028304D01*
X157443395Y-106981394D01*
X157515281Y-106913931D01*
X157599853Y-106833400D01*
X157733937Y-106707056D01*
X157851211Y-106601285D01*
X157954617Y-106514379D01*
X158047099Y-106444628D01*
X158131600Y-106390322D01*
X158211063Y-106349754D01*
X158288430Y-106321213D01*
X158366645Y-106302990D01*
X158448651Y-106293377D01*
X158534400Y-106290662D01*
X158597382Y-106292669D01*
X158635857Y-106298122D01*
X158648512Y-106306175D01*
X158634033Y-106315978D01*
X158591107Y-106326683D01*
X158590377Y-106326821D01*
X158537860Y-106342810D01*
X158468353Y-106372645D01*
X158388894Y-106412583D01*
X158306521Y-106458880D01*
X158228271Y-106507794D01*
X158163188Y-106554028D01*
X158115621Y-106592312D01*
X158050583Y-106646891D01*
X157972489Y-106713867D01*
X157885755Y-106789343D01*
X157794794Y-106869421D01*
X157704023Y-106950205D01*
X157617855Y-107027797D01*
X157540707Y-107098300D01*
X157476992Y-107157816D01*
X157451802Y-107181993D01*
X157402833Y-107231344D01*
X157372805Y-107265421D01*
X157362539Y-107282959D01*
X157372851Y-107282690D01*
X157395135Y-107269681D01*
X157570741Y-107158191D01*
X157726493Y-107066754D01*
X157861973Y-106995600D01*
X157976761Y-106944958D01*
X158016735Y-106930513D01*
X158066785Y-106915564D01*
X158114031Y-106906518D01*
X158167767Y-106902420D01*
X158237283Y-106902318D01*
X158280349Y-106903451D01*
X158360151Y-106907616D01*
X158419237Y-106913976D01*
X158455969Y-106921801D01*
X158468706Y-106930360D01*
X158455810Y-106938924D01*
X158415640Y-106946764D01*
X158385250Y-106950143D01*
X158267752Y-106970598D01*
X158152420Y-107010777D01*
X158036280Y-107072404D01*
X157916356Y-107157201D01*
X157789671Y-107266893D01*
X157718093Y-107336391D01*
X157634882Y-107421110D01*
X157572115Y-107487646D01*
X157530031Y-107535668D01*
X157508865Y-107564845D01*
X157508854Y-107574846D01*
X157530235Y-107565340D01*
X157573244Y-107535997D01*
X157577521Y-107532861D01*
X157625246Y-107502267D01*
X157687570Y-107468614D01*
X157757385Y-107435032D01*
X157827583Y-107404650D01*
X157891056Y-107380596D01*
X157940696Y-107365999D01*
X157963234Y-107363078D01*
X157958371Y-107369541D01*
X157931864Y-107386528D01*
X157888601Y-107411043D01*
X157859997Y-107426355D01*
X157662235Y-107546547D01*
X157481397Y-107689530D01*
X157458411Y-107710530D01*
X157369080Y-107793585D01*
X157525410Y-107713126D01*
X157675424Y-107641982D01*
X157813468Y-107590064D01*
X157947645Y-107554603D01*
X158033775Y-107539476D01*
X158101155Y-107531140D01*
X158157615Y-107528483D01*
X158215201Y-107531774D01*
X158285957Y-107541276D01*
X158313171Y-107545643D01*
X158381470Y-107558255D01*
X158442614Y-107572060D01*
X158488024Y-107584997D01*
X158504196Y-107591512D01*
X158521568Y-107601678D01*
X158523589Y-107607888D01*
X158506418Y-107611059D01*
X158466213Y-107612112D01*
X158418334Y-107612064D01*
X158323123Y-107616413D01*
X158235831Y-107629186D01*
X158202825Y-107637285D01*
X158075273Y-107686218D01*
X157944219Y-107758361D01*
X157814189Y-107849450D01*
X157689710Y-107955222D01*
X157575310Y-108071413D01*
X157475515Y-108193760D01*
X157394852Y-108317999D01*
X157337848Y-108439867D01*
X157331550Y-108457885D01*
X157313993Y-108516425D01*
X157306145Y-108554600D01*
X156223725Y-108554600D01*
X156234750Y-108516512D01*
X156322501Y-108241999D01*
X156423515Y-107970442D01*
X156539390Y-107698613D01*
X156671719Y-107423286D01*
X156822099Y-107141232D01*
X156992125Y-106849225D01*
X157183394Y-106544038D01*
X157291156Y-106379994D01*
X157411437Y-106203937D01*
X157540159Y-106023593D01*
X157674854Y-105841970D01*
X157813055Y-105662077D01*
X157952292Y-105486921D01*
X158090099Y-105319509D01*
X158224007Y-105162851D01*
X158351549Y-105019953D01*
X158470256Y-104893823D01*
X158577661Y-104787471D01*
X158655420Y-104717254D01*
X158772035Y-104628558D01*
X158880618Y-104568448D01*
X158981368Y-104536892D01*
X159074487Y-104533861D01*
X159160175Y-104559322D01*
G37*
D11*
X161068000Y-136552000D02*
X161068000Y-136882000D01*
X161068000Y-139292000D02*
X161068000Y-138962000D01*
X167608000Y-136552000D02*
X161068000Y-136552000D01*
X167608000Y-136882000D02*
X167608000Y-136552000D01*
X167608000Y-138962000D02*
X167608000Y-139292000D01*
X167608000Y-139292000D02*
X161068000Y-139292000D01*
X162372959Y-87312000D02*
X162372959Y-86678000D01*
X162412959Y-87752000D02*
X162412959Y-86238000D01*
X162452959Y-88023000D02*
X162452959Y-85967000D01*
X162492959Y-88236000D02*
X162492959Y-85754000D01*
X162532959Y-88417000D02*
X162532959Y-85573000D01*
X162572959Y-88578000D02*
X162572959Y-85412000D01*
X162612959Y-88723000D02*
X162612959Y-85267000D01*
X162652959Y-88856000D02*
X162652959Y-85134000D01*
X162692959Y-88979000D02*
X162692959Y-85011000D01*
X162732959Y-89095000D02*
X162732959Y-84895000D01*
X162772959Y-89204000D02*
X162772959Y-84786000D01*
X162812959Y-89307000D02*
X162812959Y-84683000D01*
X162852959Y-89405000D02*
X162852959Y-84585000D01*
X162892959Y-89499000D02*
X162892959Y-84491000D01*
X162932959Y-89589000D02*
X162932959Y-84401000D01*
X162972959Y-89676000D02*
X162972959Y-84314000D01*
X163012959Y-89759000D02*
X163012959Y-84231000D01*
X163052959Y-89839000D02*
X163052959Y-84151000D01*
X163092959Y-89916000D02*
X163092959Y-84074000D01*
X163132959Y-89991000D02*
X163132959Y-83999000D01*
X163172959Y-90064000D02*
X163172959Y-83926000D01*
X163212959Y-90135000D02*
X163212959Y-83855000D01*
X163252959Y-90203000D02*
X163252959Y-83787000D01*
X163292959Y-90270000D02*
X163292959Y-83720000D01*
X163332959Y-90334000D02*
X163332959Y-83656000D01*
X163372959Y-90397000D02*
X163372959Y-83593000D01*
X163412959Y-90459000D02*
X163412959Y-83531000D01*
X163452959Y-90519000D02*
X163452959Y-83471000D01*
X163492959Y-90578000D02*
X163492959Y-83412000D01*
X163532959Y-90635000D02*
X163532959Y-83355000D01*
X163572959Y-90691000D02*
X163572959Y-83299000D01*
X163612959Y-90745000D02*
X163612959Y-83245000D01*
X163652959Y-90799000D02*
X163652959Y-83191000D01*
X163692959Y-90851000D02*
X163692959Y-83139000D01*
X163732959Y-90902000D02*
X163732959Y-83088000D01*
X163772959Y-90952000D02*
X163772959Y-83038000D01*
X163812959Y-91002000D02*
X163812959Y-82988000D01*
X163852959Y-91050000D02*
X163852959Y-82940000D01*
X163892959Y-91097000D02*
X163892959Y-82893000D01*
X163932959Y-91143000D02*
X163932959Y-82847000D01*
X163972959Y-91189000D02*
X163972959Y-82801000D01*
X164012959Y-91233000D02*
X164012959Y-82757000D01*
X164052959Y-91277000D02*
X164052959Y-82713000D01*
X164092959Y-91320000D02*
X164092959Y-82670000D01*
X164132959Y-91362000D02*
X164132959Y-82628000D01*
X164172959Y-91403000D02*
X164172959Y-82587000D01*
X164212959Y-91444000D02*
X164212959Y-82546000D01*
X164252959Y-91484000D02*
X164252959Y-82506000D01*
X164292959Y-91523000D02*
X164292959Y-82467000D01*
X164332959Y-91562000D02*
X164332959Y-82428000D01*
X164372959Y-91600000D02*
X164372959Y-82390000D01*
X164412959Y-91637000D02*
X164412959Y-82353000D01*
X164452959Y-91673000D02*
X164452959Y-82317000D01*
X164492959Y-91709000D02*
X164492959Y-82281000D01*
X164532959Y-91745000D02*
X164532959Y-82245000D01*
X164572959Y-91780000D02*
X164572959Y-82210000D01*
X164612959Y-91814000D02*
X164612959Y-82176000D01*
X164652959Y-91847000D02*
X164652959Y-82143000D01*
X164692959Y-91880000D02*
X164692959Y-82110000D01*
X164732959Y-91913000D02*
X164732959Y-82077000D01*
X164772959Y-91945000D02*
X164772959Y-82045000D01*
X164812959Y-85555000D02*
X164812959Y-82013000D01*
X164812959Y-91977000D02*
X164812959Y-88435000D01*
X164852959Y-85555000D02*
X164852959Y-81983000D01*
X164852959Y-92007000D02*
X164852959Y-88435000D01*
X164892959Y-85555000D02*
X164892959Y-81952000D01*
X164892959Y-92038000D02*
X164892959Y-88435000D01*
X164932959Y-85555000D02*
X164932959Y-81922000D01*
X164932959Y-92068000D02*
X164932959Y-88435000D01*
X164972959Y-85555000D02*
X164972959Y-81893000D01*
X164972959Y-92097000D02*
X164972959Y-88435000D01*
X165012959Y-85555000D02*
X165012959Y-81864000D01*
X165012959Y-92126000D02*
X165012959Y-88435000D01*
X165052959Y-85555000D02*
X165052959Y-81835000D01*
X165052959Y-92155000D02*
X165052959Y-88435000D01*
X165092959Y-85555000D02*
X165092959Y-81807000D01*
X165092959Y-92183000D02*
X165092959Y-88435000D01*
X165132959Y-85555000D02*
X165132959Y-81779000D01*
X165132959Y-92211000D02*
X165132959Y-88435000D01*
X165172959Y-85555000D02*
X165172959Y-81752000D01*
X165172959Y-92238000D02*
X165172959Y-88435000D01*
X165212959Y-85555000D02*
X165212959Y-81725000D01*
X165212959Y-92265000D02*
X165212959Y-88435000D01*
X165252959Y-85555000D02*
X165252959Y-81699000D01*
X165252959Y-92291000D02*
X165252959Y-88435000D01*
X165292959Y-85555000D02*
X165292959Y-81673000D01*
X165292959Y-92317000D02*
X165292959Y-88435000D01*
X165332959Y-85555000D02*
X165332959Y-81648000D01*
X165332959Y-92342000D02*
X165332959Y-88435000D01*
X165372959Y-85555000D02*
X165372959Y-81623000D01*
X165372959Y-92367000D02*
X165372959Y-88435000D01*
X165412959Y-85555000D02*
X165412959Y-81598000D01*
X165412959Y-92392000D02*
X165412959Y-88435000D01*
X165452959Y-85555000D02*
X165452959Y-81574000D01*
X165452959Y-92416000D02*
X165452959Y-88435000D01*
X165492959Y-85555000D02*
X165492959Y-81550000D01*
X165492959Y-92440000D02*
X165492959Y-88435000D01*
X165532959Y-85555000D02*
X165532959Y-81527000D01*
X165532959Y-92463000D02*
X165532959Y-88435000D01*
X165572959Y-85555000D02*
X165572959Y-81504000D01*
X165572959Y-92486000D02*
X165572959Y-88435000D01*
X165612959Y-85555000D02*
X165612959Y-81481000D01*
X165612959Y-92509000D02*
X165612959Y-88435000D01*
X165652959Y-85555000D02*
X165652959Y-81459000D01*
X165652959Y-92531000D02*
X165652959Y-88435000D01*
X165692959Y-85555000D02*
X165692959Y-81437000D01*
X165692959Y-92553000D02*
X165692959Y-88435000D01*
X165732959Y-85555000D02*
X165732959Y-81415000D01*
X165732959Y-92575000D02*
X165732959Y-88435000D01*
X165772959Y-85555000D02*
X165772959Y-81394000D01*
X165772959Y-92596000D02*
X165772959Y-88435000D01*
X165812959Y-85555000D02*
X165812959Y-81373000D01*
X165812959Y-92617000D02*
X165812959Y-88435000D01*
X165852959Y-85555000D02*
X165852959Y-81353000D01*
X165852959Y-92637000D02*
X165852959Y-88435000D01*
X165892959Y-85555000D02*
X165892959Y-81333000D01*
X165892959Y-92657000D02*
X165892959Y-88435000D01*
X165932959Y-85555000D02*
X165932959Y-81313000D01*
X165932959Y-92677000D02*
X165932959Y-88435000D01*
X165972959Y-85555000D02*
X165972959Y-81293000D01*
X165972959Y-92697000D02*
X165972959Y-88435000D01*
X166012959Y-85555000D02*
X166012959Y-81274000D01*
X166012959Y-92716000D02*
X166012959Y-88435000D01*
X166052959Y-85555000D02*
X166052959Y-81256000D01*
X166052959Y-92734000D02*
X166052959Y-88435000D01*
X166092959Y-85555000D02*
X166092959Y-81237000D01*
X166092959Y-92753000D02*
X166092959Y-88435000D01*
X166132959Y-85555000D02*
X166132959Y-81219000D01*
X166132959Y-92771000D02*
X166132959Y-88435000D01*
X166172959Y-85555000D02*
X166172959Y-81202000D01*
X166172959Y-92788000D02*
X166172959Y-88435000D01*
X166212959Y-85555000D02*
X166212959Y-81184000D01*
X166212959Y-92806000D02*
X166212959Y-88435000D01*
X166252959Y-85555000D02*
X166252959Y-81167000D01*
X166252959Y-92823000D02*
X166252959Y-88435000D01*
X166292959Y-85555000D02*
X166292959Y-81150000D01*
X166292959Y-92840000D02*
X166292959Y-88435000D01*
X166332959Y-85555000D02*
X166332959Y-81134000D01*
X166332959Y-92856000D02*
X166332959Y-88435000D01*
X166372959Y-85555000D02*
X166372959Y-81118000D01*
X166372959Y-92872000D02*
X166372959Y-88435000D01*
X166412959Y-85555000D02*
X166412959Y-81102000D01*
X166412959Y-92888000D02*
X166412959Y-88435000D01*
X166452959Y-85555000D02*
X166452959Y-81087000D01*
X166452959Y-92903000D02*
X166452959Y-88435000D01*
X166492959Y-85555000D02*
X166492959Y-81071000D01*
X166492959Y-92919000D02*
X166492959Y-88435000D01*
X166532959Y-85555000D02*
X166532959Y-81056000D01*
X166532959Y-92934000D02*
X166532959Y-88435000D01*
X166572959Y-85555000D02*
X166572959Y-81042000D01*
X166572959Y-92948000D02*
X166572959Y-88435000D01*
X166612959Y-85555000D02*
X166612959Y-81028000D01*
X166612959Y-92962000D02*
X166612959Y-88435000D01*
X166652959Y-85555000D02*
X166652959Y-81014000D01*
X166652959Y-92976000D02*
X166652959Y-88435000D01*
X166692959Y-85555000D02*
X166692959Y-81000000D01*
X166692959Y-92990000D02*
X166692959Y-88435000D01*
X166732959Y-85555000D02*
X166732959Y-80987000D01*
X166732959Y-93003000D02*
X166732959Y-88435000D01*
X166772959Y-85555000D02*
X166772959Y-80974000D01*
X166772959Y-93016000D02*
X166772959Y-88435000D01*
X166812959Y-85555000D02*
X166812959Y-80961000D01*
X166812959Y-93029000D02*
X166812959Y-88435000D01*
X166852959Y-85555000D02*
X166852959Y-80948000D01*
X166852959Y-93042000D02*
X166852959Y-88435000D01*
X166892959Y-85555000D02*
X166892959Y-80936000D01*
X166892959Y-93054000D02*
X166892959Y-88435000D01*
X166932959Y-85555000D02*
X166932959Y-80924000D01*
X166932959Y-93066000D02*
X166932959Y-88435000D01*
X166972959Y-85555000D02*
X166972959Y-80912000D01*
X166972959Y-93078000D02*
X166972959Y-88435000D01*
X167012959Y-85555000D02*
X167012959Y-80901000D01*
X167012959Y-93089000D02*
X167012959Y-88435000D01*
X167052959Y-85555000D02*
X167052959Y-80890000D01*
X167052959Y-93100000D02*
X167052959Y-88435000D01*
X167092959Y-85555000D02*
X167092959Y-80879000D01*
X167092959Y-93111000D02*
X167092959Y-88435000D01*
X167132959Y-85555000D02*
X167132959Y-80869000D01*
X167132959Y-93121000D02*
X167132959Y-88435000D01*
X167172959Y-85555000D02*
X167172959Y-80858000D01*
X167172959Y-93132000D02*
X167172959Y-88435000D01*
X167212959Y-85555000D02*
X167212959Y-80849000D01*
X167212959Y-93141000D02*
X167212959Y-88435000D01*
X167252959Y-85555000D02*
X167252959Y-80839000D01*
X167252959Y-93151000D02*
X167252959Y-88435000D01*
X167292959Y-85555000D02*
X167292959Y-80829000D01*
X167292959Y-93161000D02*
X167292959Y-88435000D01*
X167332959Y-85555000D02*
X167332959Y-80820000D01*
X167332959Y-93170000D02*
X167332959Y-88435000D01*
X167372959Y-85555000D02*
X167372959Y-80811000D01*
X167372959Y-93179000D02*
X167372959Y-88435000D01*
X167412959Y-85555000D02*
X167412959Y-80803000D01*
X167412959Y-93187000D02*
X167412959Y-88435000D01*
X167452959Y-85555000D02*
X167452959Y-80794000D01*
X167452959Y-93196000D02*
X167452959Y-88435000D01*
X167492959Y-85555000D02*
X167492959Y-80786000D01*
X167492959Y-93204000D02*
X167492959Y-88435000D01*
X167532959Y-85555000D02*
X167532959Y-80779000D01*
X167532959Y-93211000D02*
X167532959Y-88435000D01*
X167572959Y-85555000D02*
X167572959Y-80771000D01*
X167572959Y-93219000D02*
X167572959Y-88435000D01*
X167612959Y-85555000D02*
X167612959Y-80764000D01*
X167612959Y-93226000D02*
X167612959Y-88435000D01*
X167652959Y-85555000D02*
X167652959Y-80757000D01*
X167652959Y-93233000D02*
X167652959Y-88435000D01*
X167692959Y-93240000D02*
X167692959Y-80750000D01*
X167732959Y-93247000D02*
X167732959Y-80743000D01*
X167772959Y-93253000D02*
X167772959Y-80737000D01*
X167812959Y-93259000D02*
X167812959Y-80731000D01*
X167852959Y-93264000D02*
X167852959Y-80726000D01*
X167892959Y-93270000D02*
X167892959Y-80720000D01*
X167932959Y-93275000D02*
X167932959Y-80715000D01*
X167972959Y-93280000D02*
X167972959Y-80710000D01*
X168012959Y-93285000D02*
X168012959Y-80705000D01*
X168053959Y-93289000D02*
X168053959Y-80701000D01*
X168093959Y-93293000D02*
X168093959Y-80697000D01*
X168133959Y-93297000D02*
X168133959Y-80693000D01*
X168173959Y-93301000D02*
X168173959Y-80689000D01*
X168213959Y-93304000D02*
X168213959Y-80686000D01*
X168253959Y-93307000D02*
X168253959Y-80683000D01*
X168293959Y-93310000D02*
X168293959Y-80680000D01*
X168333959Y-93313000D02*
X168333959Y-80677000D01*
X168373959Y-93315000D02*
X168373959Y-80675000D01*
X168413959Y-93317000D02*
X168413959Y-80673000D01*
X168453959Y-93319000D02*
X168453959Y-80671000D01*
X168493959Y-93321000D02*
X168493959Y-80669000D01*
X168533959Y-93322000D02*
X168533959Y-80668000D01*
X168573959Y-93323000D02*
X168573959Y-80667000D01*
X168613959Y-93324000D02*
X168613959Y-80666000D01*
X168653959Y-93325000D02*
X168653959Y-80665000D01*
X168693959Y-93325000D02*
X168693959Y-80665000D01*
X168733959Y-93325000D02*
X168733959Y-80665000D01*
X174926041Y-91195000D02*
X174926041Y-89945000D01*
X175551041Y-90570000D02*
X174301041Y-90570000D01*
X175103959Y-86995000D02*
G75*
G02*
X162363959Y-86995000I-6370000J0D01*
G01*
X162363959Y-86995000D02*
G75*
G02*
X175103959Y-86995000I6370000J0D01*
G01*
X143970000Y-65810000D02*
X143970000Y-84050000D01*
X143970000Y-84050000D02*
X153210000Y-84050000D01*
X148590000Y-64940000D02*
X148590000Y-65810000D01*
X148590000Y-84920000D02*
X148590000Y-84050000D01*
X153210000Y-65810000D02*
X143970000Y-65810000D01*
X153210000Y-84050000D02*
X153210000Y-65810000D01*
X140078000Y-139249000D02*
X140078000Y-139915000D01*
X140078000Y-139249000D02*
X145418000Y-139249000D01*
X140078000Y-142025000D02*
X140078000Y-142691000D01*
X140078000Y-142691000D02*
X145418000Y-142691000D01*
X145418000Y-139249000D02*
X145418000Y-139915000D01*
X145418000Y-142025000D02*
X145418000Y-142691000D01*
X134120000Y-135255000D02*
X134120000Y-134255000D01*
X134620000Y-93980000D02*
X175260000Y-93980000D01*
X134620000Y-134620000D02*
X134620000Y-93980000D01*
X135120000Y-135255000D02*
X134120000Y-135255000D01*
X175260000Y-134620000D02*
X134620000Y-134620000D01*
X175260000Y-134620000D02*
X175260000Y-93980000D01*
D13*
X142964000Y-43575500D02*
X164884000Y-43575500D01*
X142964000Y-55575500D02*
X142964000Y-43575500D01*
X164884000Y-43575500D02*
X164884000Y-55575500D01*
X164884000Y-55575500D02*
X142964000Y-55575500D01*
D14*
X146404000Y-56575500D02*
G75*
G02*
X146204000Y-56575500I-100000J0D01*
G01*
X146204000Y-56575500D02*
G75*
G02*
X146404000Y-56575500I100000J0D01*
G01*
D11*
X171000000Y-55070000D02*
X171000000Y-64310000D01*
X171000000Y-64310000D02*
X174440000Y-64310000D01*
X172720000Y-54380000D02*
X172720000Y-55070000D01*
X172720000Y-65000000D02*
X172720000Y-64310000D01*
X174440000Y-55070000D02*
X171000000Y-55070000D01*
X174440000Y-64310000D02*
X174440000Y-55070000D01*
X165920000Y-55070000D02*
X165920000Y-64310000D01*
X165920000Y-64310000D02*
X169360000Y-64310000D01*
X167640000Y-54380000D02*
X167640000Y-55070000D01*
X167640000Y-65000000D02*
X167640000Y-64310000D01*
X169360000Y-55070000D02*
X165920000Y-55070000D01*
X169360000Y-64310000D02*
X169360000Y-55070000D01*
X162589000Y-73977000D02*
X162589000Y-73343000D01*
X162629000Y-74417000D02*
X162629000Y-72903000D01*
X162669000Y-74688000D02*
X162669000Y-72632000D01*
X162709000Y-74901000D02*
X162709000Y-72419000D01*
X162749000Y-75082000D02*
X162749000Y-72238000D01*
X162789000Y-75243000D02*
X162789000Y-72077000D01*
X162829000Y-75388000D02*
X162829000Y-71932000D01*
X162869000Y-75521000D02*
X162869000Y-71799000D01*
X162909000Y-75644000D02*
X162909000Y-71676000D01*
X162949000Y-75760000D02*
X162949000Y-71560000D01*
X162989000Y-75869000D02*
X162989000Y-71451000D01*
X163029000Y-75972000D02*
X163029000Y-71348000D01*
X163069000Y-76070000D02*
X163069000Y-71250000D01*
X163109000Y-76164000D02*
X163109000Y-71156000D01*
X163149000Y-76254000D02*
X163149000Y-71066000D01*
X163189000Y-76341000D02*
X163189000Y-70979000D01*
X163229000Y-76424000D02*
X163229000Y-70896000D01*
X163269000Y-76504000D02*
X163269000Y-70816000D01*
X163309000Y-76581000D02*
X163309000Y-70739000D01*
X163349000Y-76656000D02*
X163349000Y-70664000D01*
X163389000Y-76729000D02*
X163389000Y-70591000D01*
X163429000Y-76800000D02*
X163429000Y-70520000D01*
X163469000Y-76868000D02*
X163469000Y-70452000D01*
X163509000Y-76935000D02*
X163509000Y-70385000D01*
X163549000Y-76999000D02*
X163549000Y-70321000D01*
X163589000Y-77062000D02*
X163589000Y-70258000D01*
X163629000Y-77124000D02*
X163629000Y-70196000D01*
X163669000Y-77184000D02*
X163669000Y-70136000D01*
X163709000Y-77243000D02*
X163709000Y-70077000D01*
X163749000Y-77300000D02*
X163749000Y-70020000D01*
X163789000Y-77356000D02*
X163789000Y-69964000D01*
X163829000Y-77410000D02*
X163829000Y-69910000D01*
X163869000Y-77464000D02*
X163869000Y-69856000D01*
X163909000Y-77516000D02*
X163909000Y-69804000D01*
X163949000Y-77567000D02*
X163949000Y-69753000D01*
X163989000Y-77617000D02*
X163989000Y-69703000D01*
X164029000Y-77667000D02*
X164029000Y-69653000D01*
X164069000Y-77715000D02*
X164069000Y-69605000D01*
X164109000Y-77762000D02*
X164109000Y-69558000D01*
X164149000Y-77808000D02*
X164149000Y-69512000D01*
X164189000Y-77854000D02*
X164189000Y-69466000D01*
X164229000Y-77898000D02*
X164229000Y-69422000D01*
X164269000Y-77942000D02*
X164269000Y-69378000D01*
X164309000Y-77985000D02*
X164309000Y-69335000D01*
X164349000Y-78027000D02*
X164349000Y-69293000D01*
X164389000Y-78068000D02*
X164389000Y-69252000D01*
X164429000Y-78109000D02*
X164429000Y-69211000D01*
X164469000Y-78149000D02*
X164469000Y-69171000D01*
X164509000Y-78188000D02*
X164509000Y-69132000D01*
X164549000Y-78227000D02*
X164549000Y-69093000D01*
X164589000Y-78265000D02*
X164589000Y-69055000D01*
X164629000Y-78302000D02*
X164629000Y-69018000D01*
X164669000Y-78338000D02*
X164669000Y-68982000D01*
X164709000Y-78374000D02*
X164709000Y-68946000D01*
X164749000Y-78410000D02*
X164749000Y-68910000D01*
X164789000Y-78445000D02*
X164789000Y-68875000D01*
X164829000Y-78479000D02*
X164829000Y-68841000D01*
X164869000Y-78512000D02*
X164869000Y-68808000D01*
X164909000Y-78545000D02*
X164909000Y-68775000D01*
X164949000Y-78578000D02*
X164949000Y-68742000D01*
X164989000Y-78610000D02*
X164989000Y-68710000D01*
X165029000Y-72220000D02*
X165029000Y-68678000D01*
X165029000Y-78642000D02*
X165029000Y-75100000D01*
X165069000Y-72220000D02*
X165069000Y-68648000D01*
X165069000Y-78672000D02*
X165069000Y-75100000D01*
X165109000Y-72220000D02*
X165109000Y-68617000D01*
X165109000Y-78703000D02*
X165109000Y-75100000D01*
X165149000Y-72220000D02*
X165149000Y-68587000D01*
X165149000Y-78733000D02*
X165149000Y-75100000D01*
X165189000Y-72220000D02*
X165189000Y-68558000D01*
X165189000Y-78762000D02*
X165189000Y-75100000D01*
X165229000Y-72220000D02*
X165229000Y-68529000D01*
X165229000Y-78791000D02*
X165229000Y-75100000D01*
X165269000Y-72220000D02*
X165269000Y-68500000D01*
X165269000Y-78820000D02*
X165269000Y-75100000D01*
X165309000Y-72220000D02*
X165309000Y-68472000D01*
X165309000Y-78848000D02*
X165309000Y-75100000D01*
X165349000Y-72220000D02*
X165349000Y-68444000D01*
X165349000Y-78876000D02*
X165349000Y-75100000D01*
X165389000Y-72220000D02*
X165389000Y-68417000D01*
X165389000Y-78903000D02*
X165389000Y-75100000D01*
X165429000Y-72220000D02*
X165429000Y-68390000D01*
X165429000Y-78930000D02*
X165429000Y-75100000D01*
X165469000Y-72220000D02*
X165469000Y-68364000D01*
X165469000Y-78956000D02*
X165469000Y-75100000D01*
X165509000Y-72220000D02*
X165509000Y-68338000D01*
X165509000Y-78982000D02*
X165509000Y-75100000D01*
X165549000Y-72220000D02*
X165549000Y-68313000D01*
X165549000Y-79007000D02*
X165549000Y-75100000D01*
X165589000Y-72220000D02*
X165589000Y-68288000D01*
X165589000Y-79032000D02*
X165589000Y-75100000D01*
X165629000Y-72220000D02*
X165629000Y-68263000D01*
X165629000Y-79057000D02*
X165629000Y-75100000D01*
X165669000Y-72220000D02*
X165669000Y-68239000D01*
X165669000Y-79081000D02*
X165669000Y-75100000D01*
X165709000Y-72220000D02*
X165709000Y-68215000D01*
X165709000Y-79105000D02*
X165709000Y-75100000D01*
X165749000Y-72220000D02*
X165749000Y-68192000D01*
X165749000Y-79128000D02*
X165749000Y-75100000D01*
X165789000Y-72220000D02*
X165789000Y-68169000D01*
X165789000Y-79151000D02*
X165789000Y-75100000D01*
X165829000Y-72220000D02*
X165829000Y-68146000D01*
X165829000Y-79174000D02*
X165829000Y-75100000D01*
X165869000Y-72220000D02*
X165869000Y-68124000D01*
X165869000Y-79196000D02*
X165869000Y-75100000D01*
X165909000Y-72220000D02*
X165909000Y-68102000D01*
X165909000Y-79218000D02*
X165909000Y-75100000D01*
X165949000Y-72220000D02*
X165949000Y-68080000D01*
X165949000Y-79240000D02*
X165949000Y-75100000D01*
X165989000Y-72220000D02*
X165989000Y-68059000D01*
X165989000Y-79261000D02*
X165989000Y-75100000D01*
X166029000Y-72220000D02*
X166029000Y-68038000D01*
X166029000Y-79282000D02*
X166029000Y-75100000D01*
X166069000Y-72220000D02*
X166069000Y-68018000D01*
X166069000Y-79302000D02*
X166069000Y-75100000D01*
X166109000Y-72220000D02*
X166109000Y-67998000D01*
X166109000Y-79322000D02*
X166109000Y-75100000D01*
X166149000Y-72220000D02*
X166149000Y-67978000D01*
X166149000Y-79342000D02*
X166149000Y-75100000D01*
X166189000Y-72220000D02*
X166189000Y-67958000D01*
X166189000Y-79362000D02*
X166189000Y-75100000D01*
X166229000Y-72220000D02*
X166229000Y-67939000D01*
X166229000Y-79381000D02*
X166229000Y-75100000D01*
X166269000Y-72220000D02*
X166269000Y-67921000D01*
X166269000Y-79399000D02*
X166269000Y-75100000D01*
X166309000Y-72220000D02*
X166309000Y-67902000D01*
X166309000Y-79418000D02*
X166309000Y-75100000D01*
X166349000Y-72220000D02*
X166349000Y-67884000D01*
X166349000Y-79436000D02*
X166349000Y-75100000D01*
X166389000Y-72220000D02*
X166389000Y-67867000D01*
X166389000Y-79453000D02*
X166389000Y-75100000D01*
X166429000Y-72220000D02*
X166429000Y-67849000D01*
X166429000Y-79471000D02*
X166429000Y-75100000D01*
X166469000Y-72220000D02*
X166469000Y-67832000D01*
X166469000Y-79488000D02*
X166469000Y-75100000D01*
X166509000Y-72220000D02*
X166509000Y-67815000D01*
X166509000Y-79505000D02*
X166509000Y-75100000D01*
X166549000Y-72220000D02*
X166549000Y-67799000D01*
X166549000Y-79521000D02*
X166549000Y-75100000D01*
X166589000Y-72220000D02*
X166589000Y-67783000D01*
X166589000Y-79537000D02*
X166589000Y-75100000D01*
X166629000Y-72220000D02*
X166629000Y-67767000D01*
X166629000Y-79553000D02*
X166629000Y-75100000D01*
X166669000Y-72220000D02*
X166669000Y-67752000D01*
X166669000Y-79568000D02*
X166669000Y-75100000D01*
X166709000Y-72220000D02*
X166709000Y-67736000D01*
X166709000Y-79584000D02*
X166709000Y-75100000D01*
X166749000Y-72220000D02*
X166749000Y-67721000D01*
X166749000Y-79599000D02*
X166749000Y-75100000D01*
X166789000Y-72220000D02*
X166789000Y-67707000D01*
X166789000Y-79613000D02*
X166789000Y-75100000D01*
X166829000Y-72220000D02*
X166829000Y-67693000D01*
X166829000Y-79627000D02*
X166829000Y-75100000D01*
X166869000Y-72220000D02*
X166869000Y-67679000D01*
X166869000Y-79641000D02*
X166869000Y-75100000D01*
X166909000Y-72220000D02*
X166909000Y-67665000D01*
X166909000Y-79655000D02*
X166909000Y-75100000D01*
X166949000Y-72220000D02*
X166949000Y-67652000D01*
X166949000Y-79668000D02*
X166949000Y-75100000D01*
X166989000Y-72220000D02*
X166989000Y-67639000D01*
X166989000Y-79681000D02*
X166989000Y-75100000D01*
X167029000Y-72220000D02*
X167029000Y-67626000D01*
X167029000Y-79694000D02*
X167029000Y-75100000D01*
X167069000Y-72220000D02*
X167069000Y-67613000D01*
X167069000Y-79707000D02*
X167069000Y-75100000D01*
X167109000Y-72220000D02*
X167109000Y-67601000D01*
X167109000Y-79719000D02*
X167109000Y-75100000D01*
X167149000Y-72220000D02*
X167149000Y-67589000D01*
X167149000Y-79731000D02*
X167149000Y-75100000D01*
X167189000Y-72220000D02*
X167189000Y-67577000D01*
X167189000Y-79743000D02*
X167189000Y-75100000D01*
X167229000Y-72220000D02*
X167229000Y-67566000D01*
X167229000Y-79754000D02*
X167229000Y-75100000D01*
X167269000Y-72220000D02*
X167269000Y-67555000D01*
X167269000Y-79765000D02*
X167269000Y-75100000D01*
X167309000Y-72220000D02*
X167309000Y-67544000D01*
X167309000Y-79776000D02*
X167309000Y-75100000D01*
X167349000Y-72220000D02*
X167349000Y-67534000D01*
X167349000Y-79786000D02*
X167349000Y-75100000D01*
X167389000Y-72220000D02*
X167389000Y-67523000D01*
X167389000Y-79797000D02*
X167389000Y-75100000D01*
X167429000Y-72220000D02*
X167429000Y-67514000D01*
X167429000Y-79806000D02*
X167429000Y-75100000D01*
X167469000Y-72220000D02*
X167469000Y-67504000D01*
X167469000Y-79816000D02*
X167469000Y-75100000D01*
X167509000Y-72220000D02*
X167509000Y-67494000D01*
X167509000Y-79826000D02*
X167509000Y-75100000D01*
X167549000Y-72220000D02*
X167549000Y-67485000D01*
X167549000Y-79835000D02*
X167549000Y-75100000D01*
X167589000Y-72220000D02*
X167589000Y-67476000D01*
X167589000Y-79844000D02*
X167589000Y-75100000D01*
X167629000Y-72220000D02*
X167629000Y-67468000D01*
X167629000Y-79852000D02*
X167629000Y-75100000D01*
X167669000Y-72220000D02*
X167669000Y-67459000D01*
X167669000Y-79861000D02*
X167669000Y-75100000D01*
X167709000Y-72220000D02*
X167709000Y-67451000D01*
X167709000Y-79869000D02*
X167709000Y-75100000D01*
X167749000Y-72220000D02*
X167749000Y-67444000D01*
X167749000Y-79876000D02*
X167749000Y-75100000D01*
X167789000Y-72220000D02*
X167789000Y-67436000D01*
X167789000Y-79884000D02*
X167789000Y-75100000D01*
X167829000Y-72220000D02*
X167829000Y-67429000D01*
X167829000Y-79891000D02*
X167829000Y-75100000D01*
X167869000Y-72220000D02*
X167869000Y-67422000D01*
X167869000Y-79898000D02*
X167869000Y-75100000D01*
X167909000Y-79905000D02*
X167909000Y-67415000D01*
X167949000Y-79912000D02*
X167949000Y-67408000D01*
X167989000Y-79918000D02*
X167989000Y-67402000D01*
X168029000Y-79924000D02*
X168029000Y-67396000D01*
X168069000Y-79929000D02*
X168069000Y-67391000D01*
X168109000Y-79935000D02*
X168109000Y-67385000D01*
X168149000Y-79940000D02*
X168149000Y-67380000D01*
X168189000Y-79945000D02*
X168189000Y-67375000D01*
X168229000Y-79950000D02*
X168229000Y-67370000D01*
X168270000Y-79954000D02*
X168270000Y-67366000D01*
X168310000Y-79958000D02*
X168310000Y-67362000D01*
X168350000Y-79962000D02*
X168350000Y-67358000D01*
X168390000Y-79966000D02*
X168390000Y-67354000D01*
X168430000Y-79969000D02*
X168430000Y-67351000D01*
X168470000Y-79972000D02*
X168470000Y-67348000D01*
X168510000Y-79975000D02*
X168510000Y-67345000D01*
X168550000Y-79978000D02*
X168550000Y-67342000D01*
X168590000Y-79980000D02*
X168590000Y-67340000D01*
X168630000Y-79982000D02*
X168630000Y-67338000D01*
X168670000Y-79984000D02*
X168670000Y-67336000D01*
X168710000Y-79986000D02*
X168710000Y-67334000D01*
X168750000Y-79987000D02*
X168750000Y-67333000D01*
X168790000Y-79988000D02*
X168790000Y-67332000D01*
X168830000Y-79989000D02*
X168830000Y-67331000D01*
X168870000Y-79990000D02*
X168870000Y-67330000D01*
X168910000Y-79990000D02*
X168910000Y-67330000D01*
X168950000Y-79990000D02*
X168950000Y-67330000D01*
X175142082Y-77860000D02*
X175142082Y-76610000D01*
X175767082Y-77235000D02*
X174517082Y-77235000D01*
X175320000Y-73660000D02*
G75*
G02*
X162580000Y-73660000I-6370000J0D01*
G01*
X162580000Y-73660000D02*
G75*
G02*
X175320000Y-73660000I6370000J0D01*
G01*
X140078000Y-135185000D02*
X140078000Y-135851000D01*
X140078000Y-135185000D02*
X145418000Y-135185000D01*
X140078000Y-137961000D02*
X140078000Y-138627000D01*
X140078000Y-138627000D02*
X145418000Y-138627000D01*
X145418000Y-135185000D02*
X145418000Y-135851000D01*
X145418000Y-137961000D02*
X145418000Y-138627000D01*
X133810000Y-65810000D02*
X133810000Y-84050000D01*
X133810000Y-84050000D02*
X143050000Y-84050000D01*
X138430000Y-64940000D02*
X138430000Y-65810000D01*
X138430000Y-84920000D02*
X138430000Y-84050000D01*
X143050000Y-65810000D02*
X133810000Y-65810000D01*
X143050000Y-84050000D02*
X143050000Y-65810000D01*
M02*
