M48
; DRILL file {KiCad 8.0.1} date 2024-04-06T08:34:49-0700
; FORMAT={-:-/ absolute / inch / decimal}
; #@! TF.CreationDate,2024-04-06T08:34:49-07:00
; #@! TF.GenerationSoftware,Kicad,Pcbnew,8.0.1
; #@! TF.FileFunction,Plated,1,2,PTH
FMAT,2
INCH
; #@! TA.AperFunction,Plated,PTH,ComponentDrill
T1C0.0315
; #@! TA.AperFunction,Plated,PTH,ComponentDrill
T2C0.0394
; #@! TA.AperFunction,Plated,PTH,ComponentDrill
T3C0.0472
; #@! TA.AperFunction,Plated,PTH,ComponentDrill
T4C0.0669
; #@! TA.AperFunction,Plated,PTH,ComponentDrill
T5C0.1260
%
G90
G05
T1
X5.5216Y-5.39
X5.5216Y-5.55
X5.7184Y-5.39
X5.7184Y-5.55
X6.32Y-5.43
X6.6Y-2.1
X6.6Y-2.6
X6.62Y-5.43
X6.8Y-2.1
X6.8Y-2.6
T2
X5.88Y-5.39
X5.88Y-5.49
X5.98Y-5.39
X5.98Y-5.49
X6.08Y-5.39
X6.08Y-5.49
X6.18Y-5.39
X6.18Y-5.49
T3
X5.4Y-3.8
X5.4Y-5.2
X5.45Y-2.5
X5.45Y-3.4
X5.6Y-5.2
X5.8Y-5.2
X5.85Y-2.5
X5.85Y-3.4
X6.0Y-5.2
X6.2Y-5.2
X6.4Y-5.2
X6.5446Y-3.425
X6.5531Y-2.9
X6.6Y-5.2
X6.7415Y-3.425
X6.75Y-2.9
X6.775Y-5.2
X6.8Y-3.8
T4
X5.76Y-2.05
X5.96Y-2.05
X6.16Y-2.05
X6.36Y-2.05
T5
X5.34Y-1.84
X5.34Y-5.49
X6.81Y-1.84
X6.81Y-5.49
M30
