G04 #@! TF.GenerationSoftware,KiCad,Pcbnew,7.0.2*
G04 #@! TF.CreationDate,2023-06-04T18:47:50-07:00*
G04 #@! TF.ProjectId,pbx_ring_gen,7062785f-7269-46e6-975f-67656e2e6b69,1*
G04 #@! TF.SameCoordinates,Original*
G04 #@! TF.FileFunction,Copper,L2,Bot*
G04 #@! TF.FilePolarity,Positive*
%FSLAX46Y46*%
G04 Gerber Fmt 4.6, Leading zero omitted, Abs format (unit mm)*
G04 Created by KiCad (PCBNEW 7.0.2) date 2023-06-04 18:47:50*
%MOMM*%
%LPD*%
G01*
G04 APERTURE LIST*
G04 #@! TA.AperFunction,ComponentPad*
%ADD10R,1.700000X1.700000*%
G04 #@! TD*
G04 #@! TA.AperFunction,ComponentPad*
%ADD11O,1.700000X1.700000*%
G04 #@! TD*
G04 #@! TA.AperFunction,ComponentPad*
%ADD12C,1.600000*%
G04 #@! TD*
G04 #@! TA.AperFunction,ComponentPad*
%ADD13O,1.600000X1.600000*%
G04 #@! TD*
G04 #@! TA.AperFunction,ComponentPad*
%ADD14C,6.400000*%
G04 #@! TD*
G04 #@! TA.AperFunction,ComponentPad*
%ADD15R,2.400000X2.400000*%
G04 #@! TD*
G04 #@! TA.AperFunction,ComponentPad*
%ADD16C,2.400000*%
G04 #@! TD*
G04 #@! TA.AperFunction,ComponentPad*
%ADD17O,2.400000X2.400000*%
G04 #@! TD*
G04 #@! TA.AperFunction,ComponentPad*
%ADD18R,2.550000X2.550000*%
G04 #@! TD*
G04 #@! TA.AperFunction,ComponentPad*
%ADD19C,2.550000*%
G04 #@! TD*
G04 #@! TA.AperFunction,Conductor*
%ADD20C,1.000000*%
G04 #@! TD*
G04 APERTURE END LIST*
D10*
X59690000Y-118872000D03*
D11*
X59690000Y-116332000D03*
X62230000Y-118872000D03*
X62230000Y-116332000D03*
X64770000Y-118872000D03*
X64770000Y-116332000D03*
X67310000Y-118872000D03*
X67310000Y-116332000D03*
D12*
X40894000Y-116332000D03*
D13*
X48514000Y-116332000D03*
D14*
X36576000Y-26416000D03*
D15*
X38316041Y-66675000D03*
D16*
X43316041Y-66675000D03*
X54610000Y-67310000D03*
D17*
X54610000Y-44450000D03*
D12*
X50840000Y-120142000D03*
X55840000Y-120142000D03*
D14*
X73914000Y-119126000D03*
D15*
X38100000Y-111760000D03*
D16*
X43180000Y-111760000D03*
X48260000Y-111760000D03*
X53340000Y-111760000D03*
X58420000Y-111760000D03*
X63500000Y-111760000D03*
X68580000Y-111760000D03*
X73660000Y-111760000D03*
X73660000Y-76200000D03*
X38100000Y-76200000D03*
D18*
X47244000Y-33255500D03*
D19*
X52324000Y-33255500D03*
X57404000Y-33255500D03*
X62484000Y-33255500D03*
D14*
X36576000Y-119126000D03*
D12*
X35560000Y-44450000D03*
D13*
X35560000Y-31750000D03*
D12*
X40640000Y-44450000D03*
D13*
X40640000Y-31750000D03*
D14*
X73914000Y-26416000D03*
D15*
X38180000Y-53340000D03*
D16*
X43180000Y-53340000D03*
D12*
X50840000Y-116332000D03*
X55840000Y-116332000D03*
D16*
X66040000Y-67310000D03*
D17*
X66040000Y-44450000D03*
D20*
X47244000Y-33255500D02*
X46209500Y-34290000D01*
X46209500Y-34290000D02*
X38100000Y-34290000D01*
X38100000Y-34290000D02*
X35560000Y-31750000D01*
X52324000Y-31369000D02*
X50800000Y-29845000D01*
X50800000Y-29845000D02*
X42545000Y-29845000D01*
X52324000Y-33255500D02*
X52324000Y-31369000D01*
X42545000Y-29845000D02*
X40640000Y-31750000D01*
X40894000Y-116332000D02*
X40894000Y-114300000D01*
X43180000Y-112014000D02*
X43180000Y-111760000D01*
X40894000Y-114300000D02*
X43180000Y-112014000D01*
X53340000Y-111760000D02*
X53340000Y-117642000D01*
X53340000Y-117642000D02*
X55840000Y-120142000D01*
X55840000Y-119674000D02*
X55840000Y-120142000D01*
X59182000Y-116332000D02*
X55840000Y-119674000D01*
X59690000Y-116332000D02*
X59182000Y-116332000D01*
X58420000Y-111760000D02*
X58420000Y-112522000D01*
X55840000Y-116332000D02*
X55840000Y-114340000D01*
X55840000Y-114340000D02*
X58420000Y-111760000D01*
X58420000Y-112522000D02*
X62230000Y-116332000D01*
X73660000Y-76200000D02*
X66040000Y-68580000D01*
X66040000Y-68580000D02*
X66040000Y-67310000D01*
X57404000Y-38481000D02*
X54610000Y-41275000D01*
X57404000Y-33255500D02*
X57404000Y-38481000D01*
X38100000Y-66891041D02*
X38316041Y-66675000D01*
X54610000Y-41275000D02*
X54610000Y-44450000D01*
X38100000Y-76200000D02*
X38100000Y-66891041D01*
X64770000Y-120650000D02*
X64770000Y-118872000D01*
X56642000Y-121920000D02*
X59690000Y-118872000D01*
X50840000Y-120142000D02*
X52618000Y-121920000D01*
X40640000Y-50800000D02*
X43180000Y-53340000D01*
X73660000Y-111760000D02*
X54610000Y-92710000D01*
X65532000Y-121412000D02*
X64770000Y-120650000D01*
X68072000Y-121412000D02*
X65532000Y-121412000D01*
X40640000Y-44450000D02*
X40640000Y-50800000D01*
X50840000Y-116332000D02*
X50840000Y-120142000D01*
X52618000Y-121920000D02*
X56642000Y-121920000D01*
X59690000Y-118872000D02*
X64770000Y-118872000D01*
X73660000Y-111760000D02*
X69088000Y-116332000D01*
X54610000Y-64770000D02*
X54610000Y-67310000D01*
X69088000Y-120396000D02*
X68072000Y-121412000D01*
X43180000Y-53340000D02*
X54610000Y-64770000D01*
X69088000Y-116332000D02*
X69088000Y-120396000D01*
X54610000Y-92710000D02*
X54610000Y-67310000D01*
X38100000Y-111760000D02*
X38100000Y-89535000D01*
X43316041Y-84318959D02*
X43316041Y-66675000D01*
X43316041Y-64271041D02*
X38100000Y-59055000D01*
X38100000Y-89535000D02*
X43316041Y-84318959D01*
X38180000Y-58975000D02*
X38180000Y-53340000D01*
X43316041Y-66675000D02*
X43316041Y-64271041D01*
X35560000Y-50720000D02*
X38180000Y-53340000D01*
X35560000Y-44450000D02*
X35560000Y-50720000D01*
X38100000Y-59055000D02*
X38180000Y-58975000D01*
X66040000Y-41910000D02*
X66040000Y-44450000D01*
X62484000Y-33255500D02*
X62484000Y-38354000D01*
X62484000Y-38354000D02*
X66040000Y-41910000D01*
M02*
